<svg version="1.2" xmlns="http://www.w3.org/2000/svg" viewBox="0 0 512 496" width="512" height="496"><style>tspan{white-space:pre}.a{font-size: 5px;fill: #000000;font-family: "' Helvetica  Neue'"}</style><path  d="m419.8 82.8c-29.1-16.7-60.3-25.4-89.7-32.2l-3.9-6.1c-15.2-23.2-40.7-37-68.4-37h-3.6c-22.9 0-44.9 9.7-60.4 26.7-1.3 1.4-1.2 3.6 0.3 4.9 1.4 1.3 3.6 1.2 4.9-0.2 14.1-15.5 34.2-24.4 55.2-24.4h0.3c-17.2 5.3-32.3 16.4-42.4 31.9l-1 1.7q-5.7 0.3-11.2 0.7c-11 0.8-22 2.6-32.7 5.4-31.2 7.9-54.3 16.8-75 28.6-2.2 1.3-3.6 3.6-3.8 6.1-0.1 2.6 1 5 3.1 6.5 14.4 10.5 41 19.1 76.9 24.8l8.7 9.8c3.2 3.7 7.8 5.8 12.7 6l-77.3 346.5c-1 4.3 2.3 8.5 6.8 8.5h273.4c4.5 0 7.8-4.2 6.8-8.5l-77.3-346.4c4.4-0.2 8.5-2 11.7-5 1.4-1.3 1.4-3.5 0.1-4.9-1.3-1.4-3.6-1.5-5-0.2-2 2-4.8 3.1-7.6 3.1h-130.8c-3.2 0-6.2-1.4-8.3-3.7l-5.1-5.8c54.5-6.5 109.7-6.3 164.2 0.8q0.2 0.1 0.5 0.1 0.2 0 0.5-0.1c36.5-5.7 63.5-14.3 78.1-25 2.1-1.5 3.2-3.9 3.1-6.4-0.1-2.6-1.5-4.9-3.8-6.2zm-150.9 184.9c3.7-6.3 11.8-8.5 18.1-4.8 6.4 3.6 8.6 11.7 4.9 18.1-3.7 6.3-11.8 8.5-18.1 4.8-6.3-3.6-8.5-11.7-4.9-18.1zm33.1 42.5c-0.9 3-3.7 4.8-6.6 4.8q-1.1 0-2.2-0.3l-23.6-7.6-8.7 15 1.4 40.1c0.1 3.9-2.9 7.2-6.7 7.3q-0.2 0-0.3 0c-3.7 0-6.8-3-7-6.8l-1-30.9-27.4 14.5c-1 0.6-2.1 0.9-3.2 0.9-2.5 0-5-1.4-6.2-3.8-1.8-3.4-0.5-7.6 2.9-9.4l35.4-18.9 8.7-15-18.4-16.7c-2.9-2.6-3.1-7-0.5-9.9 2.6-2.8 7-3 9.9-0.4l21.4 19.4 27.6 8.9c3.7 1.2 5.7 5.1 4.5 8.8zm-5.6-174.1l-4 6.2c-1.2 1.8-3.2 2.9-5.4 2.9h-61.9c-2.2 0-4.3-1.1-5.5-2.9l-4-6.2zm-2.2-106c1.1-1.6 3.2-2 4.9-1q1.5 1 2.9 2.1c1.6 1.1 1.9 3.3 0.8 4.9-0.7 0.9-1.8 1.4-2.9 1.4-0.7 0-1.4-0.2-2-0.6q-1.3-1-2.7-1.9c-1.6-1.1-2.1-3.3-1-4.9zm-30.8-10.9c0.4-1.9 2.2-3.2 4.1-2.8 6.3 1.1 12.4 3 18.3 5.5 1.8 0.8 2.6 2.9 1.8 4.6-0.6 1.4-1.9 2.1-3.2 2.1q-0.7 0.1-1.4-0.2c-5.4-2.4-11-4.1-16.8-5.2-1.9-0.3-3.1-2.1-2.8-4zm78.4 94.2c-56.9-7.4-114.7-7.4-171.6 0-35.2-5.5-60.9-13.7-74.6-23.7-0.1 0-0.2-0.1-0.2-0.4q0-0.3 0.3-0.4c20.1-11.5 42.7-20.2 73.2-28 10.3-2.6 20.9-4.3 31.5-5.1 18.4-1.4 37-2.1 55.5-2.1 23.9 0 47.8 1.2 71.5 3.4 26.2 6.1 53.8 13.6 79.9 26.9-79.5-6.1-159.9-7.4-239.3-3.8-1.9 0-3.4 1.7-3.3 3.6 0.1 1.9 1.7 3.4 3.7 3.3 81.4-3.6 163.9-2.1 245.4 4.4-14.2 9.2-39 16.7-72 21.9z"/><text transform="translate(25,700)"><tspan x="0" y="0" class="a">Created by iconfield
</tspan></text><text transform="translate(35,656)"><tspan x="0" y="0" class="a">from the Noun Project
</tspan></text></svg>