<svg xmlns="http://www.w3.org/2000/svg" width="1024" height="1024" viewBox="0 0 1024 1024" version="1.1">
	<path d="M 0 512.001 L 0 1024.002 512.250 1023.751 L 1024.500 1023.500 1024.751 511.750 L 1025.002 0 512.501 0 L 0 0 0 512.001 M 0.496 512.500 C 0.496 794.100, 0.610 909.151, 0.750 768.168 C 0.890 627.186, 0.890 396.786, 0.750 256.168 C 0.610 115.551, 0.496 230.900, 0.496 512.500 M 501 238.015 C 450.591 243.198, 406.743 274.282, 383.236 321.500 C 376.299 335.434, 370.591 353.801, 367.853 371 C 365.257 387.311, 366.420 419.540, 370.104 433.351 C 371.445 438.378, 372.043 437.680, 371.047 432.250 C 370.619 429.913, 370.551 428, 370.896 428 C 371.241 428, 371.599 424.512, 371.692 420.250 C 371.951 408.323, 373.253 398.052, 375.115 393.254 C 375.703 391.739, 376.366 389.375, 376.588 388 C 377.070 385.021, 378.196 380.841, 380.955 371.791 C 382.080 368.101, 383 364.134, 383 362.975 C 383 361.817, 383.447 360.034, 383.993 359.013 C 384.539 357.993, 385.259 355.435, 385.593 353.329 C 385.927 351.223, 386.681 348.600, 387.269 347.500 C 387.857 346.400, 388.275 345.275, 388.198 345 C 387.885 343.886, 390.296 336.413, 392.574 331.431 C 393.908 328.515, 395 325.865, 395 325.544 C 395 325.223, 396.238 323.097, 397.750 320.821 C 403.778 311.746, 403.913 311.527, 408.126 304 C 408.896 302.625, 410.762 300.192, 412.273 298.593 C 413.784 296.995, 414.812 295.478, 414.558 295.224 C 413.621 294.288, 416.819 292.111, 418.900 292.267 C 420.426 292.382, 420.857 292.874, 420.387 293.965 C 419.389 296.281, 419.262 305, 420.227 305 C 420.691 305, 420.603 305.873, 420.032 306.939 C 419.340 308.233, 419.329 309.086, 420 309.500 C 420.633 309.891, 420.665 310.757, 420.087 311.837 C 419.583 312.780, 419.537 314.215, 419.986 315.026 C 420.435 315.837, 420.960 317.625, 421.151 319 C 421.589 322.141, 422.707 322.965, 426.550 322.985 C 428.228 322.993, 430.140 323.540, 430.800 324.200 C 431.733 325.133, 432 325.133, 432 324.200 C 432 323.540, 432.675 323, 433.500 323 C 434.325 323, 435.007 323.563, 435.015 324.250 C 435.027 325.219, 435.214 325.211, 435.848 324.211 C 436.464 323.241, 437.339 323.179, 439.390 323.958 C 441.146 324.626, 441.895 324.640, 441.498 323.997 C 441.132 323.405, 442.341 323, 444.472 323 C 446.772 323, 448.274 323.550, 448.650 324.530 C 449.043 325.555, 449.941 325.851, 451.368 325.426 C 453.375 324.830, 453.393 324.875, 451.676 326.187 C 450.001 327.467, 450.138 327.601, 453.351 327.817 C 455.275 327.946, 457.165 327.542, 457.550 326.919 C 458.035 326.134, 457.560 326.005, 456 326.500 C 454.467 326.987, 453.968 326.861, 454.434 326.107 C 455.451 324.462, 459 324.767, 459 326.500 C 459 327.325, 459.477 328, 460.059 328 C 460.641 328, 460.840 327.550, 460.500 327 C 460.160 326.450, 460.359 326, 460.941 326 C 461.523 326, 462 326.402, 462 326.893 C 462 327.384, 462.739 328.069, 463.641 328.416 C 465.014 328.943, 465.076 328.796, 464.019 327.523 C 463.324 326.685, 462.923 325.963, 463.128 325.918 C 467.241 325.010, 469.302 325.160, 470.604 326.461 C 471.450 327.308, 473.798 328.052, 475.821 328.116 C 477.845 328.180, 478.712 328.438, 477.750 328.689 C 476.788 328.941, 476 329.615, 476 330.188 C 476 330.761, 477.125 330.493, 478.500 329.592 C 479.875 328.691, 481 328.414, 481 328.977 C 481 329.540, 481.477 330, 482.059 330 C 482.641 330, 482.840 329.550, 482.500 329 C 482.110 328.370, 484.479 328, 488.910 328 C 494.355 328, 495.822 328.300, 495.426 329.333 C 494.904 330.693, 496.156 331.051, 501.250 330.997 C 502.762 330.981, 504 331.350, 504 331.817 C 504 332.861, 503.847 332.847, 518.276 333.083 C 524.753 333.189, 530.292 333.664, 530.585 334.138 C 530.878 334.612, 531.654 334.993, 532.309 334.985 C 533.024 334.976, 532.902 334.592, 532.006 334.025 C 530.986 333.380, 532.477 333.125, 536.704 333.221 C 540.801 333.313, 542.679 333.722, 542.256 334.430 C 541.904 335.019, 542.464 334.825, 543.500 334 C 544.536 333.175, 545.083 333.002, 544.716 333.616 C 544.348 334.230, 544.937 335.538, 546.024 336.521 C 548.055 338.360, 548.863 337.263, 546.913 335.313 C 546.130 334.530, 546.173 334.011, 547.067 333.458 C 547.921 332.931, 548.056 333.101, 547.499 334.002 C 546.870 335.019, 547.389 335.172, 549.812 334.688 C 552.162 334.218, 553.187 334.489, 553.950 335.781 C 554.577 336.845, 555.256 337.119, 555.732 336.500 C 556.797 335.114, 560.377 334.581, 559.541 335.933 C 559.158 336.553, 559.720 337, 560.882 337 C 561.982 337, 563.123 337.390, 563.417 337.866 C 563.711 338.342, 565.155 338.502, 566.625 338.221 C 568.472 337.868, 569.079 338.064, 568.590 338.855 C 568.200 339.485, 568.359 340, 568.941 340 C 569.523 340, 570 339.550, 570 339 C 570 338.450, 571.377 338, 573.059 338 C 574.741 338, 575.910 338.337, 575.656 338.750 C 575.094 339.661, 583.642 339.691, 584.552 338.782 C 585.485 337.848, 588.091 339.044, 587.435 340.105 C 587.131 340.597, 587.760 341, 588.834 341 C 589.908 341, 591.009 341.580, 591.281 342.289 C 592.103 344.431, 601.007 343.434, 602.705 341.010 C 603.480 339.905, 604.586 339, 605.163 339 C 606.137 339, 611.007 333.578, 610.081 333.524 C 609.851 333.511, 610.295 332.375, 611.068 331 C 612.773 327.968, 613.244 324.094, 613.235 313.164 C 613.231 308.381, 612.753 304.353, 612.114 303.714 C 611.501 303.101, 611 301.826, 611 300.881 C 611 298.811, 607.829 293.015, 606.691 293.006 C 606.246 293.003, 606.160 292.550, 606.500 292 C 606.840 291.450, 606.703 291, 606.196 291 C 605.688 291, 605.331 289.988, 605.402 288.750 C 605.474 287.512, 605.179 286.050, 604.747 285.500 C 604.316 284.950, 603.072 283.420, 601.984 282.100 C 600.462 280.253, 600.268 279.382, 601.144 278.327 C 602.037 277.251, 601.956 277.079, 600.770 277.535 C 599.892 277.872, 598.997 277.435, 598.636 276.494 C 598.270 275.539, 597.498 275.170, 596.757 275.597 C 596.066 275.995, 595.851 275.935, 596.279 275.465 C 597.964 273.613, 600.118 274.349, 603.976 278.092 C 606.190 280.242, 607.759 282, 607.462 282 C 607.164 282, 607.501 282.625, 608.211 283.389 C 609.145 284.396, 609.702 284.465, 610.235 283.639 C 610.754 282.834, 610.974 282.883, 610.985 283.809 C 610.993 284.529, 611.337 284.910, 611.750 284.655 C 612.163 284.400, 612.569 285.344, 612.654 286.753 C 612.740 288.182, 614.177 290.594, 615.904 292.208 C 617.607 293.799, 619 295.754, 619 296.551 C 619 297.348, 619.450 298, 620 298 C 620.550 298, 621 298.675, 621 299.500 C 621 300.325, 621.460 301, 622.021 301 C 622.583 301, 623.587 302.238, 624.251 303.750 C 624.916 305.262, 625.693 306.725, 625.980 307 C 626.841 307.827, 628.944 311.360, 629.941 313.653 C 630.455 314.837, 631.362 316.106, 631.955 316.472 C 632.548 316.838, 632.774 317.557, 632.457 318.069 C 632.141 318.581, 632.324 319, 632.863 319 C 633.403 319, 634.361 320.688, 634.992 322.750 C 636.127 326.460, 636.572 327.654, 638.994 333.500 C 640.945 338.209, 644 349.273, 644 351.633 C 644 352.809, 644.672 355.060, 645.494 356.636 C 646.315 358.211, 646.990 360.456, 646.994 361.624 C 646.997 362.793, 647.678 365.670, 648.507 368.019 C 649.335 370.368, 650.259 373.462, 650.559 374.895 C 650.859 376.328, 651.214 378.017, 651.346 378.649 C 651.479 379.281, 652.046 380.406, 652.606 381.149 C 653.166 381.892, 654.226 384.975, 654.962 388 C 655.697 391.025, 656.957 394.509, 657.760 395.742 C 658.563 396.976, 658.944 398.703, 658.608 399.580 C 658.271 400.458, 658.751 403.724, 659.674 406.838 C 660.771 410.539, 661.286 415.443, 661.161 421 C 660.919 431.730, 662.404 429.915, 664.063 417.454 C 664.809 411.854, 665.059 401.944, 664.733 391 C 663.792 359.516, 657.265 336.137, 642.227 310.388 C 629.518 288.627, 607.041 266.778, 584.774 254.540 C 560.652 241.283, 529.323 235.103, 501 238.015 M 588 265.393 C 588 266.342, 590.993 266.820, 591.527 265.956 C 591.852 265.430, 591.191 265, 590.059 265 C 588.927 265, 588 265.177, 588 265.393 M 801 278.599 C 783.883 280.085, 764.049 282.570, 749.500 285.051 C 730.279 288.328, 705.707 293.495, 703.613 294.698 C 702.549 295.310, 703.563 296.957, 707.884 301.642 L 713.550 307.784 726.686 304.921 C 743.814 301.187, 766.172 298.244, 787.889 296.863 C 815.776 295.091, 845.951 297.920, 864 304.001 C 893.905 314.075, 909.014 331.683, 908.993 356.432 C 908.948 407.831, 843.110 475.002, 732 537.004 C 718.480 544.549, 683.960 561.677, 667.500 569.008 C 659.800 572.438, 651.560 576.113, 649.188 577.175 C 640.891 580.891, 602.398 595.777, 591.165 599.613 C 579.971 603.435, 579.710 603.596, 570.271 612.492 C 557.710 624.328, 549.526 630.273, 538.186 635.797 C 529.374 640.089, 528.319 640.359, 518.615 640.790 C 506.870 641.312, 500.417 639.898, 490.389 634.605 L 484.278 631.378 473.889 634.198 C 447.145 641.455, 388.105 653.436, 354.500 658.426 C 311.914 664.750, 263.020 667.719, 229.873 665.996 C 170.025 662.883, 135.547 648.966, 125.837 624 C 123.076 616.902, 122.879 604.060, 125.401 595.566 C 135.756 560.690, 175.257 522.905, 246.500 479.729 L 260.500 471.244 261 463.120 C 261.275 458.652, 261.365 454.997, 261.200 454.998 C 258.576 455.015, 209.211 485.415, 188.500 499.769 C 167.338 514.434, 143.645 534.374, 126.300 552.113 C 102.714 576.237, 88.765 600.785, 86.563 622.040 C 85.729 630.097, 87.730 640.553, 91.556 648.126 C 94.617 654.186, 105.375 665.295, 112.061 669.302 C 147.727 690.673, 206.607 697.695, 294 690.999 C 343.588 687.200, 412.896 675.403, 482.316 658.946 C 575.921 636.755, 663.694 604.352, 738 564.554 C 838.028 510.980, 908.620 450.787, 936.262 395.500 C 944.480 379.062, 948.851 359.941, 947.416 346.700 C 943.539 310.906, 914.402 288.042, 863 280.460 C 852.947 278.977, 811.111 277.721, 801 278.599 M 388.973 281.695 C 381.734 286.656, 365.336 300.635, 356.957 308.987 C 333.382 332.489, 316.204 359.180, 304.625 390.304 C 299.943 402.887, 296.866 414, 298.064 414 C 298.579 414, 299 413.400, 299 412.667 C 299 411.933, 299.675 411.333, 300.500 411.333 C 301.358 411.333, 301.993 412.225, 301.985 413.417 C 301.972 415.128, 301.796 415.232, 301 414 C 300.418 413.099, 300.025 412.975, 300.015 413.691 C 299.990 415.652, 301.975 416.263, 303.736 414.836 C 304.911 413.883, 305.168 413.859, 304.633 414.750 C 304.209 415.456, 304.374 416, 305.012 416 C 305.638 416, 305.398 416.745, 304.475 417.668 C 302.917 419.226, 303.028 419.410, 306.153 420.441 C 309.274 421.471, 309.618 421.357, 311.250 418.749 C 312.212 417.210, 313 415.320, 313 414.547 C 313 413.775, 313.630 412.513, 314.399 411.743 C 315.169 410.974, 317.261 406.779, 319.047 402.422 C 320.834 398.065, 322.904 393.790, 323.648 392.921 C 324.392 392.053, 325 390.772, 325 390.076 C 325 389.379, 325.827 387.614, 326.837 386.154 C 327.848 384.694, 328.978 382.661, 329.349 381.637 C 329.795 380.405, 330.677 379.944, 331.947 380.276 C 333.005 380.553, 334.770 380.149, 335.870 379.379 C 337.148 378.483, 338.094 378.343, 338.493 378.989 C 338.837 379.545, 339.991 380, 341.059 380 C 342.127 380, 343.007 380.563, 343.015 381.250 C 343.026 382.112, 343.314 382.052, 343.945 381.055 C 344.517 380.151, 344.849 386.138, 344.833 397.055 C 344.815 408.314, 345.388 418.317, 346.446 425.265 C 348.328 437.616, 354.443 460.020, 358.929 471 C 360.614 475.125, 361.997 478.950, 362.002 479.500 C 362.014 481.006, 366.923 486.694, 366.964 485.250 C 366.984 484.563, 366.648 484, 366.218 484 C 365.788 484, 365.368 482.762, 365.284 481.250 C 365.155 478.927, 365.435 479.182, 367.087 482.896 C 370.724 491.074, 369.981 486.445, 365.970 475.939 C 350.974 436.664, 347.135 405.963, 352.550 368.637 C 356.995 337.998, 370.542 306.173, 388.258 284.750 C 392.565 279.542, 392.651 279.174, 388.973 281.695 M 649.469 293.367 C 664.569 315.765, 673.539 337.868, 678.617 365.189 C 681.098 378.540, 681.607 410.225, 679.553 423.500 C 678.119 432.770, 673.916 451.985, 671.371 460.906 C 670.887 462.603, 671.026 463.102, 671.842 462.597 C 672.479 462.204, 673 460.953, 673 459.819 C 673 458.154, 673.273 457.982, 674.414 458.928 C 675.590 459.904, 676.331 458.537, 678.820 450.801 C 684.787 432.252, 687 417.126, 687 394.884 L 687 380.216 690.913 380.302 C 694.869 380.389, 698.438 378.518, 697.430 376.887 C 696.457 375.312, 697.647 375.941, 700.104 378.301 C 701.422 379.566, 703.575 382.716, 704.889 385.301 C 706.203 387.885, 707.581 390, 707.952 390 C 708.323 390, 709.240 391.564, 709.990 393.476 C 710.866 395.707, 711.738 396.648, 712.427 396.104 C 713.017 395.638, 714.288 395.384, 715.250 395.540 C 716.212 395.696, 717.007 395.300, 717.015 394.662 C 717.025 393.958, 717.383 394.056, 717.923 394.909 C 718.413 395.684, 718.581 396.927, 718.296 397.671 C 717.935 398.611, 718.299 398.823, 719.490 398.366 C 720.456 397.995, 721.546 398.266, 721.992 398.987 C 722.624 400.009, 723.205 399.970, 724.885 398.793 C 726.041 397.983, 726.690 397.023, 726.327 396.660 C 725.964 396.297, 726.169 396, 726.784 396 C 727.398 396, 728.407 396.788, 729.026 397.750 C 730.303 399.736, 730.408 400.130, 726.825 389.500 C 723.784 380.477, 711.903 356.555, 705.976 347.522 C 692.283 326.649, 674.661 307.304, 655 291.563 C 648.675 286.498, 642.957 282.036, 642.294 281.646 C 641.631 281.256, 644.860 286.530, 649.469 293.367 M 781 307.040 C 761.973 308.229, 723.775 314.005, 721.636 316.016 C 721.160 316.463, 722.184 318.780, 723.910 321.164 C 725.636 323.549, 728.869 328.200, 731.094 331.500 L 735.139 337.500 754.303 337.169 C 789.016 336.569, 813.847 342.531, 826.287 354.451 C 833.634 361.490, 834.500 363.816, 834.498 376.500 C 834.496 386.808, 834.281 388, 831.073 395.446 C 825.380 408.663, 817.016 419.968, 801.066 436.006 C 785.579 451.578, 780.661 455.911, 764 468.660 C 730.550 494.255, 690.540 517.804, 643.813 539.401 L 624.125 548.500 619.193 555.500 C 616.480 559.350, 610.395 567.430, 605.670 573.456 C 600.944 579.482, 597.263 584.596, 597.488 584.822 C 597.924 585.257, 599.187 584.824, 611 580.191 C 661.535 560.371, 706.450 538.666, 749 513.503 C 760.098 506.939, 789.964 486.748, 801.500 478.009 C 839.366 449.325, 868.355 418.892, 881.319 394.215 C 887.656 382.152, 890.145 373.744, 890.727 362.429 C 891.356 350.234, 889.820 343.946, 884.272 336.006 C 869.482 314.836, 830.628 303.938, 781 307.040 M 424 325 C 424 325.550, 424.450 326, 425 326 C 425.550 326, 426 325.550, 426 325 C 426 324.450, 425.550 324, 425 324 C 424.450 324, 424 324.450, 424 325 M 466.277 328.032 C 466.377 329.356, 466.834 329.633, 467.916 329.027 C 468.909 328.472, 469.826 328.747, 470.627 329.842 C 471.292 330.752, 472.141 331.192, 472.513 330.820 C 473.331 330.002, 469.678 326.717, 467.613 326.414 C 466.733 326.285, 466.195 326.937, 466.277 328.032 M 511.459 329.067 C 510.433 330.727, 511.354 330.957, 512.789 329.399 C 513.499 328.630, 513.638 328, 513.098 328 C 512.559 328, 511.821 328.480, 511.459 329.067 M 489 330.094 C 489 330.592, 489.900 331, 491 331 C 492.100 331, 493 330.827, 493 330.617 C 493 330.406, 492.100 329.998, 491 329.710 C 489.900 329.423, 489 329.595, 489 330.094 M 517 330.393 C 517 330.609, 517.698 331.054, 518.552 331.382 C 519.442 331.723, 519.843 331.555, 519.493 330.989 C 518.906 330.038, 517 329.583, 517 330.393 M 537.510 331.016 C 537.856 331.575, 538.557 331.774, 539.069 331.457 C 540.456 330.600, 540.198 330, 538.441 330 C 537.584 330, 537.165 330.457, 537.510 331.016 M 537 336 C 535.718 336.828, 535.754 336.972, 537.250 336.985 C 538.212 336.993, 539 336.550, 539 336 C 539 334.780, 538.887 334.780, 537 336 M 550.507 336.989 C 550.157 337.555, 550.558 337.723, 551.448 337.382 C 553.180 336.717, 553.497 336, 552.059 336 C 551.541 336, 550.843 336.445, 550.507 336.989 M 767.167 355.875 C 766.297 356.427, 767.686 356.957, 771.167 357.403 C 785.489 359.235, 795.019 362.853, 801.332 368.856 C 807.884 375.085, 809.956 381.770, 808.018 390.420 C 806.603 396.732, 807.460 397.430, 809.824 391.892 C 812.896 384.692, 813.284 380.488, 811.455 374.196 C 809.301 366.786, 804.603 362.255, 795.964 359.256 C 786.017 355.803, 770.209 353.947, 767.167 355.875 M 686.079 374.583 C 686.127 375.748, 686.364 375.985, 686.683 375.188 C 686.972 374.466, 686.936 373.603, 686.604 373.271 C 686.272 372.939, 686.036 373.529, 686.079 374.583 M 332 377.500 C 332 378.325, 332.177 379, 332.393 379 C 332.609 379, 333.045 378.325, 333.362 377.500 C 333.678 376.675, 333.501 376, 332.969 376 C 332.436 376, 332 376.675, 332 377.500 M 721.543 388.931 C 721.226 389.443, 721.378 390.115, 721.879 390.425 C 722.380 390.735, 723.048 390.316, 723.364 389.494 C 723.986 387.874, 722.483 387.409, 721.543 388.931 M 943.500 422.778 C 935.689 434.073, 923.050 449.260, 912.202 460.388 C 899.423 473.497, 880.753 490.559, 877.149 492.423 C 875.417 493.319, 874 494.393, 874 494.810 C 874 495.227, 872.538 496.412, 870.750 497.442 C 867.791 499.148, 858.640 506.708, 851.917 513 C 848.874 515.848, 846.024 518.109, 830.482 530 C 813.792 542.770, 813.927 542.647, 814.576 544.336 C 814.939 545.284, 815.805 545.630, 816.833 545.238 C 819.375 544.269, 836.550 533.443, 845.152 527.387 C 849.361 524.424, 853.074 522, 853.402 522 C 853.731 522, 854.868 521.212, 855.928 520.250 C 859.290 517.199, 860.895 516, 861.617 516 C 862.725 516, 872.128 508.681, 876.858 504.136 C 879.226 501.861, 881.540 500, 882 500 C 882.460 500, 883.760 498.506, 884.889 496.680 C 886.017 494.854, 889.992 490.454, 893.720 486.902 C 909.312 472.049, 928.065 450.159, 937.756 435.500 C 944.510 425.282, 951.078 413.992, 950.233 414.052 C 949.830 414.080, 946.800 418.007, 943.500 422.778 M 418.433 416.891 C 418.763 417.425, 418.575 418.144, 418.016 418.490 C 417.457 418.835, 417 419.913, 417 420.885 C 417 421.856, 415.917 423.668, 414.594 424.911 C 412.516 426.863, 411.876 427.004, 409.895 425.944 C 407.932 424.893, 407.419 424.989, 406.344 426.608 C 404.182 429.863, 401.821 432.569, 402.513 431 C 402.876 430.175, 402.336 430.524, 401.313 431.776 C 399.844 433.573, 399.194 433.794, 398.226 432.826 C 395.995 430.595, 396.822 434.542, 400.526 443.795 C 404.065 452.638, 409.149 460.855, 416.391 469.439 C 420.079 473.810, 420.804 476.742, 417.524 474.020 C 416.686 473.324, 416 473.051, 416 473.413 C 416 473.774, 415.087 473.582, 413.972 472.985 C 412.857 472.388, 412.251 471.403, 412.627 470.795 C 413.051 470.109, 412.849 469.976, 412.091 470.443 C 411.404 470.868, 409.950 470.391, 408.751 469.348 C 407.457 468.222, 407.967 469.395, 410.055 472.349 C 418.847 484.791, 443.746 500.469, 458.039 502.562 L 462.500 503.216 456.702 500.177 C 453.512 498.505, 449.573 496.845, 447.947 496.488 C 446.321 496.131, 442.753 494.300, 440.019 492.419 C 437.285 490.539, 434.818 489, 434.536 489 C 433.392 489, 430 485.469, 430 484.278 C 430 482.496, 429.898 482.459, 439.698 487.774 C 451.793 494.333, 459.344 497.042, 466.998 497.569 C 473.432 498.012, 473.466 498.001, 470.250 496.505 C 468.462 495.674, 467 494.546, 467 493.997 C 467 493.449, 466.325 493, 465.500 493 C 462.450 493, 464.116 490.996, 467.250 490.896 C 469.038 490.839, 472.412 490.726, 474.750 490.646 C 477.087 490.566, 479 490.837, 479 491.250 C 479 491.663, 480.350 492, 482 492 C 484.150 492, 485.030 491.504, 485.106 490.250 C 485.427 484.967, 487.124 477.041, 488.058 476.464 C 490.315 475.069, 483.085 460.531, 474.821 449.848 C 466.355 438.904, 455.206 430.004, 441.410 423.178 C 434.494 419.756, 431.024 418.649, 420.166 416.403 C 418.804 416.121, 418.082 416.324, 418.433 416.891 M 609 416.691 C 588.135 420.184, 560.160 441.142, 549.190 461.500 C 544.321 470.536, 541.576 478.998, 544 477.500 C 544.822 476.992, 545.646 484.911, 545.118 488.250 C 545.053 488.663, 545.627 489, 546.393 489 C 547.159 489, 548.023 489.616, 548.312 490.370 C 548.721 491.437, 550.790 491.637, 557.669 491.276 C 565.721 490.853, 566.606 490.989, 567.707 492.823 C 568.785 494.619, 568.571 494.965, 565.707 496.057 C 563.494 496.901, 563.007 497.407, 564.137 497.691 C 567.142 498.448, 582.387 492.817, 592.321 487.281 C 597.722 484.271, 602.316 481.983, 602.530 482.197 C 602.744 482.411, 601.925 483.740, 600.710 485.150 C 595.446 491.258, 576.558 500.701, 563.706 503.649 C 559.743 504.559, 557.022 505.484, 557.659 505.705 C 558.297 505.926, 563.826 504.978, 569.945 503.600 C 589.563 499.181, 608.895 488.136, 619.486 475.296 C 622.505 471.636, 624.694 468.385, 624.350 468.071 C 624.007 467.757, 623.519 468.081, 623.266 468.792 C 622.890 469.847, 622.515 469.847, 621.216 468.792 C 619.838 467.673, 619.725 467.767, 620.372 469.500 C 620.937 471.013, 620.836 471.220, 619.959 470.350 C 619.085 469.483, 618.375 469.605, 617.071 470.850 C 613.274 474.474, 610 476.944, 610 476.184 C 610 475.742, 612.099 472.932, 614.665 469.940 C 621.757 461.671, 628.566 450.742, 630.862 443.943 C 632.912 437.872, 632.913 437.823, 630.962 435.729 C 629.882 434.570, 629.101 433.145, 629.226 432.561 C 629.551 431.035, 625.866 425.163, 624.176 424.514 C 623.390 424.212, 622.055 424.536, 621.211 425.233 C 619.987 426.243, 619.589 426.246, 619.254 425.250 C 619.023 424.563, 618.166 424, 617.349 424 C 616.351 424, 616.061 423.384, 616.462 422.118 C 616.839 420.931, 616.495 420.020, 615.530 419.650 C 614.688 419.327, 614 418.374, 614 417.531 C 614 415.991, 613.590 415.923, 609 416.691 M 238 446.021 C 237.175 446.469, 232.225 448.944, 227 451.521 C 201.736 463.981, 171.135 484.389, 144.191 506.747 C 123.983 523.515, 102.457 546, 106.612 546 C 106.949 546, 110.211 543.139, 113.862 539.643 C 139.285 515.294, 168.660 493.774, 221.630 460.693 C 231.051 454.809, 239.335 449.302, 240.037 448.455 C 241.588 446.587, 240.142 444.859, 238 446.021 M 251 487.309 C 193.589 522.931, 161.109 551.975, 148.093 579.328 C 143.056 589.915, 141.596 596.481, 142.278 605.495 C 143.948 627.579, 163.242 641.648, 202.500 649.409 C 229.504 654.747, 275.136 655.354, 320 650.971 C 334.240 649.580, 366.574 645.268, 377 643.369 C 407.690 637.780, 429.546 633.225, 456 626.904 C 462.875 625.262, 469.517 623.701, 470.760 623.437 C 472.908 622.981, 472.834 622.800, 469.260 619.796 C 467.192 618.057, 462.534 613.763, 458.909 610.252 L 452.317 603.868 439.409 606.890 C 390.350 618.374, 337.320 625, 294.461 625 C 246.522 625, 219.428 618.280, 205.671 602.979 C 200.011 596.684, 198.689 592.758, 199.166 583.667 C 199.594 575.526, 202.863 567.513, 210.118 556.822 C 217.223 546.353, 238.580 525.738, 256.817 511.746 L 263.013 506.992 262.465 499.746 C 261.482 486.758, 260.868 482, 260.178 482.017 C 259.805 482.027, 255.675 484.408, 251 487.309 M 368.459 489.067 C 367.433 490.727, 368.354 490.957, 369.789 489.399 C 370.499 488.630, 370.638 488, 370.098 488 C 369.559 488, 368.821 488.480, 368.459 489.067 M 637.427 488.765 C 636.309 489.531, 634.595 493.036, 634.802 494.132 C 634.868 494.480, 634.183 494.705, 633.280 494.632 C 630.699 494.424, 622.399 506.895, 613.899 523.750 C 612.166 527.188, 610.331 530, 609.823 530 C 608.465 530, 605.778 536.980, 606.456 538.746 C 606.913 539.938, 607.668 539.597, 610.018 537.138 C 611.658 535.422, 613 533.640, 613 533.178 C 613 532.716, 614.134 531.731, 615.519 530.990 C 616.905 530.248, 617.595 529.368, 617.053 529.033 C 615.137 527.849, 621.995 518.024, 624.231 518.750 C 624.654 518.887, 625 518.582, 625 518.071 C 625 517.561, 625.586 516.548, 626.302 515.821 C 628.136 513.960, 634 502.915, 634 501.322 C 634 500.595, 634.398 500, 634.883 500 C 635.783 500, 636.981 497.006, 637.433 493.628 C 637.571 492.599, 638.439 491.334, 639.363 490.817 C 640.286 490.300, 640.781 489.455, 640.462 488.939 C 639.771 487.820, 638.882 487.769, 637.427 488.765 M 394.143 489.890 C 393.136 490.529, 393.089 490.937, 393.961 491.476 C 394.608 491.876, 394.882 492.865, 394.571 493.675 C 394.260 494.486, 394.714 495.857, 395.581 496.723 C 396.447 497.590, 396.937 499.132, 396.671 500.150 C 396.369 501.306, 396.591 501.753, 397.263 501.337 C 397.944 500.916, 398.105 501.283, 397.701 502.336 C 397.337 503.286, 397.550 504, 398.198 504 C 398.822 504, 399.041 504.293, 398.683 504.650 C 398.325 505.008, 399.070 506.262, 400.337 507.437 C 401.605 508.612, 402.460 510.119, 402.238 510.787 C 402.015 511.454, 402.347 512, 402.976 512 C 403.604 512, 403.870 512.401, 403.568 512.891 C 403.265 513.380, 404.174 514.539, 405.587 515.465 C 407.096 516.454, 407.931 517.738, 407.610 518.574 C 407.309 519.358, 407.502 520, 408.039 520 C 408.577 520, 409.735 521.797, 410.614 523.994 C 411.493 526.190, 412.614 527.738, 413.106 527.434 C 413.598 527.131, 414 527.456, 414 528.158 C 414 530.190, 423.275 537.967, 425.719 537.984 C 428.222 538.002, 427.992 536.404, 424.837 531.846 C 423.827 530.386, 423 528.698, 423 528.096 C 423 527.493, 422.550 527, 422 527 C 421.450 527, 421 526.492, 421 525.871 C 421 525.251, 419.200 522.106, 417 518.883 C 414.800 515.660, 413 512.605, 413 512.095 C 413 511.584, 412.605 511.017, 412.122 510.833 C 411.639 510.650, 410.075 508.700, 408.648 506.500 C 403.549 498.644, 397.478 491.120, 396.191 491.060 C 395.471 491.027, 395.160 490.550, 395.500 490 C 396.250 488.786, 395.927 488.760, 394.143 489.890 M 464.500 504 C 465.600 504.473, 467.400 504.846, 468.500 504.830 C 470.108 504.806, 470.010 504.644, 468 504 C 464.581 502.905, 461.952 502.905, 464.500 504 M 226.042 566.137 C 224.907 567.987, 223.219 571.883, 222.292 574.795 C 220.105 581.665, 221.555 589.868, 225.735 594.273 C 231.908 600.777, 248.355 606.053, 262 605.905 L 269.500 605.823 258.195 603.460 C 246.984 601.116, 237.337 597.481, 233.626 594.203 C 232.565 593.266, 230.415 590.499, 228.849 588.054 C 226.485 584.365, 226 582.531, 226 577.272 C 226 573.787, 226.681 569.306, 227.513 567.314 C 229.499 562.561, 228.654 561.885, 226.042 566.137 M 659.500 629.096 C 641.126 643.325, 611.944 657.829, 585.500 665.874 C 558.889 673.971, 549.380 675.984, 526.197 678.432 C 515.201 679.593, 514.680 679.745, 517.500 680.980 C 524.277 683.946, 554.865 681.557, 576 676.412 C 606.319 669.030, 641.298 650.030, 660.286 630.628 C 662.918 627.939, 664.943 625.622, 664.786 625.481 C 664.629 625.340, 662.250 626.966, 659.500 629.096 M 678.307 659.019 C 669.438 665.825, 641.180 682.799, 626.288 690.264 C 615.577 695.633, 612.329 697.691, 613.099 698.619 C 613.901 699.585, 615.241 699.465, 619.315 698.064 C 635.038 692.654, 653.491 683.196, 665 674.648 C 677.017 665.722, 685.856 657.787, 685.324 656.402 C 684.557 654.404, 684.095 654.576, 678.307 659.019 M 403.445 755.071 C 399.158 756.313, 395.924 760.133, 395.332 764.652 C 394.643 769.911, 398.088 774.985, 403.668 776.930 C 407.351 778.213, 408.245 778.178, 412.407 776.589 C 419.114 774.027, 421.740 767.708, 419.045 760.617 C 417.266 755.940, 409.713 753.254, 403.445 755.071 M 634.014 755.035 C 625.805 756.940, 622.285 766.620, 627.533 772.857 C 634.619 781.278, 648.350 777.856, 649.634 767.348 C 650.642 759.109, 642.869 752.981, 634.014 755.035 M 351 818 L 351 878 361 878 L 371 878 371 818 L 371 758 361 758 L 351 758 351 818 M 260.225 773.250 C 254.902 785.081, 243.751 809.831, 227.147 846.666 C 219.916 862.707, 214 876.319, 214 876.916 C 214 877.625, 217.545 877.996, 224.250 877.988 L 234.500 877.975 237.425 870.738 C 239.034 866.757, 241.668 860.681, 243.277 857.235 L 246.202 850.970 275.228 851.235 L 304.254 851.500 309.998 864.500 L 315.743 877.500 326.992 877.784 C 335.847 878.007, 338.124 877.795, 337.695 876.784 C 337.395 876.078, 332.907 866.275, 327.722 855 C 307.460 810.939, 292.128 777.253, 289.945 772 C 288.687 768.975, 287.230 765.938, 286.707 765.250 C 286.050 764.387, 282.444 764, 275.071 764 L 264.386 764 260.225 773.250 M 762 781.603 L 762 792.207 754.750 791.853 L 747.500 791.500 747.208 799.250 L 746.916 807 754.458 807 L 762 807 762 831.318 C 762 858.932, 762.684 862.935, 768.585 869.828 C 770.581 872.161, 774.079 875.031, 776.357 876.207 C 784.422 880.370, 802.825 879.509, 809.453 874.659 C 811.374 873.253, 811.360 873.113, 808.615 866.115 C 807.079 862.202, 805.693 859, 805.534 859 C 805.375 859, 803.629 859.675, 801.654 860.500 C 799.680 861.325, 795.884 862, 793.219 862 C 789.119 862, 787.923 861.529, 785.437 858.936 L 782.500 855.873 782.186 831.436 L 781.871 807 793.978 807 L 806.084 807 805.792 799.376 L 805.500 791.752 793.750 791.929 L 782 792.106 782 781.553 L 782 771 772 771 L 762 771 762 781.603 M 273.752 788 C 272.908 789.925, 268.335 800.233, 263.589 810.906 C 258.843 821.580, 254.724 831.255, 254.437 832.406 C 253.935 834.414, 254.337 834.514, 264.207 834.842 C 269.868 835.030, 279.510 834.876, 285.634 834.501 L 296.769 833.817 293.003 825.159 C 290.932 820.396, 286.324 809.975, 282.762 802 C 279.200 794.025, 276.061 786.825, 275.786 786 C 275.451 784.996, 274.779 785.657, 273.752 788 M 566.390 790.192 C 558.431 791.006, 550.119 793.926, 545.272 797.613 C 535.208 805.268, 533.207 821.472, 541.202 830.577 C 546.616 836.743, 554.225 839.641, 573.946 843.046 C 585.984 845.125, 590.690 849.293, 588.388 855.838 C 586.718 860.587, 581.669 862.506, 571 862.448 C 560.991 862.393, 554.851 860.903, 545.651 856.294 C 542.983 854.959, 540.648 854.019, 540.460 854.206 C 540.273 854.394, 538.713 857.681, 536.995 861.512 L 533.870 868.476 535.976 870.182 C 537.134 871.120, 540.651 872.854, 543.791 874.036 C 560.937 880.491, 581.859 880.652, 594.147 874.425 C 609.660 866.564, 613.724 848.486, 602.629 836.692 C 598.503 832.305, 590.383 829.181, 575.895 826.405 C 568.557 825, 561.286 823.100, 559.736 822.185 C 554.673 819.194, 554.929 812.619, 560.262 808.648 C 562.456 807.015, 564.925 806.508, 572.262 806.188 C 581.222 805.796, 587.415 807.096, 597.194 811.422 C 598.562 812.027, 599.587 810.785, 602.508 804.983 C 604.499 801.030, 605.987 797.671, 605.814 797.520 C 605.641 797.369, 603.673 796.325, 601.440 795.200 C 592.570 790.729, 579.459 788.856, 566.390 790.192 M 461 791.608 C 454.523 793.347, 445.273 797.443, 442.829 799.654 C 441.207 801.123, 441.289 801.549, 444.215 806.858 C 445.925 809.961, 447.690 812.916, 448.136 813.423 C 448.615 813.969, 450.934 813.265, 453.798 811.706 C 463.556 806.395, 477.196 804.553, 485.316 807.449 C 491.940 809.811, 495.169 813.921, 496.447 821.614 L 497.130 825.727 479.315 826.236 C 464.429 826.662, 460.596 827.092, 456 828.853 C 441.769 834.304, 435.361 846.409, 439.382 860.242 C 444.983 879.508, 478.690 885.727, 495.750 870.641 L 498 868.651 498 873.326 L 498 878 507.564 878 L 517.129 878 516.767 846.750 C 516.364 811.832, 516.044 809.916, 509.300 802.037 C 501.719 793.181, 493.064 789.966, 477.068 790.066 C 471.117 790.103, 464.097 790.777, 461 791.608 M 690.734 791.041 C 681.793 793.259, 672.878 799.859, 669.865 806.491 C 667.340 812.048, 667.425 821.180, 670.050 826.604 C 673.951 834.662, 682.146 838.935, 699.737 842.084 C 712.952 844.450, 715.629 845.317, 718.750 848.241 C 721.251 850.584, 721.548 852.704, 719.885 856.353 C 716.153 864.543, 692.931 864.573, 676.819 856.408 L 672.052 853.993 668.662 861.246 L 665.271 868.500 667.386 870.220 C 670.214 872.521, 682.086 876.694, 689.434 877.970 C 692.697 878.536, 698.577 879, 702.500 879 C 726.412 879, 740 869.106, 740 851.694 C 740 837.168, 731.155 830.124, 707.932 826.155 C 694.141 823.799, 689.414 822.002, 687.823 818.512 C 685.971 814.447, 687.761 810.874, 692.963 808.250 C 700.578 804.409, 715.727 805.455, 726.237 810.548 C 728.293 811.544, 730.132 812.165, 730.325 811.929 C 732.125 809.720, 736.863 797.463, 736.181 796.781 C 735.700 796.300, 731.975 794.710, 727.903 793.248 C 721.543 790.965, 718.668 790.557, 707.500 790.349 C 700.350 790.216, 692.806 790.527, 690.734 791.041 M 398 834.500 L 398 878 408 878 L 418 878 418 834.500 L 418 791 408 791 L 398 791 398 834.500 M 627.239 834.250 L 627.500 877.500 637.250 877.786 L 647 878.072 647 834.536 L 647 791 636.989 791 L 626.979 791 627.239 834.250 M 466.333 841.097 C 459.329 843.125, 455.686 852.252, 459.633 857.886 C 463.469 863.363, 473.962 865.397, 483.568 862.526 C 492.207 859.944, 497 853.523, 497 844.532 L 497 840 483.250 840.090 C 475.688 840.140, 468.075 840.593, 466.333 841.097 M 965.564 948.472 C 963.018 955.137, 956 962.394, 949.489 965.093 C 946.470 966.344, 944 967.674, 944 968.048 C 944 968.422, 946.012 969.497, 948.472 970.436 C 955.137 972.982, 962.394 980, 965.093 986.511 C 966.344 989.530, 967.674 992, 968.048 992 C 968.422 992, 969.497 989.988, 970.436 987.528 C 972.982 980.863, 980 973.606, 986.511 970.907 C 989.530 969.656, 992 968.326, 992 967.952 C 992 967.578, 989.988 966.503, 987.528 965.564 C 980.863 963.018, 973.606 956, 970.907 949.489 C 969.656 946.470, 968.326 944, 967.952 944 C 967.578 944, 966.503 946.012, 965.564 948.472" stroke="none" fill="black" fill-rule="evenodd"/>
</svg>