<?xml version="1.0" encoding="UTF-8"?>
<svg width="1200pt" height="1200pt" version="1.1" viewBox="0 0 1200 1200" xmlns="http://www.w3.org/2000/svg">
 <path d="m600 147c-83.09 0-153.23 53.902-178.12 128.62-216.01 7.668-376.11 28.816-395.25 54.375 315.74 23.906 830.94 22.758 1146.8 0-19.141-25.559-178.87-46.707-394.88-54.375-24.895-74.723-95.41-128.62-178.5-128.62zm0 28.875c21.496 0 39 17.504 39 39s-17.504 39-39 39-38.625-17.504-38.625-39 17.129-39 38.625-39zm-575.25 159.75c1.3281 24.605 133 45.738 323.25 55.875 46.387 41.012 141.68 69 252 69s205.61-27.988 252-69c190.25-10.137 321.92-31.27 323.25-55.875-316.66 22.914-833.97 24.098-1150.5 0zm569.25 142.12v24h12v-24zm0 36v24h12v-24zm0 36v24h12v-24zm0 35.625v24.375h12v-24.375zm0 36.375v23.625h12v-23.625zm0 36v24h12v-24zm0 36v24h12v-24zm0 36v24h12v-24zm0 35.625v24.375h12v-24.375zm0 36.375v23.625h12v-23.625zm-99.75 5.625c-10.629 1.0703-20.152 8.6016-23.25 19.5-4.0469 14.234 4.1406 28.953 18.375 33s28.953-4.1406 33-18.375-4.1406-28.953-18.375-33c-1.7812-0.50781-3.4727-0.99219-5.25-1.125-1.5547-0.11719-2.9805-0.15234-4.5 0zm42 15.75c-2.7031 0.40234-4.957 2.0977-6 4.875l-12 32.25c-0.19531 0.68359-0.38281 1.1992-0.375 1.875-0.042969 0.10938 0.035156 0.26172 0 0.375 0.007812 0.12891-0.015625 0.24609 0 0.375-0.30469 1.2188-0.25391 2.5391 0.375 3.75 14.801 29.004 29.195 57.086 44.25 85.875 1.3672 2.6367 4.4883 3.6172 7.125 2.25l6.375-3.375c2.6367-1.3672 3.6172-4.4883 2.25-7.125-12.371-23.465-23.828-46.426-36-69.75l27.75 7.875c0.10938 0.13672 0.25781 0.24609 0.375 0.375 0.070312 0.082031 0.29688 0.29688 0.375 0.375l31.875 33c2.0664 2.1328 5.3672 2.0664 7.5 0l5.25-4.875c2.1328-2.0664 2.0664-5.3672 0-7.5l-11.25-11.625 25.5 7.125 26.25 27.75 22.5 62.625c1.0117 2.793 4.332 4.3867 7.125 3.375l16.875-6c2.793-1.0117 4.0117-4.332 3-7.125l-23.625-64.875c-9.1328-14.312-23.203-26.914-33.375-37.875l31.125 13.5c15.941 16.422 32.988 32.617 49.5 48.75 2.1172 2.082 5.418 2.1172 7.5 0l12.75-12.75c2.082-2.1172 2.1172-5.418 0-7.5-19.852-19.527-28.945-31.742-56.625-54l-42.375-18.375c-0.57031-0.25-1.2891-0.32812-1.875-0.375-0.72656-0.56641-1.6562-0.92188-2.625-1.125l-106.5-22.125c-0.96875-0.20312-2.0977-0.13281-3 0z"/>
</svg>
