<?xml version="1.0" encoding="UTF-8" standalone="no"?>
<!-- Created with Inkscape (http://www.inkscape.org/) -->

<svg
   version="1.1"
   id="svg1"
   width="1024"
   height="1024"
   viewBox="0 0 1024 1024"
   xmlns="http://www.w3.org/2000/svg"
   xmlns:svg="http://www.w3.org/2000/svg">
  <defs
     id="defs1" />
  <g
     id="g1">
    <path
       style="fill:#b1e948"
       d="m 612.46384,283.0316 c 0,-2.49166 20.6792,-12.70064 38.31195,-18.91398 36.3894,-12.82271 66.97053,-14.21544 100.43805,-4.57416 6.68876,1.92689 7.00264,3.86718 0.5,3.09081 -2.6125,-0.31192 -12.175,-0.86551 -21.25,-1.23021 -29.10832,-1.16978 -55.99902,3.39309 -97.5,16.54401 -18.53237,5.87258 -20.5,6.3605 -20.5,5.08353 z"
       id="path109" />
    <path
       style="fill:#b1e948"
       d="m 487.76565,412.25 c 1.73511,-22.47761 20.14298,-46.29681 42.00024,-54.34699 l 4.80206,-1.76863 1.12317,2.46511 c 1.63193,3.5817 -1.48364,15.79459 -6.55013,25.67614 -6.51314,12.70308 -20.49291,26.54341 -33.43533,33.10183 -8.28156,4.19658 -8.6418,3.96395 -7.94001,-5.12746 z"
       id="path108" />
    <path
       style="fill:#b1e948"
       d="M 182.95702,652.38867 C 176.42337,637.61493 172.80608,617.48433 173.90261,602 c 2.38367,-33.66016 16.23065,-67.82996 40.92925,-101 6.99961,-9.40042 35.51147,-39 37.56684,-39 1.97858,0 1.08576,1.58566 -5.94364,10.55599 -14.28524,18.22962 -26.85961,35.14273 -31.18406,41.94401 -14.71262,23.1393 -24.45701,46.71786 -29.96231,72.5 -1.90898,8.93999 -2.24178,13.54574 -2.24004,31 0.002,19.7931 0.38637,23.45556 3.90962,37.25 1.25969,4.932 -1.41696,3.02742 -4.02125,-2.86133 z"
       id="path107" />
    <path
       style="fill:#b1e948"
       d="m 268.38101,685.02548 c -21.98291,-1.74056 -38.90634,-5.49098 -50.36744,-11.16198 -10.21486,-5.05436 -15.10384,-11.30304 -16.22053,-20.73169 -0.74664,-6.30427 2.60389,-18.43508 7.71567,-27.93508 15.66292,-29.10876 62.54892,-68.25024 121.45513,-101.39348 15.21076,-8.55824 50.90363,-26.55352 65.5,-33.02314 3.025,-1.34078 10,-4.51681 15.5,-7.05783 11.57317,-5.34685 40.69523,-17.29357 54.5,-22.3575 36.08197,-13.23575 67.89685,-24.14271 88.54549,-30.35567 37.53839,-11.29493 72.54634,-20.29824 91.45451,-23.52018 5.225,-0.89033 14.675,-2.69687 21,-4.01451 6.325,-1.31765 12.625,-2.58996 14,-2.82737 1.375,-0.2374 -1.39167,-0.39832 -6.14815,-0.3576 -6.82131,0.0584 -9.24511,-0.3171 -11.47417,-1.77764 -3.87905,-2.54165 -11.33768,-2.29133 -30.40115,1.02031 -22.88425,3.97537 -73.24429,16.96428 -101.31496,26.13125 -4.83463,1.57883 -8.19496,2.20324 -8.76881,1.62939 -0.57386,-0.57386 1.21843,-4.14076 4.67697,-9.30787 12.91987,-19.30245 19.25719,-36.30947 20.11639,-53.98489 0.6494,-13.35931 -1.20281,-22.56811 -6.83859,-34 -4.59124,-9.31312 -13.54206,-19.38326 -18.28737,-20.57426 -3.62555,-0.90995 -9.59224,3.37171 -15.56016,11.1659 -6.52006,8.5153 -24.29859,26.0583 -33,32.56283 C 467.17549,358.6027 459.88167,363 458.13302,363 c -0.47324,0 -2.07934,0.86793 -3.56911,1.92874 -1.48977,1.06081 -6.50923,2.88095 -11.15437,4.04475 -10.43978,2.61561 -17.9378,4.85942 -20.05825,6.0025 -0.88691,0.4781 -4.48691,1.41269 -8,2.07686 -10.65218,2.01384 -10.52089,3.32315 0.59066,5.8908 13.81119,3.19147 24.18467,8.67995 32.98711,17.45307 7.67706,7.65148 13.53478,17.81166 13.53478,23.47599 V 427 h -6.09609 c -13.55187,0 -29.44455,-7.39677 -39.49538,-18.38194 -5.4434,-5.94944 -12.49268,-17.37051 -14.57255,-23.61012 -0.32007,-0.9602 -1.67957,-1.10852 -5.25122,-0.57292 l -4.81934,0.7227 0.45098,5.17114 c 0.51921,5.95359 4.09293,15.27402 8.92899,23.28721 5.13894,8.51509 19.3621,23.95196 30.67276,33.29021 5.60002,4.62345 10.18185,8.94949 10.18185,9.61343 0,1.18595 -6.12863,4.24477 -17,8.48476 -32.76506,12.77886 -86.72011,39.05948 -110.10831,53.63195 -4.73457,2.94997 -8.90821,5.36358 -9.27475,5.36358 -2.79673,0 -5.83946,-25.57488 -5.82968,-49 0.008,-19.14457 1.51605,-33.81968 5.21891,-50.78556 3.7598,-17.22679 13.7357,-44.11004 15.87729,-42.78646 0.5168,0.3194 2.38749,-1.78374 4.15708,-4.67363 3.04744,-4.97672 10.83602,-13.21112 11.68904,-12.35811 0.21808,0.21808 -2.1475,5.95564 -5.25683,12.75014 -7.22089,15.77904 -9.69209,23.28208 -12.96152,39.35362 -2.88973,14.20506 -4.63768,36.05801 -2.20037,27.50909 0.90764,-3.18354 2.25468,-5.14749 4.6272,-6.74633 3.07288,-2.07081 3.44602,-2.11976 4.55872,-0.59805 0.97896,1.3388 1.3219,-1.01652 1.78414,-12.25367 2.79784,-68.01462 62.06442,-133.79318 136.71908,-151.7412 19.81215,-4.76312 19.44233,-4.58456 8.5,-4.10412 -7.75803,0.34062 -9.39605,0.19984 -7.30618,-0.62794 1.6277,-0.64471 2.4882,-1.60285 2.17426,-2.42097 -0.38516,-1.00372 0.98747,-1.51945 5.30617,-1.99365 3.20416,-0.35183 6.72575,-0.997 7.82575,-1.43371 1.1,-0.43672 10.55,-0.70556 21,-0.59742 14.84011,0.15355 21.51783,0.68038 30.5,2.40623 30.24184,5.81072 56.99905,18.91817 82.68667,40.50539 23.50156,19.75011 42.00434,46.98471 53.81229,79.20735 l 3.70516,10.11099 18.20137,0.49881 c 14.4233,0.39527 18.95823,0.85796 21.84767,2.22909 2.00546,0.95166 4.00642,1.52159 4.44657,1.26653 0.44015,-0.25506 7.90233,-0.0869 16.58262,0.37368 43.76339,2.32215 65.65754,10.20732 73.33034,26.4099 4.42615,9.34667 3.0324,17.71868 -5.22242,31.37007 -7.01044,11.59352 -14.20341,20.09754 -31.82858,37.62993 -24.95491,24.82356 -52.81099,47.03319 -89.06169,71.00882 -41.73264,27.6013 -79.14065,49.12588 -109.5,63.00633 -65.72844,30.05137 -117.81809,44.28976 -194,53.02874 -37.30756,4.27962 -86.24223,6.29007 -109.08283,4.48159 z"
       id="path106" />
    <path
       style="fill:#b1e948"
       d="m 369.46384,662.62244 c 0,-0.75765 0.675,-1.93775 1.5,-2.62244 0.825,-0.68469 1.50277,-2.65229 1.50616,-4.37244 0.0371,-18.82578 51.5442,-53.6795 125.49384,-84.91892 64.80034,-27.37436 120.7699,-42.84119 156,-43.1096 14.0904,-0.10735 18.49127,0.83984 23.50551,5.05905 1.73287,1.45811 3.89337,2.353 5.2246,2.16407 1.86992,-0.26539 2.24347,-0.89886 2.11996,-3.59496 -0.22224,-4.85141 -2.60649,-7.71511 -9.06307,-10.88555 l -5.787,-2.84165 -20.5,0.0818 c -28.02362,0.1118 -44.88414,2.59518 -75.5,11.12035 -19.24959,5.36016 -46.27893,14.83086 -66.5,23.30065 -4.125,1.7278 -11.325,4.69397 -16,6.5915 -4.675,1.89752 -15.01875,6.70257 -22.98612,10.67788 -69.83372,34.84344 -115.64873,71.22778 -110.24535,87.55216 1.53255,4.63004 11.23147,9.637 11.23147,5.79811 z"
       id="path105" />
    <path
       style="fill:#b1e948"
       d="m 224.21384,663.87774 c 1.85928,-0.68441 2.25,-1.57998 2.25,-5.15721 0,-7.99931 9.9119,-19.64723 26.22932,-30.82324 9.24739,-6.33366 29.15183,-16.33768 34.27068,-17.22453 1.65,-0.28587 5.475,-1.43949 8.5,-2.56361 10.48907,-3.89785 19,-2.23688 19,3.70798 0,3.00345 -4.32517,10.70994 -6.47349,11.53432 -0.83958,0.32218 -1.52651,1.07748 -1.52651,1.67844 0,1.76216 9.63042,0.0428 24.5,-4.37395 2.75,-0.81685 8.375,-1.99857 12.5,-2.62605 17.77737,-2.70421 32.44074,-7.2128 41,-12.6064 1.925,-1.21303 7.4375,-3.6643 12.25,-5.44725 4.8125,-1.78296 8.75,-3.62045 8.75,-4.08331 0,-0.46286 1.4625,-1.59053 3.25,-2.50592 1.7875,-0.91539 4.64344,-2.87756 6.34653,-4.36038 1.70309,-1.48281 5.51892,-3.48835 8.47964,-4.45675 2.96071,-0.9684 6.51727,-2.55689 7.90347,-3.52997 5.13795,-3.60674 23.69932,-11.9934 29.02036,-13.11239 3.025,-0.63614 9.1,-2.8393 13.5,-4.89592 4.4,-2.05661 9.125,-4.07089 10.5,-4.47618 1.375,-0.40528 8.8,-3.79769 16.5,-7.53868 C 516.11489,543.6557 532.21464,537 534.86949,537 c 0.91172,0 6.25593,-1.38164 11.87601,-3.07032 15.12596,-4.54492 25.31189,-7.56558 33.71834,-9.99927 17.60627,-5.09706 23.5048,-7.03115 25.56976,-8.38416 1.20579,-0.79007 5.78581,-2.33085 10.17781,-3.42395 14.7527,-3.67174 39.25243,-18.11721 39.25243,-23.14392 0,-0.31713 -1.5747,-1.14602 -3.49933,-1.84198 -4.02192,-1.45434 -5.91105,-4.26805 -4.93349,-7.34806 1.08696,-3.42472 9.06294,-11.3178 13.42379,-13.28427 2.20497,-0.9943 4.00903,-2.21182 4.00903,-2.7056 0,-1.67075 -2.94966,-6.61472 -4.22896,-7.08823 -5.72375,-2.11852 19.26764,-10.16364 53.22896,-17.13523 28.86139,-5.92467 63.9119,-7.17261 76.71845,-2.73148 3.42015,1.18606 6.41363,2.15647 6.65218,2.15647 0.23855,0 0.9102,-1.36684 1.49257,-3.03742 1.46106,-4.19121 -0.0917,-7.74633 -4.10684,-9.40259 -17.08736,-7.04868 -45.67807,-5.8306 -94.75636,4.03699 -41.03236,8.2499 -84.58511,20.55347 -146,41.24474 -32.46162,10.93664 -89.19355,31.94769 -106.5,39.44299 -4.4,1.90561 -13.85,5.95297 -21,8.99414 C 338.16417,557.62337 255.3543,604.57006 225.36967,634 c -11.56033,11.34647 -14.31164,16.09293 -13.68794,23.6139 0.57115,6.88737 1.87313,8.40103 6.59404,7.66617 2.02844,-0.31575 4.70057,-0.9468 5.93807,-1.40233 z"
       id="path104" />
    <path
       style="fill:#b1e948"
       d="m 559.46384,511.34282 c -8.09147,-3.25708 -5.64465,-12.64824 4.6052,-17.67523 9.20347,-4.51381 16.86633,-4.39208 19.38168,0.30789 3.16069,5.9058 -7.76005,16.39701 -18.23368,17.51652 -2.33926,0.25004 -4.9282,0.18291 -5.7532,-0.14918 z"
       id="path103" />
    <path
       style="fill:#b1e948"
       d="m 459.71384,544.51114 c -7.41448,-5.35342 4.36116,-19.23385 17.2221,-20.30038 4.80727,-0.39866 5.66859,-0.16098 8.0513,2.22173 2.08173,2.08173 2.52729,3.26151 2.02725,5.36783 -0.91255,3.84394 -3.60269,7.24953 -8.41546,10.6536 -5.18656,3.66844 -15.15039,4.75384 -18.88519,2.05722 z"
       id="path102" />
    <path
       style="fill:#b1e948"
       d="m 363.91839,585.54545 c -3.20801,-3.208 -3.096,-5.27921 0.55389,-10.24229 3.59627,-4.89016 10.4704,-8.44111 17.5594,-9.07059 4.30542,-0.38232 5.49412,-0.0833 7.90142,1.98733 3.55593,3.05868 3.01815,6.12795 -2.05821,11.74688 -7.1296,7.89161 -18.90214,10.63304 -23.9565,5.57867 z"
       id="path101" />
    <path
       style="fill:#b1e948"
       d="m 267.61912,803.43149 c -79.49766,-8.66772 -139.09585,-45.85201 -156.78601,-97.82139 -10.19789,-29.95894 -7.51779,-68.85749 7.31056,-106.10416 20.83545,-52.33562 73.00522,-112.47032 134.60046,-155.15034 15.79381,-10.9437 19.86283,-13.54582 20.37739,-13.03126 0.22111,0.22111 -13.45558,14.30109 -30.39263,31.28884 -18.62641,18.68217 -34.07871,35.12868 -39.10576,41.62187 -25.06057,32.3695 -39.73528,61.10153 -45.84692,89.76495 -1.37821,6.4638 -1.81237,12.93172 -1.81237,27 0,22.62411 1.2101,28.39998 9.57405,45.69749 5.23757,10.83184 6.92091,13.26757 15.03492,21.75497 10.38915,10.86723 18.25375,16.46108 33.05873,23.51364 11.60026,5.52595 23.73831,9.30527 37.82041,11.77583 13.69744,2.40307 51.28695,2.35312 67.01189,-0.089 34.25718,-5.32032 62.36459,-13.78624 114.75,-34.56256 8.25098,-3.27238 6.51764,-0.31795 -3.00326,5.119 -18.58599,10.61358 -51.32232,24.75179 -74.65853,32.24361 -24.48274,7.8599 -42.7963,11.17474 -67.4279,12.20479 -8.71183,0.36431 -15.23683,0.99428 -14.5,1.39994 2.30764,1.27046 20.8555,4.77659 32.33969,6.11323 14.25047,1.6586 50.0666,1.63521 63.5,-0.0415 28.27478,-3.5291 47.67451,-7.21447 72,-13.67783 108.50755,-28.83083 207.41309,-81.49425 288.51202,-153.62163 52.85466,-47.00762 96.42258,-114.99518 109.43483,-170.77259 6.56786,-28.15331 6.57572,-56.62624 0.0221,-80.05737 -2.7612,-9.87215 -9.61482,-24.23044 -15.60683,-32.69623 -9.74224,-13.76433 -27.27521,-28.64719 -43.36212,-36.80798 -14.28763,-7.24802 -37.58959,-12.87788 -58.62988,-14.16524 -16.51323,-1.01037 -46.80357,2.61848 -68.13532,8.16276 -10.73261,2.78949 -12.67088,3.02127 -11.6658,1.39503 1.13756,-1.84061 10.89061,-5.76262 30.931,-12.43833 42.8337,-14.26845 71.53143,-19.13571 107.30048,-18.19863 34.64323,0.90758 59.26033,8.17503 79.98333,23.61264 29.3506,21.86475 44.70238,58.69067 44.45377,106.63596 -0.20939,40.38188 -11.49218,83.23181 -33.177,126 -24.90075,49.11084 -52.89293,86.72405 -95.35851,128.13366 -47.03043,45.86093 -103.19564,85.38119 -168.20207,118.3542 -84.124,42.66997 -173.73878,69.53374 -258.43738,77.47164 -20.22477,1.89545 -64.40448,1.88034 -81.90734,-0.028 z"
       id="path7" />
    <path
       style="fill:#6cda88"
       d="m 757.21384,223.2766 c 1.7875,-0.22182 4.7125,-0.22182 6.5,0 1.7875,0.22183 0.325,0.40333 -3.25,0.40333 -3.575,0 -5.0375,-0.1815 -3.25,-0.40333 z"
       id="path100" />
    <path
       style="fill:#6cda88"
       d="m 612.46384,283.0316 c 0,-2.49166 20.6792,-12.70064 38.31195,-18.91398 36.3894,-12.82271 66.97053,-14.21544 100.43805,-4.57416 6.68876,1.92689 7.00264,3.86718 0.5,3.09081 -2.6125,-0.31192 -12.175,-0.86551 -21.25,-1.23021 -29.10832,-1.16978 -55.99902,3.39309 -97.5,16.54401 -18.53237,5.87258 -20.5,6.3605 -20.5,5.08353 z"
       id="path98" />
    <path
       style="fill:#6cda88"
       d="m 765.27634,401.31689 c 0.72187,-0.28887 1.58438,-0.25335 1.91667,0.0789 0.33229,0.33229 -0.25834,0.56864 -1.3125,0.52522 -1.16495,-0.048 -1.4019,-0.28494 -0.60417,-0.60416 z"
       id="path97" />
    <path
       style="fill:#6cda88"
       d="m 488.53074,405.89922 c -0.0769,-1.84075 1.99365,-8.172 2.50526,-7.66039 0.18751,0.18751 -0.28442,2.34798 -1.04872,4.80104 -0.76431,2.45307 -1.41975,3.73978 -1.45654,2.85935 z"
       id="path96" />
    <path
       style="fill:#6cda88"
       d="m 487.62173,411 c 0,-1.375 0.22698,-1.9375 0.50439,-1.25 0.27741,0.6875 0.27741,1.8125 0,2.5 -0.27741,0.6875 -0.50439,0.125 -0.50439,-1.25 z"
       id="path95" />
    <path
       style="fill:#6cda88"
       d="m 487.46384,419.03138 c 0,-0.53273 0.6593,-0.71561 1.46511,-0.4064 1.77009,0.67925 11.72018,-5.15239 20.30503,-11.90056 5.66181,-4.4505 11.89023,-11.58963 16.50866,-18.92256 4.13569,-6.56646 9.7707,-26.29471 8.22497,-28.79576 -0.76491,-1.23765 -14.42753,5.997 -21.39482,11.32902 -6.26984,4.79827 -13.67402,13.62451 -18.10069,21.57715 -1.71067,3.07325 -2.8151,4.46273 -2.4543,3.08773 1.25174,-4.77035 9.35888,-16.61236 15.13726,-22.11083 6.84364,-6.51213 15.89982,-12.51445 22.61083,-14.98616 l 4.80206,-1.76863 1.12317,2.46511 c 1.63193,3.5817 -1.48364,15.79459 -6.55013,25.67614 -6.51314,12.70308 -20.49291,26.54341 -33.43533,33.10183 -5.39257,2.73262 -8.24182,3.3044 -8.24182,1.65392 z"
       id="path94" />
    <path
       style="fill:#6cda88"
       d="m 399.02271,489.5318 c 1.06762,-0.8075 2.61613,-1.46656 3.44113,-1.46456 0.86994,0.002 0.4499,0.60392 -1,1.43276 -3.28659,1.87878 -4.91104,1.89995 -2.44113,0.0318 z"
       id="path93" />
    <path
       id="path92"
       style="fill:#6cda88"
       d="m 581.70703,492.25977 c -0.002,6.6e-4 -0.006,0.003 -0.008,0.004 -9.3e-4,6.6e-4 -0.005,0.003 -0.006,0.004 l -0.002,0.002 c -0.02,0.0285 -0.007,0.10586 0.0449,0.23047 0.23098,0.55 0.69847,1.7875 1.04101,2.75 0.34255,0.9625 0.86203,1.75 1.1543,1.75 1.00407,0 0.53108,-1.62001 -1.04102,-3.55859 -0.62227,-0.76736 -1.06725,-1.2021 -1.18164,-1.18164 z" />
    <path
       style="fill:#6cda88"
       d="m 380.46384,498.4507 c 0,-0.64002 12.50644,-6.47644 13.72804,-6.4065 0.91801,0.0525 -5.87065,3.69573 -10.47804,5.6231 -1.7875,0.74775 -3.25,1.10028 -3.25,0.7834 z"
       id="path91" />
    <path
       style="fill:#6cda88"
       d="m 557.68385,498.01931 c 0.68033,-1.08938 1.91106,-2.23936 2.73495,-2.55552 0.82389,-0.31616 0.41763,0.57515 -0.9028,1.98069 -2.87845,3.06397 -3.51048,3.26227 -1.83215,0.57483 z"
       id="path90" />
    <path
       style="fill:#6cda88"
       d="m 356.46384,510.52232 c 0,-0.275 3.6,-2.31004 8,-4.52232 4.4,-2.21228 8,-3.79732 8,-3.52232 0,0.275 -3.6,2.31004 -8,4.52232 -4.4,2.21228 -8,3.79732 -8,3.52232 z"
       id="path89" />
    <path
       style="fill:#6cda88"
       d="m 559.46384,511.34282 c -3.0584,-1.2311 -5,-3.73141 -5,-6.43879 0,-1.5323 0.35595,-3.00599 0.79101,-3.27487 0.43506,-0.26888 0.61224,1.04243 0.39374,2.91401 -0.33426,2.86325 0.004,3.58556 2.13098,4.55483 6.3598,2.89771 19.21345,-1.8022 23.75027,-8.68425 1.15069,-1.74551 1.92346,-2.29347 1.92741,-1.3667 0.008,1.95813 -6.47542,8.22026 -10.72618,10.35953 -3.57809,1.80075 -10.93612,2.87459 -13.26723,1.93624 z"
       id="path88" />
    <path
       style="fill:#6cda88"
       d="m 342.46384,517.50598 c 0,-0.67311 10.12224,-5.71707 10.57149,-5.26782 0.20494,0.20494 -2.08981,1.5803 -5.09944,3.05636 -3.00963,1.47606 -5.47205,2.47122 -5.47205,2.21146 z"
       id="path87" />
    <path
       style="fill:#6cda88"
       d="m 486.54279,530.41664 c 0.048,-1.16495 0.28494,-1.4019 0.60416,-0.60417 0.28887,0.72187 0.25335,1.58438 -0.0789,1.91667 -0.33229,0.33229 -0.56864,-0.25834 -0.52522,-1.3125 z"
       id="path86" />
    <path
       style="fill:#6cda88"
       d="m 371.46384,544.5073 c 0,-0.67743 8.12258,-4.71808 8.57497,-4.2657 0.20963,0.20964 -1.63398,1.36018 -4.09691,2.55677 -2.46293,1.19658 -4.47806,1.9656 -4.47806,1.70893 z"
       id="path85" />
    <path
       style="fill:#6cda88"
       d="m 459.68635,544.4433 c -1.22238,-0.85619 -2.22251,-1.98119 -2.22251,-2.5 0,-0.51882 0.9,-0.0433 2,1.0567 2.98521,2.98521 8.70547,2.57547 16.58409,-1.18793 4.35463,-2.08009 7.32278,-4.25204 8.54116,-6.25 1.027,-1.68414 1.86896,-2.51523 1.87101,-1.84687 0.007,2.18639 -5.99153,8.1041 -10.35593,10.21687 -5.1453,2.49079 -13.23208,2.7426 -16.41782,0.51123 z"
       id="path84" />
    <path
       style="fill:#6cda88"
       d="m 367.46384,546 c 0.825,-0.53316 1.95,-0.96937 2.5,-0.96937 0.55,0 0.325,0.43621 -0.5,0.96937 -0.825,0.53316 -1.95,0.96937 -2.5,0.96937 -0.55,0 -0.325,-0.43621 0.5,-0.96937 z"
       id="path83" />
    <path
       style="fill:#6cda88"
       d="m 348.54717,555.63545 c 0.22917,-0.2005 1.54167,-0.90032 2.91667,-1.55516 2.35727,-1.12265 2.38918,-1.10183 0.55887,0.36454 -1.593,1.27626 -4.84786,2.39128 -3.47554,1.19062 z"
       id="path82" />
    <path
       style="fill:#6cda88"
       d="m 391.62173,572 c 0,-1.375 0.22698,-1.9375 0.50439,-1.25 0.27741,0.6875 0.27741,1.8125 0,2.5 -0.27741,0.6875 -0.50439,0.125 -0.50439,-1.25 z"
       id="path81" />
    <path
       style="fill:#6cda88"
       d="m 365.46384,573.62244 c 0,-0.20765 0.7875,-0.99515 1.75,-1.75 1.58606,-1.24387 1.62143,-1.2085 0.37756,0.37756 -1.30637,1.66575 -2.12756,2.19548 -2.12756,1.37244 z"
       id="path80" />
    <path
       id="path79"
       style="fill:#6cda88"
       d="m 345.46289,557.33984 c 0,-0.61322 -26.22808,13.02751 -37.25,19.37305 -4.2625,2.454 -7.75,4.67293 -7.75,4.93164 0,10e-4 0.002,0.003 0.002,0.004 1.7e-4,9.1e-4 -2.5e-4,0.005 0,0.006 l 0.002,0.002 v 0.002 l 0.002,0.002 0.002,0.002 0.002,0.002 0.002,0.002 c 0.20794,0.1258 2.93506,-1.23614 6.23828,-3.12696 3.4375,-1.96768 13.5625,-7.42685 22.5,-12.13086 8.9375,-4.70401 16.25,-8.7851 16.25,-9.06836 z" />
    <path
       style="fill:#6cda88"
       d="m 293.46384,585.57037 c 0,-0.275 0.9,-0.98167 2,-1.57037 1.1,-0.5887 2,-0.84537 2,-0.57037 0,0.275 -0.9,0.98167 -2,1.57037 -1.1,0.5887 -2,0.84537 -2,0.57037 z"
       id="path78" />
    <path
       style="fill:#6cda88"
       d="m 371.46384,587.02257 c 7.03046,-0.91421 12.95669,-3.96099 17.00688,-8.74355 1.76018,-2.07846 2.72091,-2.82823 2.13494,-1.66616 -1.49217,2.95923 -7.86735,8.37451 -11.78697,10.01224 -1.80984,0.75619 -5.44257,1.3159 -8.07273,1.24378 l -4.78212,-0.13111 z"
       id="path77" />
    <path
       style="fill:#6cda88"
       d="m 286.46384,589.55136 c 0,-0.275 1.35,-1.19811 3,-2.05136 1.65,-0.85325 3,-1.32636 3,-1.05136 0,0.275 -1.35,1.19811 -3,2.05136 -1.65,0.85325 -3,1.32636 -3,1.05136 z"
       id="path76" />
    <path
       style="fill:#6cda88"
       d="m 278.46384,594.57037 c 0,-0.275 0.9,-0.98167 2,-1.57037 1.1,-0.5887 2,-0.84537 2,-0.57037 0,0.275 -0.9,0.98167 -2,1.57037 -1.1,0.5887 -2,0.84537 -2,0.57037 z"
       id="path75" />
    <path
       style="fill:#6cda88"
       d="m 271.96384,598.48189 c 1.1,-0.89564 2.9,-2.07029 4,-2.61033 l 2,-0.98189 -2,1.62844 c -1.1,0.89564 -2.9,2.07029 -4,2.61033 l -2,0.98189 z"
       id="path74" />
    <path
       style="fill:#6cda88"
       d="m 223.46384,604.62244 c 0,-0.20765 0.7875,-0.99515 1.75,-1.75 1.58606,-1.24387 1.62143,-1.2085 0.37756,0.37756 -1.30637,1.66575 -2.12756,2.19548 -2.12756,1.37244 z"
       id="path73" />
    <path
       style="fill:#6cda88"
       d="m 213.46384,618 c 0.5887,-1.1 1.29537,-2 1.57037,-2 0.275,0 0.0183,0.9 -0.57037,2 -0.5887,1.1 -1.29537,2 -1.57037,2 -0.275,0 -0.0183,-0.9 0.57037,-2 z"
       id="path72" />
    <path
       style="fill:#6cda88"
       d="m 237.82293,622.22799 c 0.79122,-1.28022 6.64091,-5.60943 6.64091,-4.91477 0,0.24717 -1.65202,1.70946 -3.67115,3.24952 -2.01913,1.54007 -3.35552,2.28943 -2.96976,1.66525 z"
       id="path71" />
    <path
       style="fill:#6cda88"
       d="M 182.95702,652.38867 C 176.42337,637.61493 172.80608,617.48433 173.90261,602 c 2.38367,-33.66016 16.23065,-67.82996 40.92925,-101 6.99961,-9.40042 35.51147,-39 37.56684,-39 1.97858,0 1.08576,1.58566 -5.94364,10.55599 -14.28524,18.22962 -26.85961,35.14273 -31.18406,41.94401 -14.71262,23.1393 -24.45701,46.71786 -29.96231,72.5 -1.90898,8.93999 -2.24178,13.54574 -2.24004,31 0.002,19.7931 0.38637,23.45556 3.90962,37.25 1.25969,4.932 -1.41696,3.02742 -4.02125,-2.86133 z"
       id="path70" />
    <path
       id="path69"
       style="fill:#6cda88"
       d="m 501.96289,261.49219 c -10.45,-0.10814 -19.9,0.16093 -21,0.59765 -1.1,0.43671 -4.62006,1.08177 -7.82422,1.4336 -4.3187,0.4742 -5.6918,0.99042 -5.30664,1.99414 0.31394,0.81812 -0.54613,1.77521 -2.17383,2.41992 -2.08987,0.82778 -0.45334,0.96953 7.30469,0.62891 10.94233,-0.48044 11.31215,-0.65961 -8.5,4.10351 -56.41321,13.56252 -107.87035,57.19522 -127.46875,108.08594 -6.15558,15.98404 -8.62606,27.9092 -9.25391,44.66211 -0.41923,11.18634 -0.8365,14.56267 -1.66796,13.5 -2.88734,-3.69026 -8.58355,-0.68161 -8.62305,4.55469 -0.008,1.11512 -0.49343,2.70234 -1.07813,3.52734 -1.87684,2.64816 -0.24167,-16.51387 2.60352,-30.5 3.26943,-16.07154 5.742,-23.57448 12.96289,-39.35352 3.10933,-6.7945 5.47394,-12.53192 5.25586,-12.75 -0.85302,-0.85301 -8.64201,7.38071 -11.68945,12.35743 -1.76959,2.88989 -3.63945,4.99322 -4.15625,4.67382 -2.14159,-1.32358 -12.11716,25.56032 -15.87696,42.78711 -3.70286,16.96588 -5.21075,31.64059 -5.21875,50.78516 -0.01,23.42512 3.0314,49 5.82813,49 0.36654,0 4.54082,-2.41331 9.27539,-5.36328 23.3882,-14.57247 77.34236,-40.85395 110.10742,-53.63281 10.87137,-4.23999 17,-7.29843 17,-8.48438 0,-0.66394 -4.58162,-4.98983 -10.18164,-9.61328 -11.31066,-9.33825 -25.53296,-24.77593 -30.67187,-33.29102 -4.83606,-8.01319 -8.41048,-17.33347 -8.92969,-23.28711 l -0.45117,-5.16992 4.82031,-0.72265 c 3.57165,-0.5356 4.93188,-0.38794 5.25195,0.57226 0.23753,0.7126 2.14643,4.71551 4.24414,8.89453 5.54316,11.04297 14.84288,20.80383 24.62891,25.85157 9.24826,4.77036 17.46965,7.2803 23.44336,7.15625 1.57052,-0.0326 2.45196,-0.0785 2.51953,-0.19727 10e-4,-0.003 0.003,-0.0111 0.004,-0.0156 v -0.002 c -0.0376,-0.17901 -1.6937,-0.51471 -5.31445,-1.17187 -20.3693,-3.697 -34.21548,-13.1799 -41.64648,-28.52344 -5.59471,-11.55197 -5.59898,-11.53875 3.02343,-11.30078 18.62294,0.51398 37.898,13.92674 45.84766,31.90234 2.72139,6.15355 2.96743,8.00787 1.16211,8.73633 -0.74674,0.30132 -0.54544,0.53677 0.5,0.58399 2.79364,0.12602 2.17913,-5.29062 -1.45312,-12.79883 -7.16763,-14.81617 -23.55722,-26.61331 -43.31836,-31.17969 -11.11155,-2.56765 -11.24203,-3.87679 -0.58985,-5.89063 3.51309,-0.66417 7.11309,-1.59807 8,-2.07617 2.12045,-1.14308 9.61882,-3.38829 20.0586,-6.0039 4.64514,-1.1638 9.66452,-2.98216 11.15429,-4.04297 1.48977,-1.06081 3.09512,-1.92969 3.56836,-1.92969 1.74865,0 9.04173,-4.39747 16.33008,-9.8457 8.70141,-6.50453 26.47994,-24.0472 33,-32.5625 5.96792,-7.79419 11.935,-12.07597 15.56055,-11.16602 4.74531,1.191 13.69587,11.2611 18.28711,20.57422 5.63578,11.43189 7.48924,20.64069 6.83984,34 -0.8592,17.67542 -7.19732,34.68189 -20.11719,53.98438 -3.45854,5.1671 -5.24964,8.73473 -4.67578,9.30859 0.57385,0.57385 3.93295,-0.0501 8.76758,-1.62891 28.07067,-9.16697 78.4302,-22.15744 101.31445,-26.13281 19.06347,-3.31164 26.5233,-3.56118 30.40235,-1.01953 2.22906,1.46054 4.6533,1.83574 11.47461,1.77734 3.82748,-0.0328 6.36673,0.0654 6.49609,0.22852 v 0.002 l 0.002,0.002 0.002,0.002 v 0.002 0.002 0.002 0.002 0.002 0.002 0.002 l -0.002,0.002 c -5.2e-4,8.2e-4 -0.003,0.005 -0.004,0.006 -0.0286,0.0315 -0.14356,0.0663 -0.34766,0.10156 -1.375,0.23741 -7.675,1.51048 -14,2.82813 -6.325,1.31764 -15.775,3.12334 -21,4.01367 -18.90817,3.22194 -53.91473,12.22656 -91.45312,23.52149 -20.64498,6.21186 -52.38998,17.09262 -88.54688,30.35351 -21.75221,7.97783 -62.50031,25.39626 -59.86523,25.58984 0.34855,0.0256 5.07355,-1.80257 10.5,-4.0625 7.75678,-3.23043 25.4369,-9.70225 26.64062,-9.75195 0.63042,-0.026 4.48635,-1.44449 6.37695,-2.3457 1.18326,-0.56399 2.75076,-0.82592 3.48243,-0.58203 0.73167,0.24389 -16.20089,9.09548 -37.62696,19.66992 -21.42607,10.57445 -43.01856,21.51974 -47.98242,24.32422 -40.33166,22.78664 -63.47972,38.47779 -85.60351,58.02539 -8.45757,7.4727 -11.16358,11.12289 -5.48829,7.4043 5.33253,-3.49401 7.45227,-1.25962 2.81641,2.96875 -2.15687,1.96728 -1.02452,1.59843 5.25,-1.7129 4.4,-2.32207 10.925,-5.88471 14.5,-7.91796 6.69461,-3.8075 34.82258,-19.1 50.19336,-27.28907 20.61557,-10.98332 78.37739,-36.30338 91.79883,-40.24023 2.29836,-0.67417 2.37951,-0.59336 1.02148,1.04297 -1.37473,1.65644 -1.24142,1.72789 2.00782,1.0957 3.3122,-0.64446 3.38187,-0.59963 1.47851,0.91406 -1.1,0.8748 -3.0125,1.84551 -4.25,2.15625 -1.2375,0.31074 -2.25,0.93537 -2.25,1.38868 0,0.45331 -0.96055,1.12928 -2.13477,1.50195 -1.17418,0.37267 -5.78666,2.38551 -10.25,4.47265 -4.46331,2.08718 -13.96523,6.46631 -21.11523,9.73243 -13.5058,6.16945 -23.41988,11.12467 -22.41992,11.20507 0.31854,0.0256 7.29354,-3.02554 15.5,-6.78124 8.20647,-3.75572 20.54492,-9.21287 27.41992,-12.12696 6.875,-2.91409 16.1,-6.85701 20.5,-8.76172 17.33753,-7.50522 74.06319,-28.51312 106.5,-39.4414 61.41489,-20.69127 104.96764,-32.99424 146,-41.24414 49.07829,-9.86759 77.67045,-11.08579 94.75781,-4.03711 4.01514,1.65626 5.56653,5.21113 4.10547,9.40234 -0.58237,1.67058 -1.25364,3.03711 -1.49219,3.03711 -0.23855,0 -3.23219,-0.97019 -6.65234,-2.15625 -12.80655,-4.44113 -47.85736,-3.1942 -76.71875,2.73047 -33.96132,6.97159 -58.95227,15.0182 -53.22851,17.13672 1.2793,0.47351 4.22851,5.41714 4.22851,7.08789 0,0.49378 -1.76605,1.69407 -3.92578,2.66797 -2.15973,0.97391 -5.19723,3.18021 -6.75,4.90234 l -2.82422,3.13086 3,-2.63672 c 7.72169,-6.78438 18.85746,-8.59148 20.85547,-3.38476 1.70834,4.45186 -5.5111,12.88751 -13.70703,16.01757 -7.6119,2.90701 -14.58596,0.42216 -13.18164,-4.69726 0.28391,-1.03498 0.41241,-1.5647 0.33984,-1.625 h -0.002 l -0.002,-0.002 -0.002,-0.002 h -0.002 -0.002 c -0.0873,-0.0157 -0.36205,0.39133 -0.85938,1.18946 -1.72764,2.77244 0.2781,6.22654 4.50195,7.7539 1.95854,0.70822 3.56055,1.54811 3.56055,1.86524 0,5.02671 -24.49925,19.47279 -39.25195,23.14453 -4.392,1.0931 -8.97195,2.63371 -10.17774,3.42383 -2.06496,1.353 -7.96404,3.28575 -25.57031,8.38281 -8.40645,2.43369 -18.59084,5.45508 -33.7168,10 C 541.12601,535.61837 535.78086,537 534.86914,537 c -2.65485,0 -18.75516,6.65654 -33.90625,14.01758 -7.7,3.74099 -15.125,7.13183 -16.5,7.53711 -1.375,0.40529 -6.1,2.41995 -10.5,4.47656 -4.4,2.05662 -10.475,4.26034 -13.5,4.89648 -5.32104,1.11899 -23.88158,9.50459 -29.01953,13.11133 -1.3862,0.97308 -4.94359,2.56285 -7.9043,3.53125 -2.96072,0.9684 -6.77542,2.97422 -8.47851,4.45703 -1.70309,1.48282 -4.56016,3.44399 -6.34766,4.35938 -1.7875,0.91539 -3.25,2.043 -3.25,2.50586 0,0.46286 -3.9375,2.30102 -8.75,4.08398 -4.8125,1.78295 -10.325,4.23424 -12.25,5.44727 -8.55926,5.3936 -23.22263,9.90126 -41,12.60547 -4.125,0.62748 -9.75,1.8101 -12.5,2.62695 -14.59552,4.3354 -24.5,6.12947 -24.5,4.43945 0,-0.56435 0.7875,-1.45199 1.75,-1.97265 0.9625,-0.52066 2.60547,-2.44897 3.65039,-4.28516 l 1.90039,-3.33789 -2.90039,2.63672 c -6.16778,5.60625 -13.38322,7.73289 -18.69922,5.51172 -6.19352,-2.58784 -6.18862,-8.5591 0.0117,-12.97071 3.97729,-2.82988 3.51441,-3.59427 -0.71289,-1.17773 -1.375,0.78602 -3.625,1.45011 -5,1.47461 -1.375,0.0245 -7.56355,2.49073 -13.75391,5.48242 -26.40022,12.75878 -46.24609,30.89552 -46.24609,42.26367 0,4.83588 -1.24338,5.77522 -8.50586,6.42774 -3.34058,0.30014 -4.093,-0.0114 -5.18555,-2.14844 -1.92894,-3.77301 -1.57073,-10.55298 0.80664,-15.28906 1.16237,-2.31559 6.66742,-8.71094 12.23438,-14.21094 4.34919,-4.29688 6.98497,-7.12258 6.88477,-7.33008 l -0.002,-0.002 -0.002,-0.002 -0.002,-0.002 -0.002,-0.002 c -0.002,-6.6e-4 -0.007,-0.002 -0.01,-0.002 -0.0735,-0.004 -0.31488,0.14797 -0.73242,0.47656 -2.19265,1.72546 -7.91367,7.23796 -12.71289,12.25 -4.79922,5.01203 -9.19959,9.11328 -9.7793,9.11328 -0.5797,0 -1.32783,-0.71286 -1.66211,-1.58398 -0.48935,-1.27522 -0.77236,-1.32393 -1.45313,-0.25 -0.67857,1.07048 -0.85235,1.0378 -0.87695,-0.16602 -0.0272,-1.33333 -0.13833,-1.33333 -1,0 -0.74983,1.16029 -0.99262,0.82057 -1.07422,-1.5 l -0.10547,-3 -1.01172,3.5 c -2.11346,7.31266 0.92204,17.5827 6.85157,23.18555 8.81119,8.32576 30.86001,14.59136 59.25781,16.83984 22.8406,1.80848 71.77447,-0.2028 109.08203,-4.48242 76.18191,-8.73898 128.27156,-22.97597 194,-53.02735 30.35935,-13.88044 67.76736,-35.40455 109.5,-63.00585 36.2507,-23.97563 64.10759,-46.18621 89.0625,-71.00977 17.62517,-17.53239 24.81769,-26.03734 31.82813,-37.63086 5.90971,-9.77316 7.63348,-14.76362 7.50976,-21.74414 -0.0722,-4.07296 -0.29804,-4.93544 -0.82226,-3.125 -0.6935,2.39507 -0.75405,2.41233 -1.41797,0.41016 -0.38115,-1.14944 -1.69739,-2.56804 -2.92578,-3.15235 -1.22839,-0.58431 -5.3128,-2.48937 -9.07618,-4.23437 l -6.84179,-3.17383 -18.15821,0.0195 c -17.88493,0.0181 -31.42633,1.0604 -43.10156,3.31836 -4.51994,0.87416 -6.0359,0.86884 -6.33203,-0.0195 -0.21418,-0.64254 -1.81498,-1.2051 -3.55664,-1.25 l -3.16797,-0.082 3.18555,-1.39258 c 4.70991,-2.06261 23.26165,-5.17878 35.81445,-6.01563 6.04965,-0.40331 11.96617,-1.00182 13.14649,-1.33007 2.06077,-0.57313 2.08553,-0.74591 0.65039,-4.32813 -1.17856,-2.94177 -2.26545,-3.94445 -5.14454,-4.74414 -2.00799,-0.55773 -4.55234,-1.02396 -5.65234,-1.03516 -1.1,-0.0112 -4.7,-0.88885 -8,-1.95117 l -6,-1.93164 6,-0.19531 6,-0.19531 -7,-0.75196 c -3.85,-0.41263 -12.625,-0.89764 -19.5,-1.08007 -8.13341,-0.21583 -13.50459,-0.82573 -15.37891,-1.7461 -2.02537,-0.99453 -8.30445,-1.56402 -21.14843,-1.91601 l -18.26758,-0.5 -3.70508,-10.11133 c -11.80795,-32.22264 -30.31094,-59.45692 -53.8125,-79.20703 -25.68762,-21.58722 -52.44566,-34.69514 -82.6875,-40.50586 -8.98217,-1.72585 -15.65989,-2.2527 -30.5,-2.40625 z" />
    <path
       style="fill:#6cda88"
       d="m 694.46384,540.83291 c 4.675,-3.20886 10.075,-7.21957 12,-8.91269 l 3.5,-3.07841 -5.24941,2.82909 c -7.09099,3.8216 -20.47479,13.49872 -21.04743,15.2183 -0.56711,1.70295 -0.24163,1.52038 10.79684,-6.05629 z"
       id="path68" />
    <path
       style="fill:#6cda88"
       d="m 513.48672,617.43618 c 10.32905,-1.95939 33.84587,-9.591 40.47712,-13.13551 17.25888,-9.22516 28.18396,-18.29962 41.92622,-34.82425 2.15942,-2.59664 5.30942,-5.32348 7,-6.05965 l 3.07378,-1.33849 -3.31363,-0.0391 c -5.20113,-0.0614 -26.17825,4.53796 -43.46391,9.52979 -23.23926,6.71114 -46.6708,15.69693 -70.78149,27.14409 -12.86847,6.10962 -34.35112,18.21016 -33.62266,18.93863 0.22695,0.22695 2.48887,-0.14267 5.02649,-0.82138 3.83013,-1.02441 5.84888,-0.96865 11.88453,0.32825 9.91664,2.13083 31.27636,2.27273 41.79355,0.27766 z"
       id="path67" />
    <path
       style="fill:#6cda88"
       d="m 369.46384,662.62244 c 0,-0.75765 0.675,-1.93775 1.5,-2.62244 0.825,-0.68469 1.50277,-2.65229 1.50616,-4.37244 0.0371,-18.82578 51.5442,-53.6795 125.49384,-84.91892 64.80034,-27.37436 120.7699,-42.84119 156,-43.1096 14.0904,-0.10735 18.49127,0.83984 23.50551,5.05905 1.73287,1.45811 3.89337,2.353 5.2246,2.16407 1.86992,-0.26539 2.24347,-0.89886 2.11996,-3.59496 -0.22224,-4.85141 -2.60649,-7.71511 -9.06307,-10.88555 l -5.787,-2.84165 -20.5,0.0818 c -28.02362,0.1118 -44.88414,2.59518 -75.5,11.12035 -19.24959,5.36016 -46.27893,14.83086 -66.5,23.30065 -4.125,1.7278 -11.325,4.69397 -16,6.5915 -4.675,1.89752 -15.01875,6.70257 -22.98612,10.67788 -69.83372,34.84344 -115.64873,71.22778 -110.24535,87.55216 1.53255,4.63004 11.23147,9.637 11.23147,5.79811 z"
       id="path66" />
    <path
       style="fill:#6cda88"
       d="m 129.33628,739.25 c -1.24387,-1.58606 -1.2085,-1.62143 0.37756,-0.37756 0.9625,0.75485 1.75,1.54235 1.75,1.75 0,0.82304 -0.82119,0.29331 -2.12756,-1.37244 z"
       id="path65" />
    <path
       style="fill:#6cda88"
       d="m 138.46384,749.5 c -2.42903,-2.475 -4.19142,-4.5 -3.91642,-4.5 0.275,0 2.48739,2.025 4.91642,4.5 2.42903,2.475 4.19142,4.5 3.91642,4.5 -0.275,0 -2.48739,-2.025 -4.91642,-4.5 z"
       id="path64" />
    <path
       style="fill:#6cda88"
       d="m 147.38815,757.25 -2.42431,-2.75 2.75,2.42431 c 2.57029,2.26589 3.20859,3.07569 2.42431,3.07569 -0.17912,0 -1.41662,-1.2375 -2.75,-2.75 z"
       id="path63" />
    <path
       style="fill:#6cda88"
       d="m 267.61912,803.43149 c -39.61232,-4.31897 -77.16364,-16.67377 -104.49768,-34.38089 -5.22339,-3.38373 -10.09569,-6.88028 -10.82733,-7.7701 -0.73165,-0.88982 0.91973,-0.029 3.66973,1.913 2.75,1.94197 6.35,4.30271 8,5.24607 l 3,1.71522 -2.91005,-2.3274 c -14.37642,-11.49793 -22.58995,-20.50651 -22.58995,-24.77659 0,-1.69877 2.96501,-4.63245 6.5746,-6.50512 1.19079,-0.61779 4.06388,-3.31716 6.38465,-5.9986 3.31169,-3.82635 4.13002,-5.4855 3.80335,-7.71121 -0.22892,-1.55973 -0.23085,-2.83587 -0.004,-2.83587 0.22655,0 3.50306,2.74724 7.28112,6.10499 C 177.91593,737.13671 203.14899,754 207.24344,754 c 0.54293,0 1.23943,-0.96478 1.5478,-2.14396 0.51615,-1.97378 1.02154,-2.09656 6.36663,-1.54674 3.19328,0.32847 6.93097,0.87677 8.30597,1.21844 1.375,0.34166 -2.45,-2.01614 -8.5,-5.23958 -40.25055,-21.44545 -62.4865,-46.57681 -71.42136,-80.72132 -8.34205,-31.87911 -2.90377,-67.17291 15.88115,-103.06684 19.30836,-36.8941 45.03971,-67.95049 89.07209,-107.50533 16.29599,-14.63889 15.06236,-13.19796 -11.13433,13.00533 -14.98131,14.9851 -28.90695,29.92659 -33.77147,36.23505 -25.15893,32.62692 -39.70957,61.13667 -45.81371,89.76495 -1.37821,6.4638 -1.81237,12.93172 -1.81237,27 0,22.62411 1.2101,28.39998 9.57405,45.69749 5.23757,10.83184 6.92091,13.26757 15.03492,21.75497 10.38915,10.86723 18.25375,16.46108 33.05873,23.51364 11.60026,5.52595 23.73831,9.30527 37.82041,11.77583 13.69744,2.40307 51.28695,2.35312 67.01189,-0.089 34.25718,-5.32032 62.36459,-13.78624 114.75,-34.56256 8.25098,-3.27238 6.51764,-0.31795 -3.00326,5.119 -18.58599,10.61358 -51.32232,24.75179 -74.65853,32.24361 -24.48274,7.8599 -42.7963,11.17474 -67.4279,12.20479 -8.71183,0.36431 -15.23683,0.99428 -14.5,1.39994 2.30764,1.27046 20.8555,4.77659 32.33969,6.11323 14.25047,1.6586 50.0666,1.63521 63.5,-0.0415 28.27478,-3.5291 47.67451,-7.21447 72,-13.67783 108.50755,-28.83083 207.41309,-81.49425 288.51202,-153.62163 52.85466,-47.00762 96.42258,-114.99518 109.43483,-170.77259 6.56786,-28.15331 6.57572,-56.62624 0.0221,-80.05737 -2.7612,-9.87215 -9.61482,-24.23044 -15.60683,-32.69623 -9.74224,-13.76433 -27.27521,-28.64719 -43.36212,-36.80798 -14.28763,-7.24802 -37.58959,-12.87788 -58.62988,-14.16524 -16.51323,-1.01037 -46.80357,2.61848 -68.13532,8.16276 -10.73261,2.78949 -12.67088,3.02127 -11.6658,1.39503 1.13756,-1.84061 10.89061,-5.76262 30.931,-12.43833 22.13267,-7.37267 33.86277,-10.53229 52.5,-14.14141 11.75936,-2.27721 15.82086,-2.59581 31.5,-2.471 19.99235,0.15915 31.39015,1.60557 32.2319,4.09035 0.29289,0.86461 2.94804,6.55348 5.90032,12.64192 2.95228,6.08844 5.36778,11.60094 5.36778,12.25 0,1.5564 -1.99561,1.49124 -6.12788,-0.2001 -8.1172,-3.32237 -7.67363,-2.36824 1.12788,2.42608 23.51008,12.80631 38.5712,27.51797 50.41442,49.24465 9.89432,18.15137 14.53401,38.58571 14.67577,64.6357 0.0872,16.03108 0.74638,17.61197 2.38999,5.73213 0.36842,-2.66291 0.93219,-4.57931 1.25283,-4.25868 0.32063,0.32064 1.17299,0.0933 1.89413,-0.50519 0.97692,-0.81076 1.99073,-0.55363 3.97687,1.00868 1.46614,1.15326 3.24549,2.09684 3.95412,2.09684 0.70863,0 2.62541,1.125 4.2595,2.5 3.65705,3.0772 4.5658,3.11498 6.01436,0.25 1.885,-3.72818 0.4404,6.0827 -2.94711,20.01502 -3.05701,12.57305 -6.50143,22.79527 -13.8943,41.23498 -2.31532,5.775 -4.45782,11.175 -4.76112,12 -0.3033,0.825 1.33402,-0.60885 3.63848,-3.18633 4.98056,-5.57061 9.27518,-8.32896 14.38206,-9.2373 l 3.75,-0.667 v 3.99983 c 0,2.1999 -1.104,7.0413 -2.45332,10.75865 -1.34933,3.71736 -2.30971,6.90245 -2.13418,7.07798 0.17552,0.17553 1.80947,-3.29053 3.63098,-7.70235 1.82151,-4.41182 3.47744,-7.85589 3.67985,-7.65349 0.80331,0.80331 -7.54323,20.02242 -15.68196,36.11001 -24.76957,48.96123 -52.85081,86.70172 -95.3393,128.13366 -47.03043,45.86093 -103.19564,85.38119 -168.20207,118.3542 -84.124,42.66997 -173.73878,69.53374 -258.43738,77.47164 -20.22477,1.89545 -64.40448,1.88034 -81.90734,-0.028 z"
       id="path6" />
    <path
       style="fill:#4fb02d"
       d="m 620.46384,279.51116 c 0,-0.94726 15.61857,-8.30468 25.5,-12.01225 13.86894,-5.20372 27.35177,-8.95896 39.47604,-10.99489 13.74649,-2.30833 39.91847,-1.66018 51.02396,1.26361 l 7.5,1.97455 -12,-0.49132 c -25.04751,-1.02553 -57.88012,4.45931 -94.90447,15.85424 -17.11675,5.268 -16.59553,5.12962 -16.59553,4.40606 z"
       id="path62" />
    <path
       style="fill:#4fb02d"
       d="m 511.46384,300.5 c -1.60243,-0.91603 -1.94032,-1.44185 -0.94113,-1.46456 0.85738,-0.0195 2.43238,0.62525 3.5,1.43276 2.4859,1.88023 0.71317,1.90227 -2.55887,0.0318 z"
       id="path61" />
    <path
       style="fill:#4fb02d"
       d="m 387.47139,368.75 c 0.0182,-5.43176 2.34134,-15.78814 5.07031,-22.60341 C 405.01047,315.00732 440.8786,292 476.95558,292 c 13.18406,0 19.90896,1.10446 26.91068,4.41967 l 5.09758,2.41363 -4.5,0.15364 c -5.83974,0.19937 -6.92015,0.69611 -12.40761,5.70463 -3.09491,2.82478 -4.59239,5.00012 -4.59239,6.67122 0,2.37468 -4.33124,7.71735 -17,20.96983 -11.84102,12.38661 -15.89083,15.15334 -35,23.9111 -9.51268,4.35968 -12.48198,5.42355 -23.28726,8.34355 -7.26458,1.96317 -9.8302,2.23203 -14.80595,1.55155 -5.9421,-0.81263 -6.03739,-0.78694 -7.48842,2.01904 -1.77288,3.42836 -2.42087,3.58752 -2.41082,0.59214 z"
       id="path60" />
    <path
       style="fill:#4fb02d"
       d="m 387.65879,377.5 c 0.0204,-1.65 0.2445,-2.20394 0.49804,-1.23097 0.25354,0.97297 0.23687,2.32297 -0.0371,3 -0.27393,0.67703 -0.48137,-0.11903 -0.46099,-1.76903 z"
       id="path59" />
    <path
       style="fill:#4fb02d"
       d="m 786.96384,422.38772 -4,-1.40258 4.37108,0.42851 c 2.4041,0.23569 4.8566,0.91403 5.45,1.50743 1.46053,1.46053 -0.69902,1.26266 -5.82108,-0.53336 z"
       id="path58" />
    <path
       style="fill:#4fb02d"
       d="m 525.70768,423.75 c 11.48807,-17.53779 15.001,-24.05767 19.07383,-35.40041 3.10783,-8.65525 5.68707,-21.71709 5.66919,-28.71006 -0.0298,-11.67127 -6.33014,-31.90833 -12.57428,-40.38953 -1.9704,-2.67632 -1.27529,-2.96355 1.21004,-0.5 1.68263,1.66788 1.72758,1.65615 0.95797,-0.25 -0.44412,-1.1 -1.019,-2.9 -1.27751,-4 -0.25851,-1.1 -0.93389,-2.96652 -1.50085,-4.14783 -0.76409,-1.59206 -0.58837,-3.47996 0.6791,-7.29597 2.63911,-7.9456 2.19593,-14.12902 -1.47216,-20.54018 -2.68867,-4.6993 -3.73527,-5.6233 -7.80704,-6.8925 l -4.70213,-1.46568 4.5,0.52393 c 23.17017,2.69771 55.02839,18.51988 77.29583,38.38845 3.18771,2.8443 6.04437,4.92291 6.34814,4.61915 0.30376,-0.30377 -1.06686,-2.67286 -3.04584,-5.26464 -3.86971,-5.06801 -4.30474,-6.59341 -2.34438,-8.22036 2.09361,-1.73754 15.63416,8.64303 25.00896,19.17257 10.91616,12.26076 19.08602,24.32545 26.49814,39.13064 6.38792,12.75941 12.61887,29.069 11.68369,30.58216 -0.30942,0.50064 -3.43344,0.91026 -6.94227,0.91026 -16.7845,0 -67.09973,11.30397 -118.22742,26.56131 C 534.71486,423.55259 526.0006,426 525.37368,426 c -0.75418,0 -0.64117,-0.7613 0.334,-2.25 z"
       id="path57" />
    <path
       style="fill:#4fb02d"
       d="m 307.74339,513.20553 c 0.72216,-8.61386 3.80354,-21.52244 4.8805,-20.44548 0.45017,0.45017 1.65606,3.27581 2.67977,6.27922 l 1.86129,5.46073 0.63857,-19.5 c 0.70162,-21.42542 1.34616,-27.0166 2.86482,-24.85131 0.7944,1.13265 1.03513,1.13317 1.48768,0.003 0.35819,-0.8944 2.85433,1.04087 7.41642,5.75 6.80782,7.02723 8.18404,7.83362 10.67341,6.25402 0.98663,-0.62606 0.47549,-2.52338 -2.21841,-8.23469 -4.21236,-8.93058 -6.39745,-16.96986 -7.22539,-26.58331 -0.50684,-5.88506 -0.36067,-7.1332 0.81979,-7 0.79014,0.0892 4.3772,-3.43789 7.97124,-7.83789 7.67377,-9.3946 11.70454,-12.4057 21.87076,-16.33808 10.56608,-4.08706 26.01881,-6.21076 28.75,-3.95119 0.9363,0.77462 1.27911,0.43876 1.366,-1.33829 0.0934,-1.90968 0.21042,-2.00404 0.60003,-0.48376 0.26622,1.03877 2.74841,5.72234 5.51598,10.40794 6.24051,10.5654 20.66108,26.48511 33.27764,36.73712 5.25642,4.27127 9.39724,8.26102 9.20182,8.86611 -0.19541,0.60508 -5.49793,3.27758 -11.78338,5.93888 -50.26659,21.28342 -91.33576,41.12265 -114.92809,55.51833 -5.80897,3.54455 -6.36936,3.08889 -5.72045,-4.65135 z"
       id="path56" />
    <path
       style="fill:#4fb02d"
       d="m 279.71384,582.60421 c 4.63586,-4.22837 2.51614,-6.46276 -2.81639,-2.96875 -5.67529,3.71859 -2.97008,0.0684 5.48749,-7.4043 37.4453,-33.085 91.89856,-64.52919 179.3289,-103.55398 3.1625,-1.41159 5.75,-2.97997 5.75,-3.48529 0,-3.5547 75.93783,-30.0082 126.5,-44.06721 13.8106,-3.8401 37.80165,-9.50025 47,-11.08861 3.85,-0.66481 11.71498,-2.08526 17.47773,-3.15656 19.03534,-3.53867 40.241,-5.78129 61.15634,-6.46763 18.98949,-0.62314 21.18129,-0.51517 27.5,1.3547 3.77626,1.11749 8.89093,2.3153 11.36593,2.66179 5.76966,0.80774 6.6033,1.37793 8.43944,5.77246 l 1.51702,3.63073 -3.72823,0.53652 c -2.05053,0.29508 -7.77823,0.80689 -12.72823,1.13736 -11.10727,0.74151 -30.49306,4.04509 -34.79922,5.9302 l -3.20078,1.40121 3.25,0.0816 c 6.83101,0.17145 2.65719,1.71097 -13.5,4.97948 -18.99091,3.84176 -53.88782,12.47607 -71.75,17.75262 -22.64211,6.68856 -63.00912,19.30785 -79,24.6965 -20.75115,6.99278 -95.05541,34.03932 -102.21937,37.20757 -6.43551,2.84608 -7.39453,3.02853 -4.72176,0.89828 1.82217,-1.4523 1.72783,-1.50562 -1.53925,-0.86994 -3.2492,0.63219 -3.38257,0.55931 -2.00784,-1.09713 1.35803,-1.63633 1.27874,-1.71746 -1.01962,-1.04329 -13.42144,3.93685 -71.18451,29.25738 -91.80008,40.2407 -15.37078,8.18907 -43.49747,23.48107 -50.19208,27.28857 -3.575,2.03325 -10.1,5.59669 -14.5,7.91876 -6.27452,3.31133 -7.40687,3.68094 -5.25,1.71366 z"
       id="path55" />
    <path
       style="fill:#4fb02d"
       d="m 299.27634,624.31689 c 0.72187,-0.28887 1.58438,-0.25335 1.91667,0.0789 0.33229,0.33229 -0.25834,0.56864 -1.3125,0.52522 -1.16495,-0.048 -1.4019,-0.28494 -0.60417,-0.60416 z"
       id="path54" />
    <path
       style="fill:#4fb02d"
       d="m 180.68145,642.7365 c -3.67884,-10.70746 -5.21761,-20.92449 -5.21761,-34.64358 0,-34.06166 13.73338,-70.71258 39.37911,-105.09292 6.99256,-9.37414 32.55044,-36.44099 32.57664,-34.5 0.007,0.55 -4.97895,7.3 -11.08081,15 -20.35619,25.68764 -34.43099,49.21625 -43.53146,72.7708 -3.97748,10.29482 -8.77243,28.97779 -10.27915,40.05156 -1.38464,10.17647 -1.36258,33.14343 0.0418,43.57913 0.6084,4.52072 0.91447,8.4112 0.68017,8.64551 -0.23431,0.2343 -1.39023,-2.38042 -2.56873,-5.8105 z"
       id="path53" />
    <path
       style="fill:#4fb02d"
       d="m 209.456,666.22745 c -3.92181,-3.92181 -5.98806,-9.191 -5.97127,-15.22745 0.01,-3.49747 1.91168,-8.30254 1.97911,-5 0.0246,1.20382 0.19758,1.23663 0.87615,0.16615 0.6729,-1.06152 0.97774,-0.98929 1.49312,0.35376 0.39159,1.02047 1.26308,1.45141 2.20455,1.09014 1.25149,-0.48025 1.39698,-0.15726 0.74157,1.64624 -0.92803,2.55367 -0.9347,10.14007 -0.0121,13.81586 0.34064,1.35721 1.55429,3.47119 2.697,4.69775 3.55762,3.81866 -0.0261,2.43951 -4.0081,-1.54245 z"
       id="path52" />
    <path
       style="fill:#4fb02d"
       d="m 265.96384,683.3241 c -17.29074,-1.46839 -41.17347,-6.74243 -45.21703,-9.98532 -1.59029,-1.27539 -1.30767,-1.35876 2.61518,-0.77142 2.41898,0.36217 5.92367,1.2959 7.78819,2.07494 3.55979,1.48738 13.31366,0.92243 13.31366,-0.77113 0,-0.47914 -0.66997,-0.87117 -1.48883,-0.87117 -1.93363,0 -13.10225,-8.49199 -13.89885,-10.5679 -2.24587,-5.85264 1.06918,-13.30776 9.77561,-21.98407 11.15422,-11.11565 36.00629,-25.88645 45.75412,-27.19391 3.83867,-0.51487 3.85726,-0.50066 3.25875,2.49186 -0.856,4.28003 0.99837,6.99372 5.75242,8.41807 3.74905,1.12324 3.92791,1.32053 1.98368,2.18807 -2.95435,1.31826 -2.68789,2.15853 1.28184,4.0423 5.75358,2.73025 23.66165,2.34289 37.25902,-0.80592 6.14777,-1.42368 13.12421,-2.5885 15.50319,-2.5885 8.96818,0 26.91098,-6.78061 39.7693,-15.02888 4.47452,-2.87029 8.32994,-5.02426 8.56759,-4.78661 0.23765,0.23765 -4.23386,4.13318 -9.93669,8.65674 -13.53576,10.73674 -26.04609,23.81239 -29.13929,30.45603 -4.54184,9.75507 -2.54332,14.84796 7.73379,19.70827 3.21097,1.51855 6.46308,3.27966 7.22691,3.91358 1.03526,0.85919 3.13355,0.87464 8.24311,0.0607 3.76988,-0.60054 7.21867,-1.45351 7.66398,-1.8955 0.4453,-0.44199 -1.64477,-1.79979 -4.64462,-3.01734 -6.56597,-2.66493 -9.56148,-5.62863 -10.28277,-10.17358 -1.42595,-8.9851 16.01968,-25.90041 46.08608,-44.68515 13.6783,-8.54586 54.38479,-28.74336 78.53166,-38.96536 51.33031,-21.72945 95.64752,-35.39188 132,-40.69389 25.30277,-3.69042 37.99561,-2.85652 43.47897,2.85649 1.66157,1.73116 3.80903,4.63545 4.77214,6.454 2.11684,3.99704 3.66221,3.71417 6.05465,-1.10827 3.89717,-7.85553 -1.62095,-16.88764 -12.80576,-20.96056 -5.33495,-1.94271 -7.96744,-2.18275 -23.75,-2.16566 -9.7625,0.0106 -17.75,-0.24225 -17.75,-0.56183 0,-0.31958 2.95718,-1.64161 6.5715,-2.93785 11.81837,-4.23853 22.35715,-13.18068 25.73771,-21.83842 1.52746,-3.91191 1.52722,-4.27906 -0.003,-5.13568 -1.41315,-0.79084 -1.23139,-1.14035 1.27286,-2.44762 8.72003,-4.55206 12.88611,-14.77636 6.94919,-17.05457 -0.84076,-0.32245 -1.52826,-1.69087 -1.52826,-3.04093 0,-1.35006 -1.12125,-3.78719 -2.49168,-5.41585 -2.93807,-3.49171 -2.44796,-4.13502 4.99168,-6.55204 7.1997,-2.33907 31.24851,-8.14371 43.5,-10.49957 18.24013,-3.50742 39.28605,-5.41519 53,-4.80434 14.53731,0.64753 21.68809,2.50562 25.91684,6.73437 l 3.02545,3.02546 2.99954,-3.29807 c 3.38215,-3.71876 3.85315,-7.36007 1.53249,-11.84773 -1.77217,-3.427 -0.784,-3.81915 2.32501,-0.92266 5.61727,5.23328 3.33997,14.70561 -7.48957,31.15261 -8.75188,13.29161 -35.07912,40.44689 -57.03333,58.82714 -45.97656,38.49196 -121.63203,85.90354 -176.45155,110.57821 -53.06681,23.88576 -101.83327,38.09945 -157.32488,45.85461 -18.3246,2.56093 -55.07006,6.44076 -71.32955,7.53145 -13.97907,0.93771 -60.03508,1.17067 -69.67045,0.3524 z"
       id="path51" />
    <path
       style="fill:#4fb02d"
       d="m 694.46384,540.83291 c 4.675,-3.20886 10.075,-7.21957 12,-8.91269 l 3.5,-3.07841 -5.24941,2.82909 c -7.09099,3.8216 -20.47479,13.49872 -21.04743,15.2183 -0.56711,1.70295 -0.24163,1.52038 10.79684,-6.05629 z"
       id="path50" />
    <path
       style="fill:#4fb02d"
       d="m 513.48672,617.43618 c 10.32905,-1.95939 33.84587,-9.591 40.47712,-13.13551 17.25888,-9.22516 28.18396,-18.29962 41.92622,-34.82425 2.15942,-2.59664 5.30942,-5.32348 7,-6.05965 l 3.07378,-1.33849 -3.31363,-0.0391 c -5.20113,-0.0614 -26.17825,4.53796 -43.46391,9.52979 -23.23926,6.71114 -46.6708,15.69693 -70.78149,27.14409 -12.86847,6.10962 -34.35112,18.21016 -33.62266,18.93863 0.22695,0.22695 2.48887,-0.14267 5.02649,-0.82138 3.83013,-1.02441 5.84888,-0.96865 11.88453,0.32825 9.91664,2.13083 31.27636,2.27273 41.79355,0.27766 z"
       id="path49" />
    <path
       style="fill:#4fb02d"
       d="m 371.46384,670 c -0.825,-0.53316 -3.075,-0.96937 -5,-0.96937 -1.925,0 -4.175,0.43621 -5,0.96937 -1.05262,0.68026 0.43864,0.96937 5,0.96937 4.56136,0 6.05262,-0.28911 5,-0.96937 z"
       id="path48" />
    <path
       id="path5"
       style="fill:#4fb02d"
       d="m 759.03125,225.04102 c -4.96595,0.11309 -9.99015,0.43932 -14.59375,1.00976 -17.28369,2.14168 -42.81447,7.91686 -60.97461,13.79492 -24.54906,7.94601 -31.20198,10.28436 -30.69727,10.78907 0.23125,0.23126 1.52576,0.001 2.875,-0.51172 1.34929,-0.51299 6.24917,-1.63572 10.88868,-2.4961 38.64969,-7.16742 68.80473,-6.1122 98.4414,3.44727 37.3255,12.03955 67.19025,43.15917 76.38477,79.59375 15.03348,59.57225 -10.67493,135.18127 -70.36328,206.94336 -39.07924,46.98417 -101.11029,95.46334 -169.28711,132.30078 -32.47271,17.54573 -61.19863,30.48737 -96.66602,43.54883 -82.71713,30.46197 -154.03179,41.27179 -211.57617,32.07226 -14.22508,-2.27414 -29.99935,-6.71364 -30,-8.44336 -1.3e-4,-0.32421 9.11237,-0.58984 20.25,-0.58984 34.05976,0 58.75175,-5.32986 99.25,-21.42383 13.91201,-5.52862 45.97862,-20.93155 45.19922,-21.71094 -0.25829,-0.25829 -8.90159,2.71824 -19.20899,6.61329 -55.99081,21.15828 -99.81011,29.6695 -139.49023,27.0957 -16.53632,-1.0726 -26.42613,-2.85323 -40,-7.20313 -29.74028,-9.53062 -52.49125,-27.4834 -64.44336,-50.84961 -3.07801,-6.01747 -6.79226,-15.2694 -8.31055,-20.70117 -2.50328,-8.9556 -2.74432,-11.31797 -2.73632,-26.82031 0.008,-14.07589 0.40603,-18.77922 2.3164,-27.34375 7.94416,-35.61521 25.24358,-66.29708 61.26367,-108.65625 1.65955,-1.95161 2.55228,-3.02924 2.53516,-3.14648 -1.5e-4,-4.5e-4 -0.002,-0.003 -0.002,-0.004 v -0.002 l -0.002,-0.002 h -0.002 l -0.002,-0.002 c -0.14516,-0.0165 -1.73215,1.47918 -5.03711,4.65625 -24.97408,24.00766 -52.96739,65.18364 -64.92578,95.5 -15.49728,39.28796 -13.31153,81.31657 5.8457,112.38867 12.88072,20.8919 30.41813,36.172 59,51.40039 5.27584,2.81097 8.86032,4.96582 8.7793,5.24414 -4.4e-4,10e-4 -10e-4,0.003 -0.002,0.004 -7.7e-4,10e-4 -0.005,0.005 -0.006,0.006 -9.4e-4,7.7e-4 -0.005,0.003 -0.006,0.004 -0.0352,0.02 -0.12464,0.0155 -0.26563,-0.0195 -1.375,-0.34167 -5.11141,-0.89028 -8.30469,-1.21875 -5.34509,-0.54982 -5.85103,-0.4269 -6.36718,1.54688 -0.30785,1.17905 -1.00343,2.1444 -1.54636,2.1444 -4.09445,0 -29.32786,-16.86281 -41.74023,-27.89453 C 161.72585,722.74772 158.44921,720 158.22266,720 c -0.22685,0 -0.22502,1.27621 0.004,2.83594 0.32667,2.22571 -0.49104,3.88457 -3.80273,7.71094 -2.32077,2.68144 -5.19398,5.38025 -6.38477,5.99804 -3.60959,1.87267 -6.57617,4.80709 -6.57617,6.50586 0,2.84186 5.89113,10.60977 12.2832,16.19727 25.298,22.11371 69.04533,38.24442 115.7168,42.66797 6.325,0.59948 13.075,1.24235 15,1.42773 9.95624,0.95878 44.10697,0.47265 60.55469,-0.86133 C 428.71407,795.69429 518.3703,769.47326 604.2832,726.65625 715.54752,671.20469 806.91772,590.7257 856.50391,504.5 c 15.10491,-26.26602 27.95898,-55.46315 27.95898,-63.50195 v -4.08789 l -3.75,0.66601 c -5.10688,0.90834 -9.4003,3.66767 -14.38086,9.23828 -2.30446,2.57748 -3.94197,4.01055 -3.63867,3.18555 0.3033,-0.825 2.4464,-6.225 4.76172,-12 7.39287,-18.43971 10.83752,-28.66131 13.89453,-41.23438 3.38751,-13.93232 4.83031,-23.7438 2.94531,-20.01562 -1.44856,2.86498 -2.35662,2.8272 -6.01367,-0.25 -1.63409,-1.375 -3.55114,-2.5 -4.25977,-2.5 -0.70863,0 -2.48698,-0.9444 -3.95312,-2.09766 -1.98614,-1.56231 -2.99964,-1.81857 -3.97656,-1.00781 -0.72114,0.59849 -1.5739,0.8265 -1.89453,0.50586 -0.32064,-0.32063 -0.88549,1.5949 -1.25391,4.25781 -1.64361,11.87984 -2.30147,10.29866 -2.38867,-5.73242 -0.14176,-26.04999 -4.78146,-46.48339 -14.67578,-64.63476 -11.84322,-21.72668 -26.90594,-36.43979 -50.41602,-49.2461 -8.80151,-4.79432 -9.24415,-5.74815 -1.12695,-2.42578 4.13227,1.69134 6.12695,1.75757 6.12695,0.20117 0,-0.64906 -2.41491,-6.16156 -5.36719,-12.25 -2.95228,-6.08844 -5.60464,-11.77213 -5.89453,-12.6289 -0.90064,-2.66187 -15.27208,-4.23966 -30.16992,-3.90039 z" />
    <path
       style="fill:#2d932b"
       d="m 641.3013,270.48589 c 9.45824,-4.4372 25.95779,-9.75642 39.20406,-12.63883 8.62488,-1.87679 13.43894,-2.27157 27.45848,-2.25175 20.03842,0.0283 27.74275,1.71862 13,2.85213 -12.2702,0.94341 -31.22665,3.28698 -41.5,5.13062 -8.71611,1.56417 -35.07458,7.70168 -40.571,9.44686 -5.81405,1.84603 -4.91232,0.89542 2.40846,-2.53903 z"
       id="path47" />
    <path
       style="fill:#2d932b"
       d="m 389.01269,360.52927 c 0.52141,-6.85909 5.90227,-20.35818 11.25954,-28.24711 11.42077,-16.81783 32.08948,-30.96554 54.70976,-37.44875 10.8352,-3.10549 33.88532,-3.34548 42.73185,-0.44492 3.1625,1.03691 5.75,2.27369 5.75,2.7484 0,0.47471 -1.97985,0.86311 -4.39966,0.86311 -4.06465,0 -4.78801,0.42492 -9.5,5.58059 -3.22055,3.52379 -5.10034,6.48143 -5.10034,8.02481 0,1.81408 -3.95757,6.43389 -15.35071,17.91942 C 460.67023,338.03617 453.03589,345 452.14792,345 c -0.88797,0 -3.09265,1.28434 -4.89928,2.85409 -1.80664,1.56975 -6.28824,3.84511 -9.95912,5.05635 -3.67087,1.21124 -7.15795,2.78499 -7.74905,3.49723 -1.1415,1.37542 -9.48595,3.71908 -19.87752,5.58288 -4.72405,0.8473 -7.6972,0.84024 -11.88043,-0.0282 -5.73766,-1.19114 -7.26175,-0.6094 -7.30337,2.78764 -0.008,0.6875 -0.43539,1.25 -0.94883,1.25 -0.51494,0 -0.74704,-2.45299 -0.51763,-5.47073 z"
       id="path46" />
    <path
       style="fill:#2d932b"
       d="m 658.86511,387.25 c -2.01734,-7.01057 -7.61849,-20.76052 -10.56748,-25.94154 -1.19227,-2.09465 -5.01762,-8.5983 -8.50077,-14.45254 -3.48316,-5.85425 -6.33302,-10.91564 -6.33302,-11.24755 0,-1.53786 11.88158,8.24879 14.95428,12.31757 7.67146,10.15834 22.20055,41.39649 20.51916,44.11704 -0.32531,0.52636 -2.35235,0.95702 -4.50452,0.95702 -3.90521,0 -3.91637,-0.0115 -5.56765,-5.75 z"
       id="path45" />
    <path
       style="fill:#2d932b"
       d="m 525.46384,425.40198 c 0,-0.4466 2.44754,-4.67283 5.43897,-9.39163 19.3264,-30.48617 24.24472,-57.68764 14.82835,-82.01035 -2.07243,-5.35312 -2.51417,-8.20671 -2.50362,-16.17283 0.009,-6.87178 0.47955,-10.6084 1.62456,-12.90364 0.88646,-1.77694 1.61451,-4.17417 1.6179,-5.32717 0.003,-1.153 0.69045,-3.40855 1.52681,-5.01235 1.4004,-2.68539 1.35374,-3.31802 -0.59013,-8 -2.03768,-4.90794 -2.36863,-5.18402 -9.55584,-7.97164 -4.09479,-1.5882 -7.29447,-3.03824 -7.1104,-3.2223 0.18407,-0.18407 4.04347,0.55115 8.57644,1.63382 20.68808,4.94121 46.32928,19.22075 64.23179,35.77056 7.78192,7.19393 21.50613,23.94793 20.46777,24.98628 -0.38161,0.38161 -2.34956,-0.3274 -4.37322,-1.57558 -5.48149,-3.38095 -16.38942,-8.32845 -17.00495,-7.71292 -0.29575,0.29575 0.84846,1.99349 2.54267,3.77275 3.34499,3.51289 10.6303,14.54926 14.34769,21.73502 1.63678,3.16392 2.43989,3.98041 2.70491,2.75 0.53349,-2.47677 1.42246,-2.20087 4.83307,1.5 7.81843,8.48383 14.62401,21.45343 16.00437,30.5 0.52752,3.45731 0.35819,4.25 -0.9079,4.25 -0.85601,0 -2.22201,0.66562 -3.03554,1.47916 -0.81354,0.81354 -3.43318,1.95261 -5.82143,2.53127 -2.38825,0.57866 -10.86727,2.60307 -18.84227,4.4987 -23.8358,5.66566 -79.11627,20.92825 -87.75,24.22722 -0.6875,0.26269 -1.25,0.11223 -1.25,-0.33437 z"
       id="path44" />
    <path
       style="fill:#2d932b"
       d="m 198.96384,506 c 0.99549,-1.1 2.03498,-2 2.30998,-2 0.275,0 -0.31449,0.9 -1.30998,2 -0.99549,1.1 -2.03498,2 -2.30998,2 -0.275,0 0.31449,-0.9 1.30998,-2 z"
       id="path43" />
    <path
       style="fill:#2d932b"
       d="m 415.46384,512.50424 c 0,-0.24908 1.35,-1.15099 3,-2.00424 3.64607,-1.88545 3.7056,-2.70835 0.5,-6.91111 -1.375,-1.80272 -2.5,-3.64976 -2.5,-4.10454 0,-0.45478 -0.71191,-1.61352 -1.58203,-2.57499 -1.2962,-1.43229 -2.11846,-1.56113 -4.55105,-0.71312 -1.63296,0.56925 -3.17292,0.8311 -3.42213,0.58188 -1.94405,-1.94405 82.72725,-38.3118 123.65095,-53.11017 5.27766,-1.90845 11.36558,-4.37281 13.52872,-5.47636 4.87841,-2.48878 24.00622,-8.89555 44.09469,-14.76932 43.388,-12.68642 102.48275,-22.56855 119.60483,-20.00094 2.6844,0.40255 4.4534,1.12987 4.10788,1.68893 -0.33377,0.54005 -0.29589,3.24291 0.0842,6.00635 0.52378,3.80832 1.19484,5.21081 2.77253,5.79444 1.62333,0.6005 0.33486,1.23901 -5.85353,2.90073 -4.36427,1.1719 -11.31004,2.82626 -15.43504,3.67635 -7.78203,1.60374 -32.88901,8.3433 -34.30984,9.20992 -0.44541,0.27167 0.005,1.09361 1,1.82653 2.07962,1.53122 2.73203,1.19514 -8.69016,4.47657 -12.18402,3.50029 -26.74794,7.85915 -38.5,11.52272 -6.05,1.88601 -17.3,5.26677 -25,7.51279 -15.80568,4.61038 -32.71619,9.96139 -42.80721,13.54554 -3.74397,1.32979 -8.01897,2.43211 -9.5,2.4496 -1.48103,0.0175 -3.5663,0.6925 -4.63392,1.5 -1.06762,0.80751 -2.9058,1.4682 -4.08484,1.4682 -1.17905,0 -4.9664,0.92664 -8.41634,2.0592 -3.44995,1.13256 -6.51168,1.82015 -6.80385,1.52798 -0.4651,-0.46511 0.85772,-1.0908 6.63929,-3.14039 0.76622,-0.27163 1.14855,-0.73844 0.84963,-1.03736 -1.35038,-1.35039 -75.06661,24.50885 -101.49276,35.6031 -1.2375,0.51952 -2.25,0.7408 -2.25,0.49171 z"
       id="path42" />
    <path
       style="fill:#2d932b"
       d="m 320.08976,507.66885 c -2.07098,-16.89909 -1.86943,-35.29893 0.34737,-31.71207 0.59395,0.96103 1.64001,0.17927 3.85904,-2.88402 1.67433,-2.31133 3.23063,-4.73575 3.45845,-5.38759 0.23675,-0.67738 2.76493,1.02323 5.90069,3.96915 5.05546,4.7494 13.80861,9.99735 19.75827,11.84605 1.79929,0.55908 0.73542,-0.933 -4.00681,-5.61959 -7.16744,-7.08333 -12.9633,-17.02216 -15.41454,-26.43308 -1.41038,-5.41483 -2.04571,-12.63253 -0.84915,-9.64683 0.30731,0.76682 1.3338,-0.34125 2.50035,-2.69907 1.08846,-2.19996 4.30583,-6.25439 7.14971,-9.00984 13.25514,-12.84294 19.18412,-15.0817 40.02604,-15.11364 l 14.14466,-0.0217 12,12.37951 c 6.6,6.80873 16.275,15.89791 21.5,20.19816 5.225,4.30026 9.5,8.24184 9.5,8.75908 0,0.51723 -11.25,5.7655 -25,11.66283 -37.32212,16.00731 -67.30791,30.20318 -85,40.24068 -9.4482,5.36037 -9.15051,5.37629 -9.87408,-0.52805 z"
       id="path41" />
    <path
       style="fill:#2d932b"
       d="M 180.00219,639.84863 C 167.85631,599.18825 181.19913,548.1055 216.00825,502 c 7.31525,-9.68922 29.35067,-33.31359 29.38134,-31.5 0.009,0.55 -4.30298,6.4 -9.58283,13 -40.48034,50.6018 -58.9799,100.87126 -54.52341,148.15826 0.65634,6.96423 0.99606,12.8595 0.75495,13.10062 -0.24112,0.24111 -1.15737,-1.9685 -2.03611,-4.91025 z"
       id="path40" />
    <path
       style="fill:#2d932b"
       d="m 224.96384,674.49598 -3,-1.4138 3,0.59385 c 1.65,0.32663 3.675,0.96945 4.5,1.42851 2.69271,1.4983 -1.12488,0.98204 -4.5,-0.60856 z"
       id="path39" />
    <path
       style="fill:#2d932b"
       d="m 269.96384,683.29245 c -7.07925,-0.38863 -27.87649,-3.11596 -30.01322,-3.9359 -0.81773,-0.31379 -1.48678,-1.04096 -1.48678,-1.61594 0,-0.70681 4.02718,-0.83012 12.43339,-0.38073 7.63679,0.40826 12.6627,0.29365 13.02779,-0.29707 0.32692,-0.52897 -1.10561,-1.22247 -3.18339,-1.54112 -2.07778,-0.31865 -6.76718,-1.24139 -10.42087,-2.05053 -3.6537,-0.80914 -7.16041,-1.47116 -7.7927,-1.47116 -1.986,0 -12.12159,-8.0318 -13.24385,-10.4949 -1.69939,-3.72974 -0.10422,-8.92933 4.70017,-15.32058 5.3179,-7.07437 9.61628,-10.7021 23.30616,-19.66984 C 266.86833,620.24062 281.73699,613 285.04302,613 c 0.97122,0 1.42786,1.18665 1.44306,3.75 0.0129,2.17362 0.84428,4.80092 1.97776,6.25 1.07554,1.375 1.96553,3.0258 1.97776,3.66844 0.0493,2.59219 6.92066,5.40986 15.59695,6.39573 8.96064,1.01818 16.06847,0.43839 32.00396,-2.61057 4.1785,-0.79948 9.4051,-1.4536 11.61468,-1.4536 6.27873,0 19.4476,-4.50495 29.22092,-9.9962 4.90285,-2.75472 9.0833,-4.83957 9.28987,-4.63299 0.20658,0.20658 -3.95877,4.13342 -9.25633,8.7263 -9.68342,8.39534 -17.69382,17.50867 -20.90356,23.78173 -4.01097,7.83895 -1.24954,16.15245 6.45575,19.43552 3.37564,1.43829 3.4046,1.49473 0.8151,1.58846 -4.30575,0.15585 -8.31971,1.99257 -7.07491,3.23737 1.10185,1.10185 22.13081,1.30659 27.75981,0.27027 2.93878,-0.54104 7.27068,-3.05622 6.427,-3.73163 -0.23485,-0.18801 -3.45408,-1.60574 -7.15384,-3.15051 -13.92418,-5.81379 -13.52511,-13.73293 1.43554,-28.48677 13.39129,-13.20617 35.60631,-27.53403 68.2913,-44.04534 55.53791,-28.05582 119.57332,-50.98078 168,-60.14477 9.33536,-1.76657 15.66388,-2.27976 28.5,-2.31113 20.04533,-0.049 22.48697,0.70943 25.94102,8.05759 1.25113,2.66168 2.99593,5.36673 3.87731,6.01121 1.33284,0.9746 1.40244,1.61095 0.41354,3.78134 -1.91818,4.20995 0.38561,3.31894 11.99828,-4.64045 40.8933,-28.02849 88.5084,-71.19512 97.68139,-88.55544 2.92734,-5.54013 -0.29912,-3.22655 -13.41154,9.61693 -16.85838,16.51261 -30.27109,27.78205 -56.58813,47.54566 -14.60079,10.96492 -32.78457,20.52475 -33.71736,17.72637 -1.14644,-3.43931 -7.56967,-8.95697 -12.93072,-11.10771 -4.93514,-1.97988 -8.02813,-2.37507 -21.51379,-2.74884 -8.6625,-0.24009 -15.75,-0.82203 -15.75,-1.2932 0,-0.47118 1.6875,-1.31287 3.75,-1.87043 3.91805,-1.05919 5.6026,-2.04753 13.58928,-7.97299 4.7159,-3.49881 12.6155,-15.43406 12.6475,-19.10868 0.007,-0.83508 1.81322,-3.69658 4.01322,-6.35888 4.59652,-5.56243 5.29439,-10.14141 2,-13.12279 -1.1,-0.99549 -2,-2.6057 -2,-3.57826 0,-0.97256 -1.125,-3.10528 -2.5,-4.73937 -1.375,-1.6341 -2.5,-3.20667 -2.5,-3.4946 0,-0.84712 14.62265,-5.36556 26.5,-8.18857 35.38758,-8.41095 62.59588,-11.62798 81,-9.5772 13.01703,1.4505 18.82825,3.40488 21.9376,7.37789 l 2.46349,3.14776 3.50783,-3.97383 c 1.9293,-2.1856 3.52656,-4.31132 3.54945,-4.72382 0.0229,-0.4125 0.49163,-0.75 1.04163,-0.75 3.60829,0 -3.62145,16.38225 -12.33689,27.95482 -11.18107,14.84649 -34.64134,38.1926 -57.03757,56.76002 -44.59102,36.96785 -118.0862,82.8886 -170.62554,106.60909 -45.1979,20.40597 -90.56555,35.13457 -129.5,42.04217 -58.01317,10.29247 -123.14484,15.33388 -167,12.92635 z"
       id="path38" />
    <path
       style="fill:#2d932b"
       d="m 462.96384,649.86819 c 24.57936,-3.47503 50.52255,-9.73208 73.91408,-17.82678 3.25274,-1.12563 6.0705,-1.89017 6.26168,-1.69898 0.42644,0.42644 -8.56165,4.20416 -23.17576,9.74084 -20.60554,7.80658 -21.80938,8.3136 -20.65373,8.69882 1.78725,0.59575 36.0167,-11.31229 51.65373,-17.96975 21.0862,-8.97744 58.34237,-28.76504 49.5,-26.29057 -1.375,0.38478 -5.65,2.4105 -9.5,4.50159 -7.12791,3.87146 -38.12653,18.00792 -39.33581,17.93852 -0.3653,-0.021 6.0806,-3.43729 14.32423,-7.59183 19.08321,-9.61736 24.39162,-12.74223 38.51158,-22.67037 12.87712,-9.05427 29.49149,-24.82542 30.53572,-28.98596 2.48033,-9.88245 -4.67849,-11.44744 -32.53572,-7.11263 -59.95671,9.32974 -146.43683,46.89151 -177.75,77.20393 -7.71109,7.46465 -7.16379,12.50021 1.5524,14.28326 5.09359,1.04199 20.00526,0.13988 36.6976,-2.22009 z"
       id="path37" />
    <path
       style="fill:#2d932b"
       d="m 341.89746,668.10222 c 1.0635,-0.41647 1.5135,-1.01038 1,-1.3198 -1.10189,-0.66398 -10.15732,0.60795 -11.10987,1.5605 -0.90212,0.90211 7.7155,0.69694 10.10987,-0.2407 z"
       id="path36" />
    <path
       style="fill:#2d932b"
       d="m 279.46384,802.4693 c -0.825,-0.16428 -6.225,-0.83978 -12,-1.50111 -11.73347,-1.34367 -30.65495,-5.21322 -36,-7.3622 -1.925,-0.77395 -5.64264,-2.16609 -8.26141,-3.09365 -6.95164,-2.46224 -7.63098,-4.51881 -3.13613,-9.49407 2.63467,-2.91626 5.12952,-4.4659 9.00264,-5.59185 5.76779,-1.67674 7.46635,-3.13367 5.27302,-4.52291 -2.30644,-1.46087 0.62082,-1.10571 13.61007,1.6513 6.5935,1.39949 15.5935,2.80038 20,3.11308 7.38465,0.52405 7.85525,0.44666 6.01181,-0.98855 -1.92481,-1.49857 -1.93246,-1.62519 -0.20354,-3.36822 1.50471,-1.51698 3.28052,-1.78061 10.93445,-1.62323 5.02589,0.10333 10.29156,0.47741 11.70149,0.83128 1.40992,0.35387 2.2728,0.35269 1.91749,-0.003 -0.3553,-0.3553 -7.02905,-1.95146 -14.83056,-3.54702 C 208.17786,751.56814 161.98663,719.6481 146.59782,672.37612 142.36886,659.38544 141.06194,650.26343 141.09962,634 c 0.0532,-22.95784 4.61513,-41.29965 16.21909,-65.21067 6.80629,-14.025 21.19719,-37.15309 30.65041,-49.2593 7.52521,-9.63713 11.73033,-13.51083 6.00315,-5.53003 -19.90913,27.7433 -32.34555,53.44357 -38.03918,78.60922 -2.19697,9.71058 -3.09793,38.64763 -1.48657,47.74612 2.77561,15.67249 9.6652,31.2348 19.15217,43.26123 5.54478,7.029 15.78789,16.85935 22.05931,21.17039 8.24178,5.66549 24.71408,15.20605 29.53471,17.10617 7.59879,2.99516 25.04293,6.37755 33.06047,6.41037 4.00914,0.0164 6.78883,0.33917 6.17709,0.71725 -1.89192,1.16927 7.71852,1.98847 20.92314,1.7835 l 12.61043,-0.19574 -10.5,-0.60851 c -6.60482,-0.38277 -8.45967,-0.68469 -5,-0.81388 7.32516,-0.27352 30.1721,-2.81043 42.04534,-4.66868 25.76626,-4.03261 51.22898,-11.17836 84.31596,-23.66209 4.32372,-1.63134 8.10533,-2.72206 8.40358,-2.42381 0.99664,0.99665 -27.08206,13.25972 -49.56842,21.64847 -19.31784,7.20671 -27.7413,8.9171 -47.40982,9.62662 -9.19235,0.3316 -16.4783,0.98327 -16.19099,1.44814 0.28731,0.46488 1.50833,0.89453 2.71337,0.9548 1.20504,0.0603 0.16598,0.54165 -2.30902,1.06975 -2.56877,0.54812 -12.48577,0.70657 -23.10785,0.36921 -15.75629,-0.50041 -20.40436,-1.02921 -30.33091,-3.45066 -12.85464,-3.13572 -14.45798,-2.5685 -2.56124,0.9061 4.125,1.20476 9.43278,3.45906 11.79506,5.00954 12.59881,8.26923 48.23677,13.61879 84.20494,12.63988 48.94983,-1.33222 101.82136,-13.14093 166.5,-37.18731 78.63669,-29.23575 153.61399,-73.63614 214.5,-127.02358 77.25335,-67.73901 125.71894,-160.19704 120.04454,-229.00953 -1.63,-19.76679 -4.85704,-32.2168 -12.1365,-46.82293 -9.94042,-19.94531 -24.9716,-35.55391 -46.22756,-48.00339 -10.27449,-6.0177 -18.99665,-9.42636 -35.18048,-13.74869 l -11,-2.93784 7.3881,0.55976 c 24.74949,1.87513 50.31333,12.20117 70.1119,28.32041 18.62128,15.16072 32.15864,38.29128 38.1587,65.19971 2.0166,9.04381 2.34104,13.20435 2.33939,30 -0.001,12.03781 -0.52032,22.37007 -1.35661,27 -2.58761,14.32566 -7.20676,32.3975 -11.75756,46 -0.27601,0.825 1.0939,-0.23774 3.04425,-2.36164 2.90474,-3.16322 4.00556,-3.74632 6.08656,-3.22402 1.78857,0.4489 3.87753,-0.14595 7.05804,-2.00986 2.48467,-1.45611 4.78721,-2.37783 5.11677,-2.04827 0.88356,0.88356 -2.23191,8.65482 -8.67693,21.64379 -7.96399,16.05022 -15.51668,28.89857 -27.9221,47.5 -13.19219,19.78115 -13.13731,19.6842 -8.99069,15.88336 3.96636,-3.6356 14.61065,-8.68033 16.21856,-7.68659 0.6082,0.37589 2.52211,0.58805 4.25314,0.47148 6.83911,-0.46059 6.63343,4.82069 -0.66628,17.10792 -22.45761,37.80175 -69.59475,88.07836 -117.40524,125.22477 -93.97081,73.0107 -215.39792,125.94771 -332.5,144.95573 -29.3556,4.76501 -52.38292,6.55407 -82.72718,6.42733 -15.27505,-0.0638 -28.44782,-0.25042 -29.27282,-0.4147 z"
       id="path4" />
    <path
       style="fill:#115a21"
       d="m 494.27634,295.31689 c 0.72187,-0.28887 1.58438,-0.25335 1.91667,0.0789 0.33229,0.33229 -0.25834,0.56864 -1.3125,0.52522 -1.16495,-0.048 -1.4019,-0.28494 -0.60417,-0.60416 z"
       id="path35" />
    <path
       style="fill:#115a21"
       d="m 390.46539,357.21774 c -0.003,-3.7322 5.75923,-17.53728 10.16794,-24.36218 14.99277,-23.20955 47.04122,-39.89162 76.53835,-39.84025 4.83569,0.008 9.46716,0.45153 10.29216,0.98469 1.08773,0.70295 0.22581,0.97358 -3.13606,0.98469 -4.28368,0.0141 -4.75873,0.27382 -6.25,3.41644 -0.88767,1.87062 -1.61394,3.74064 -1.61394,4.15561 0,0.41496 -1.0839,2.17555 -2.40867,3.91241 -1.32477,1.73686 -3.14239,4.91396 -4.03916,7.06022 -0.90481,2.16552 -4.32185,6.35048 -7.67764,9.40303 -3.32593,3.02541 -6.69093,6.74567 -7.47777,8.26724 -0.78684,1.52158 -2.8855,3.51009 -4.66369,4.41891 -1.77819,0.90883 -3.5947,2.26961 -4.0367,3.02396 -0.93586,1.59725 -7.96789,5.35749 -10.01903,5.35749 -0.77128,0 -3.15171,1.39265 -5.28984,3.09478 -3.28892,2.61826 -4.49347,3.01402 -7.82305,2.57027 -2.52883,-0.33703 -5.00967,0.0309 -6.94063,1.02948 -2.01352,1.04123 -6.15931,1.6087 -12.56445,1.71981 l -9.55937,0.16581 -1.74845,3.45993 c -1.47721,2.9232 -1.74868,3.10588 -1.75,1.17766 z"
       id="path34" />
    <path
       id="path33"
       style="fill:#115a21"
       d="m 603.08594,315.58398 c -0.30706,0.004 -0.3209,0.40136 -0.25977,1.17774 0.0864,1.09785 -1.33583,2.47455 -3.86328,3.73828 -8.75974,4.37987 -28.32613,19.36274 -32.24023,24.6875 -1.74327,2.37155 -5.44043,6.76338 -8.21485,9.75977 -3.02058,3.26225 -5.04492,6.37156 -5.04492,7.75 0,1.26611 -0.39721,2.30273 -0.88477,2.30273 -0.48755,0 -1.19535,2.1375 -1.57226,4.75 -1.83425,12.71373 -9.64938,31.07802 -20.09961,47.23242 -2.4433,3.77695 -4.44336,7.10212 -4.44336,7.38867 0,0.28654 2.1375,-0.0935 4.75,-0.8457 2.6125,-0.7522 10.15,-2.94072 16.75,-4.86133 6.6,-1.92062 20.55,-5.80509 31,-8.63281 23.91044,-6.47007 28.5,-7.94866 28.5,-9.17969 0,-0.55134 0.93983,-0.68928 2.12695,-0.3125 1.29552,0.41118 1.88677,0.28996 1.51563,-0.31054 -0.33485,-0.54181 1.21896,-2.19338 3.45312,-3.67188 5.7052,-3.77552 7.85522,-8.98425 7.88282,-19.0957 0.0121,-4.42195 -0.67178,-10.70422 -1.51953,-13.95899 -2.37492,-9.11795 -10.14965,-22.91649 -17.20899,-30.54492 -3.4375,-3.71462 -6.25,-7.02484 -6.25,-7.35547 0,-1.55665 4.31862,-0.16951 13.25,4.25782 5.3625,2.65821 9.75,4.62978 9.75,4.38085 0,-1.66864 -11.19311,-14.47203 -15.13672,-17.31445 -1.25426,-0.90401 -1.91337,-1.34618 -2.24023,-1.3418 z" />
    <path
       style="fill:#115a21"
       d="m 477.65462,485.699 c 1.69535,-1.57121 2.69551,-3.85271 3.1534,-7.19341 0.39031,-2.84762 1.54977,-5.82825 2.77416,-7.13156 1.15697,-1.23154 2.21915,-3.73201 2.36039,-5.5566 0.25374,-3.27801 0.41583,-3.3807 13.63903,-8.64166 48.25219,-19.19753 94.58644,-34.14537 131.88224,-42.54639 25.85271,-5.82343 37.52749,-7.73733 45.27796,-7.42263 l 7.22204,0.29325 0.86726,6.4755 c 0.49549,3.69959 1.50373,6.9409 2.35199,7.56116 1.73879,1.27144 4.66195,0.33727 -34.21925,10.93555 -50.45495,13.75307 -79.29631,22.53995 -128.5,39.14915 -26.675,9.00442 -48.67821,16.37323 -48.89602,16.37515 -0.21782,0.002 0.72124,-1.03196 2.0868,-2.29751 z"
       id="path32" />
    <path
       style="fill:#115a21"
       d="m 331.40611,504.10786 c 0.55696,-1.04067 2.37279,-3.03662 4.03519,-4.43544 1.6624,-1.39881 3.02254,-2.98454 3.02254,-3.52383 0,-0.53929 1.8,-2.40616 4,-4.14859 2.77979,-2.20164 4,-3.94063 4,-5.70066 0,-2.14791 0.34177,-2.43614 2.25,-1.89752 5.9943,1.69195 11.89488,2.7159 13.96147,2.42278 1.89753,-0.26914 1.30278,-0.88322 -3.48109,-3.59422 -5.98466,-3.39148 -12.7045,-9.44498 -14.77102,-13.30632 -0.99491,-1.85901 -0.95012,-2.13449 0.27088,-1.66595 0.89363,0.34292 3.76023,-1.57484 7.36634,-4.92809 9.16171,-8.51926 12.30084,-10.76632 20.81722,-14.90142 l 7.9138,-3.84252 19.11312,-0.043 c 16.68195,-0.0376 19.68209,0.20097 23.5862,1.87531 4.91064,2.106 14.97308,8.53244 14.97308,9.56266 0,0.8111 -4.70943,3.10672 -17.5,8.53041 -29.31218,12.42946 -82.40248,36.91313 -86.97251,40.10913 -2.7508,1.92374 -3.77993,1.71965 -2.58522,-0.51269 z"
       id="path31" />
    <path
       style="fill:#115a21"
       d="m 674.73079,517.42924 c -4.77096,-1.56562 -11.23843,-2.65424 -19,-3.19812 l -11.76695,-0.82456 4.35036,-1.39164 c 2.3927,-0.7654 5.0171,-2.40919 5.83199,-3.65287 0.81489,-1.24368 3.01972,-3.16875 4.89963,-4.27792 2.073,-1.2231 3.41802,-2.80104 3.41802,-4.00994 0,-1.09629 1.21658,-3.12133 2.70351,-4.50009 2.56202,-2.37563 5.24823,-8.93225 5.28131,-12.89082 0.008,-0.9992 1.10514,-3.2492 2.43732,-5 3.54495,-4.65892 4.15397,-8.15809 1.9912,-11.44057 -0.99392,-1.50849 -1.86937,-3.54437 -1.94543,-4.52417 -0.0761,-0.9798 -1.15209,-3.15267 -2.39116,-4.82861 -1.23908,-1.67593 -2.10074,-3.13762 -1.91481,-3.2482 3.1839,-1.89348 10.46004,-4.27314 21.60303,-7.06524 30.42984,-7.62481 55.97392,-11.08638 75.73503,-10.26313 15.79048,0.65783 21.28374,1.97682 22.12067,5.31139 1.03578,4.12688 -0.45369,6.77103 -5.84444,10.37525 -2.87918,1.925 -8.30809,6.2 -12.06424,9.5 -13.935,12.24272 -37.20207,30.54681 -42.31938,33.29244 -1.04093,0.55851 -7.74261,5.38908 -14.89261,10.73461 -20.39274,15.24616 -24.31857,16.4683 -38.23305,11.90219 z"
       id="path30" />
    <path
       style="fill:#115a21"
       d="m 144.62173,609 c 0,-1.375 0.22698,-1.9375 0.50439,-1.25 0.27741,0.6875 0.27741,1.8125 0,2.5 -0.27741,0.6875 -0.50439,0.125 -0.50439,-1.25 z"
       id="path29" />
    <path
       style="fill:#115a21"
       d="m 143.65879,614.5 c 0.0204,-1.65 0.2445,-2.20394 0.49804,-1.23097 0.25354,0.97297 0.23687,2.32297 -0.0371,3 -0.27393,0.67703 -0.48137,-0.11903 -0.46099,-1.76903 z"
       id="path28" />
    <path
       style="fill:#115a21"
       d="m 179.94349,636.75 c -1.79941,-4.91562 -3.47933,-19.2185 -3.47948,-29.62436 -5.2e-4,-37.64178 19.26541,-82.41544 49.96841,-116.12564 5.42438,-5.95567 7.03017,-6.05817 1.90462,-0.12157 -10.8801,12.60172 -32.0895,51.13409 -38.87228,70.62157 -7.12631,20.47444 -11.26787,50.4008 -9.37604,67.75 0.90871,8.33343 0.87109,10.27635 -0.14523,7.5 z"
       id="path27" />
    <path
       style="fill:#115a21"
       d="m 261.98663,672.94515 c -4.38747,-0.48991 -9.11247,-1.3347 -10.5,-1.87732 -1.38753,-0.54262 -4.32279,-1.2916 -6.52279,-1.66438 -5.42952,-0.92003 -12.24271,-4.19802 -14.03046,-6.7504 -5.34555,-7.63184 4.53657,-21.27163 25.55236,-35.26866 C 266.1884,620.92218 280.30708,614 283.78492,614 c 0.86746,0 1.68404,1.31914 2.01182,3.25 1.77455,10.45336 2.03945,11.00244 6.68534,13.85757 2.75969,1.69597 7.85835,3.42996 13.13271,4.46629 8.09152,1.58984 9.25884,1.59046 18.98534,0.01 5.70004,-0.92616 12.61371,-1.88802 15.36371,-2.13746 19.35651,-1.7557 22.87494,-2.54263 29.76898,-6.65806 3.72294,-2.22243 7.01199,-4.434 7.30901,-4.91459 0.29703,-0.48059 1.04492,-0.8738 1.66199,-0.8738 0.61708,0 -2.70506,3.9375 -7.38252,8.75 -8.68892,8.93977 -13.54568,15.36907 -15.71967,20.80943 -1.59504,3.99155 -5.06249,5.89018 -13.63779,7.46745 -3.85,0.70814 -13.525,3.51293 -21.5,6.23287 -14.40534,4.91305 -18.6187,5.90072 -33,7.7356 -13.3746,1.70644 -17.36766,1.8553 -25.47721,0.9498 z"
       id="path26" />
    <path
       style="fill:#115a21"
       d="m 390.34253,672.88058 c 4.60828,-2.21276 7.98328,-4.38455 7.5,-4.8262 -0.48328,-0.44165 -4.02869,-1.79299 -7.87869,-3.00298 -8.59761,-2.70207 -11.01036,-4.20386 -13.03072,-8.1108 -1.9844,-3.83742 -1.40497,-5.59744 4.39891,-13.36168 15.29251,-20.4578 57.26171,-45.99251 117.63181,-71.569 58.24776,-24.67734 108.20545,-39.14477 146.78684,-42.50856 12.40377,-1.08144 17.11698,-0.0389 22.30701,4.93397 3.55325,3.40462 4.40615,4.89461 4.40615,7.69747 0,3.46048 -3.95096,10.91397 -8.2784,15.6172 -1.13863,1.2375 -1.57658,2.25 -0.97324,2.25 1.42172,0 9.50979,-9.54688 11.64894,-13.75 1.78442,-3.50613 2.64498,-3.83292 5.73652,-2.17838 1.89012,1.01156 1.91093,1.21114 0.37126,3.56098 -0.8971,1.36915 -1.48824,2.91791 -1.31364,3.44171 0.44848,1.34546 12.79542,-6.53634 28.71879,-18.33295 43.42669,-32.17207 77.97773,-65.18822 85.27981,-81.49136 1.12964,-2.52212 2.57665,-4.25 3.55915,-4.25 0.91058,0 3.13952,-1.43828 4.9532,-3.19617 3.2315,-3.13209 3.29761,-3.14879 3.29761,-0.83304 0,2.86433 -5.50967,13.09403 -11.22754,20.84597 -11.72667,15.8983 -42.0358,45.31306 -67.72247,65.72409 -41.70749,33.14141 -107.74851,74.10548 -153.99114,95.51796 -59.63659,27.6145 -107.27491,41.82095 -167.44354,49.93413 -8.18657,1.10388 -16.73657,1.98541 -19,1.95895 l -4.11531,-0.0481 z"
       id="path25" />
    <path
       id="path24"
       style="fill:#115a21"
       d="m 624.03711,558 c -49.51031,0 -154.68758,40.49902 -195.41211,75.24414 -11.21623,9.5694 -12.88214,15.28992 -5.375,18.45117 3.12235,1.31481 6.6617,1.46262 22.21289,0.92578 10.175,-0.35124 20.075,-0.85803 22,-1.12695 l 3.5,-0.49023 -3.5,1.51757 c -1.925,0.83456 -4.625,2.20484 -6,3.04493 -1.375,0.8401 -4.525,2.41354 -7,3.49609 -2.475,1.08255 -5.4,2.39304 -6.5,2.91211 -3.42243,1.61497 5.82812,0.0944 22,-3.61719 25.41592,-5.83313 52.80548,-14.66411 78,-25.14648 26.50026,-11.02563 70.3699,-35.00942 80.3125,-43.90821 l 4.6875,-4.19531 -8,2.94141 c -4.4,1.61867 -8.4137,2.94527 -8.91992,2.94726 -0.0178,7e-5 -0.0343,-0.006 -0.0449,-0.0117 -10e-4,-7.7e-4 -0.005,-0.003 -0.006,-0.004 -9.2e-4,-9.2e-4 -0.005,-0.005 -0.006,-0.006 -7e-4,-10e-4 -0.003,-0.005 -0.004,-0.006 -0.13795,-0.2922 2.21756,-2.75256 5.4961,-5.71875 8.29488,-7.50464 14.98437,-16.59409 14.98437,-20.35938 0,-5.28741 -2.88869,-6.89062 -12.42578,-6.89062 z" />
    <path
       style="fill:#115a21"
       d="m 324.46384,681.08037 c 1.375,-0.48456 6.325,-0.93481 11,-1.00057 4.675,-0.0658 14.575,-0.77667 22,-1.5798 13.72785,-1.48489 20.68835,-1.85502 19.89106,-1.05773 -0.24324,0.24325 -6.05574,1.12237 -12.91666,1.95361 -14.66251,1.77644 -43.70855,3.00041 -39.9744,1.68449 z"
       id="path23" />
    <path
       style="fill:#115a21"
       d="m 320.56538,727.1505 c -0.96814,-0.65909 1.03195,-1.14975 6.5,-1.59458 4.34415,-0.35339 10.37346,-1.028 13.39846,-1.49912 7.11789,-1.10856 7.52315,-0.58661 1.03951,1.33882 -6.56729,1.95028 -19.10711,3.00128 -20.93797,1.75488 z"
       id="path22" />
    <path
       style="fill:#115a21"
       d="m 310.3753,800.54333 c -5.2737,-0.67415 -10.10199,-1.54305 -10.72952,-1.93089 -1.81785,-1.12349 0.52759,-3.99553 5.46599,-6.69325 2.60271,-1.42179 4.35207,-3.08924 4.35207,-4.1483 0,-1.81357 0.19029,-1.85879 9.86235,-2.34339 2.39929,-0.12021 7.23245,-0.52593 10.74036,-0.9016 6.03338,-0.64612 6.46663,-0.86977 8.01802,-4.13907 2.16664,-4.56585 4.9521,-6.38024 9.85178,-6.41724 2.69973,-0.0204 3.53298,-0.30602 2.52749,-0.86642 -0.825,-0.45981 -8.07624,-1.11994 -16.11387,-1.46696 -33.45482,-1.44438 -70.19582,-8.31733 -97.82315,-18.29926 -64.36492,-23.25546 -97.95264,-67.41018 -94.32251,-123.99722 l 0.75953,-11.83973 0.5,14.50296 c 0.45653,13.24207 0.69099,14.69371 2.69682,16.69682 1.20825,1.20662 2.93507,3.62148 3.83737,5.36634 0.90231,1.74487 3.17624,5.31005 5.05319,7.92262 1.87694,2.61256 3.41262,5.31598 3.41262,6.00758 0,2.27822 7.88074,15.58662 12.00299,20.26974 4.04925,4.60019 17.5423,15.72634 25.99701,21.43672 9.64562,6.51473 28.82551,15.35875 43,19.82769 7.975,2.51436 16.69672,5.70653 19.38159,7.09372 15.36033,7.9362 44.68532,12.71024 78.11841,12.71749 46.51783,0.0101 101.30953,-11.30014 164.39626,-33.9351 89.64844,-32.16505 176.38364,-84.40776 238.88682,-143.88729 50.13662,-47.71122 89.62859,-112.09856 101.52241,-165.52119 6.54225,-29.38537 6.04026,-59.06815 -1.38905,-82.1349 -11.07515,-34.38644 -40.32708,-62.98379 -75.76656,-74.07109 -5.14257,-1.60886 -9.17146,-3.10386 -8.9531,-3.32222 1.01942,-1.01942 19.40561,3.70465 28.95753,7.44024 37.8737,14.81172 61.6271,42.42644 71.04145,82.58987 2.68239,11.4436 3.64862,40.38879 1.8007,53.9438 -3.22409,23.6497 -12.21239,51.07847 -25.29596,77.19339 -1.89105,3.77454 -3.78482,7.97685 -4.20839,9.33845 -0.74307,2.3887 -0.6411,2.36236 2.90368,-0.75 3.07911,-2.70349 4.47381,-3.22564 8.61595,-3.22564 4.1844,0 5.19645,-0.3881 6.60067,-2.53121 3.34911,-5.1114 2.50417,-1.36916 -1.18076,5.22952 -12.21749,21.87812 -35.60712,53.57501 -57.77305,78.2922 -4.68101,5.21978 -8.34977,9.65166 -8.15281,9.84862 0.19697,0.19696 2.75124,-1.22995 5.67616,-3.17092 6.9484,-4.61092 9.29506,-5.41696 15.34998,-5.2725 5.15303,0.12294 8.4187,2.07304 9.76852,5.83329 1.90073,5.29493 -11.55577,22.14157 -38.89302,48.69147 -64.26164,62.41079 -150.44966,115.07578 -246.90743,150.87218 -40.04933,14.8627 -82.8801,26.50834 -123.5,33.57952 -19.59655,3.4114 -27.47412,4.42198 -47.9613,6.15272 -20.25187,1.71086 -28.85841,1.71462 -42.12724,0.0184 z"
       id="path3" />
    <path
       style="fill:#022d11"
       d="m 856.62173,358 c 0,-1.375 0.22698,-1.9375 0.50439,-1.25 0.27741,0.6875 0.27741,1.8125 0,2.5 -0.27741,0.6875 -0.50439,0.125 -0.50439,-1.25 z"
       id="path21" />
    <path
       style="fill:#022d11"
       d="m 856.1929,379.5 c 0.29185,-6.05 0.69721,-11.1875 0.90079,-11.41667 0.64748,-0.72884 0.20342,11.2036 -0.62954,16.91667 -0.54646,3.74808 -0.63287,1.99616 -0.27125,-5.5 z"
       id="path20" />
    <path
       style="fill:#022d11"
       d="m 536.79352,416.2845 c -0.8489,-0.58322 -0.52254,-1.87736 1.18837,-4.71222 3.37267,-5.58828 7.44194,-9.63593 14.136,-14.0609 3.21527,-2.12539 7.87095,-5.20608 10.34595,-6.84599 2.475,-1.63991 5.625,-3.98068 7,-5.20172 1.375,-1.22104 5.2,-3.68256 8.5,-5.47006 3.3,-1.78749 6.675,-3.81227 7.5,-4.49951 0.825,-0.68723 4.31678,-2.23537 7.75951,-3.44031 5.84165,-2.04454 6.4694,-2.08608 9.40364,-0.62229 1.72927,0.86268 3.67155,1.5685 4.31617,1.5685 1.70493,0 5.52068,4.34846 5.52068,6.2914 0,1.52379 4.64149,5.48448 5.38373,4.59406 0.17672,-0.212 0.82399,-1.28546 1.43838,-2.38546 0.7807,-1.39776 1.12455,-1.54832 1.1419,-0.5 0.047,2.83727 -2.16505,9.50255 -3.74236,11.27649 -0.86876,0.97707 -6.11154,3.149 -11.65061,4.82652 -17.36482,5.25897 -42.9213,13.99538 -46.57104,15.92019 -1.925,1.01521 -5.075,2.11252 -7,2.43847 -7.37736,1.24917 -13.54614,1.59517 -14.67032,0.82283 z"
       id="path19" />
    <path
       style="fill:#022d11"
       d="m 565.54805,454.80178 c 1.4403,-1.18353 1.42245,-1.56813 -0.19648,-4.23388 -0.97937,-1.61265 -1.56106,-3.28744 -1.29264,-3.72175 0.26842,-0.43431 -0.27257,-1.95048 -1.20218,-3.36925 -1.18184,-1.80372 -2.00643,-2.26338 -2.74156,-1.52825 -1.55429,1.55429 -2.95144,1.27577 -2.28694,-0.45589 0.47846,-1.24685 -0.15092,-1.40867 -3.64302,-0.93664 -18.146,2.4528 49.40206,-18.39206 81.09399,-25.02504 7.97311,-1.66874 14.52051,-2.03084 12.40075,-0.68582 -0.70776,0.44909 -0.9963,1.56404 -0.64301,2.48469 0.43285,1.12798 0.12544,1.67005 -0.94708,1.67005 -1.51183,0 -2.38887,2.10347 -2.71018,6.5 -0.32793,4.487 0.1126,5.37043 2.83414,5.68358 1.85566,0.21351 -1.4778,1.5485 -10.25,4.10492 -7.15,2.08368 -25.375,7.39489 -40.5,11.80269 -33.82696,9.85802 -31.936,9.37064 -29.91579,7.71059 z"
       id="path18" />
    <path
       style="fill:#022d11"
       d="m 665.8225,508.49228 c -0.31821,-0.82925 0.14592,-2.61341 1.03139,-3.96482 0.88547,-1.3514 1.62426,-3.26043 1.64175,-4.24228 0.0175,-0.98185 0.6925,-2.65869 1.5,-3.72631 0.80751,-1.06762 1.4682,-3.10499 1.4682,-4.52749 0,-1.4225 0.72442,-3.62063 1.60983,-4.88472 1.02675,-1.46589 1.40153,-3.33988 1.03472,-5.17389 -0.35025,-1.75127 0.14515,-4.55618 1.26711,-7.17415 1.76538,-4.11934 1.97679,-9.12792 0.8279,-19.61413 -0.26101,-2.38231 0.12507,-3.57686 1.37167,-4.24402 2.63599,-1.41074 32.13702,-8.51005 42.88877,-10.32101 16.38792,-2.7603 30.14058,-3.8893 40.5,-3.32478 9.34905,0.50946 16.50299,2.05022 16.4977,3.55315 -10e-4,0.35869 -2.58876,1.91438 -5.75,3.45708 -3.16123,1.5427 -9.5727,5.94756 -14.2477,9.78859 -10.6278,8.7319 -40.33938,31.05136 -49,36.80899 -3.575,2.37668 -6.95152,4.88013 -7.50337,5.56322 -1.36102,1.68468 -16.55139,8.86195 -24.21508,11.44133 -7.37315,2.4816 -10.13833,2.62975 -10.92289,0.58524 z"
       id="path17" />
    <path
       style="fill:#022d11"
       d="m 585.96384,561 c 1.1,-0.47269 2.9,-0.8462 4,-0.83003 1.60779,0.0236 1.50973,0.1864 -0.5,0.83003 -3.41917,1.09501 -6.04822,1.09501 -3.5,0 z"
       id="path16" />
    <path
       style="fill:#022d11"
       d="m 590.46384,614.57005 c 0,-0.23648 3.4875,-2.34738 7.75,-4.6909 22.75399,-12.51012 36.30219,-22.03225 56.30237,-39.5712 11.06884,-9.7067 21.94763,-21.80455 21.94763,-24.40703 0,-1.25599 2.74009,-1.13049 3.53894,0.16209 0.36134,0.58466 -0.0621,1.85759 -0.94098,2.82874 -2.00559,2.21616 -2.05568,4.10825 -0.10877,4.10825 0.81906,0 7.00656,-3.72193 13.75,-8.27095 45.46277,-30.6685 86.88652,-67.7126 100.16957,-89.57885 2.49937,-4.1144 4.37411,-6.1502 5.66364,-6.1502 5.38976,0 -0.0449,6.78473 -25.63225,32 -26.89234,26.50124 -28.87674,28.52065 -32.07015,32.63598 -1.3384,1.7248 -4.33167,4.41325 -6.65173,5.97435 -2.32005,1.56109 -7.14327,5.857 -10.71827,9.54645 -10.10697,10.43053 -50.19381,38.67144 -79.5,56.00721 C 618.20368,600.40215 592.30682,615 591.03421,615 c -0.3137,0 -0.57037,-0.19348 -0.57037,-0.42995 z"
       id="path15" />
    <path
       style="fill:#022d11"
       d="m 553.46384,632 c 0.825,-0.53316 1.95,-0.96937 2.5,-0.96937 0.55,0 0.325,0.43621 -0.5,0.96937 -0.825,0.53316 -1.95,0.96937 -2.5,0.96937 -0.55,0 -0.325,-0.43621 0.5,-0.96937 z"
       id="path14" />
    <path
       style="fill:#022d11"
       d="m 350.96384,642 c 0.33992,-0.55 1.74303,-1 3.11803,-1 1.41203,0 2.23104,0.43519 1.88197,1 -0.33992,0.55 -1.74303,1 -3.11803,1 -1.41203,0 -2.23104,-0.43519 -1.88197,-1 z"
       id="path13" />
    <path
       style="fill:#022d11"
       d="m 397.96384,663.34076 c -1.1,-0.28773 -4.5594,-1.65595 -7.68757,-3.0405 -29.55286,-13.08028 23.06623,-52.84182 124.18757,-93.84215 47.58168,-19.29231 93.31189,-32.30833 124.94108,-35.56151 12.86111,-1.32281 18.32369,-0.52792 25.80892,3.75559 4.6935,2.68591 5.4458,4.8294 2,5.69846 -1.2375,0.31211 -4.25642,2.38538 -6.70871,4.60727 -2.45229,2.22188 -5.26479,4.29563 -6.25,4.60832 -0.98521,0.3127 -1.79129,0.91317 -1.79129,1.3344 0,0.42122 -3.375,2.29566 -7.5,4.16542 -4.125,1.86976 -7.5,3.77031 -7.5,4.22345 0,0.45315 -1.00013,0.12338 -2.22251,-0.73281 -2.89398,-2.02702 -17.54001,-2.05932 -31.27749,-0.069 -12.22816,1.77168 -11.76781,1.75462 -10.93379,0.40514 0.45826,-0.74148 -0.003,-0.88905 -1.39625,-0.44681 -2.14627,0.6812 -8.23137,1.83259 -18.66996,3.53264 -10.48449,1.70753 -26.65642,5.70788 -37.5,9.27616 -10.12592,3.33211 -33.14831,13.01671 -35.78146,15.05182 -0.7048,0.54473 -4.0798,2.41438 -7.5,4.15476 -11.35881,5.78 -17.75293,9.7343 -18.74855,11.59464 -0.54144,1.01169 -5.59369,4.42422 -11.22721,7.5834 -20.50181,11.49704 -40.05053,26.18739 -43.35721,32.58181 -3.26411,6.31208 0.49391,10.35903 11.46735,12.34903 4.73609,0.85888 5.6623,1.23766 3.22167,1.31755 -1.88397,0.0617 -6.83397,1.79914 -11,3.86105 -6.50887,3.22145 -8.62982,3.77466 -15.07459,3.93195 -4.125,0.10067 -8.4,-0.0524 -9.5,-0.34011 z"
       id="path12" />
    <path
       style="fill:#022d11"
       d="m 246.63316,667.02685 c -4.45162,-1.07893 -8.6186,-5.24536 -10.061,-10.05965 -1.02585,-3.42399 -0.90067,-4.61546 0.96663,-9.20029 3.6421,-8.94256 17.18647,-20.17792 34.09079,-28.2791 8.76867,-4.20227 11.10333,-4.44888 10.668,-1.12684 -0.17016,1.29854 0.16884,2.98604 0.75335,3.75 0.58451,0.76397 1.59348,3.24774 2.24216,5.5195 0.91257,3.19595 1.91073,4.4334 4.41171,5.46934 1.77777,0.73637 4.13832,2.35483 5.24567,3.59658 2.86863,3.21677 12.74198,4.51576 31.51337,4.14607 8.525,-0.16789 16.11275,0.0815 16.86167,0.55417 1.9924,1.25753 -4.19084,4.9268 -8.11437,4.81525 -1.69924,-0.0483 -4.14274,0.74062 -5.43001,1.75318 -1.28726,1.01256 -4.69776,2.36774 -7.57889,3.01151 -2.88112,0.64378 -7.72771,2.24357 -10.77019,3.55511 -6.6698,2.87519 -19.27127,5.85786 -31.39833,7.43176 -4.91156,0.63744 -9.68389,1.56239 -10.60517,2.05545 -0.92128,0.49305 -4.77772,1.3887 -8.56988,1.99033 -3.79216,0.60163 -7.79483,1.25835 -8.89483,1.45938 -1.1,0.20102 -3.4988,0.002 -5.33068,-0.44175 z"
       id="path11" />
    <path
       style="fill:#022d11"
       d="m 410.46384,671.79583 c 1.375,-0.68122 2.8494,-1.79527 3.27645,-2.47567 0.42704,-0.6804 1.41531,-0.99194 2.19615,-0.6923 0.78083,0.29963 7.40643,-0.211 14.72355,-1.13475 20.23399,-2.55442 49.90315,-9.67554 77.256,-18.5428 8.23704,-2.67028 15.12675,-4.70475 15.31046,-4.52103 0.4717,0.4717 -22.58395,8.8405 -32.76261,11.89226 -26.33499,7.89574 -57.10407,14.42498 -76,16.12729 -5.60555,0.505 -6.15598,0.41515 -4,-0.653 z"
       id="path10" />
    <path
       style="fill:#022d11"
       d="m 430.27634,778.31689 c 0.72187,-0.28887 1.58438,-0.25335 1.91667,0.0789 0.33229,0.33229 -0.25834,0.56864 -1.3125,0.52522 -1.16495,-0.048 -1.4019,-0.28494 -0.60417,-0.60416 z"
       id="path9" />
    <path
       style="fill:#022d11"
       d="m 434.64211,782.7148 c -0.74948,-0.90306 -1.00062,-2.57444 -0.61669,-4.10412 0.54913,-2.18793 0.2133,-2.74689 -2.20694,-3.67333 l -2.85464,-1.09271 2.1921,-1.78573 c 1.46617,-1.19437 2.01192,-2.47472 1.64802,-3.86629 -0.43831,-1.67608 0.18602,-2.38562 3.21144,-3.64972 2.06554,-0.86303 3.51734,-1.80734 3.22622,-2.09845 -0.63407,-0.63407 -14.61731,0.85385 -27.77778,2.95575 -28.38655,4.53372 -69.74849,6.09153 -96,3.61564 C 276.70881,765.36069 243.44333,756.8913 217.41082,744.05155 207.45855,739.14289 199.15029,734 201.17269,734 c 0.64521,0 1.45123,0.45 1.79115,1 1.20766,1.95404 3.2585,0.95749 3.82138,-1.85689 0.5055,-2.52753 1.18279,-2.9788 5.875,-3.91443 3.00014,-0.59823 5.44415,-0.67311 5.62719,-0.17241 0.17796,0.48683 0.9139,0.33582 1.63542,-0.33557 1.06787,-0.99366 0.8217,-1.54496 -1.32356,-2.96411 -4.02224,-2.66083 -1.23822,-2.11196 8.88753,1.75217 5.05699,1.92982 13.45477,4.59056 18.66174,5.91275 5.20696,1.32219 9.99553,3.04821 10.64125,3.83561 1.45854,1.77855 12.4344,5.3757 23.67405,7.75876 43.33063,9.18709 98.15741,6.14252 155,-8.60727 110.6021,-28.69957 211.83006,-81.5279 292.79894,-152.8044 49.69729,-43.74828 91.37743,-103.20633 108.72817,-155.10421 1.47103,-4.4 3.90618,-9.575 5.41143,-11.5 3.50626,-4.48397 5.14679,-7.58133 4.40723,-8.3209 -0.8906,-0.8906 2.50034,-3.89224 3.61724,-3.20196 0.5381,0.33256 1.27409,-0.65125 1.63554,-2.18624 2.01977,-8.57748 3.27752,-12.51705 3.33564,-10.44798 0.131,4.66367 -4.12351,22.72109 -8.45378,35.88034 -7.0902,21.54644 -14.86824,36.69266 -41.45378,80.72318 -1.791,2.96623 -0.94153,4.11357 1.91411,2.58527 1.71466,-0.91765 2.64205,-0.75291 4.92906,0.87558 2.13228,1.51831 3.09815,1.72476 3.97361,0.8493 0.63612,-0.63612 1.15659,-0.72894 1.15659,-0.20625 0,1.48305 -11.77109,16.78182 -22.63754,29.42176 -38.04862,44.25848 -96.5088,93.36418 -148.11246,124.4123 -3.4375,2.06822 -6.25,3.94169 -6.25,4.16325 0,0.92729 5.3306,-1.7434 11.69107,-5.85735 3.74491,-2.42221 12.65893,-8.09792 19.80893,-12.61268 7.15,-4.51476 17.05,-11.08303 22,-14.59614 4.95,-3.51312 10.8,-7.66651 13,-9.22977 5.307,-3.77101 16.674,-8.25171 20.9336,-8.25171 2.43114,0 4.24539,0.83284 6.30848,2.89593 2.15338,2.15338 3.55813,2.76934 5.47851,2.40223 1.99046,-0.3805 2.73545,-0.012 3.24935,1.60714 0.39243,1.23641 0.12432,2.65226 -0.65158,3.44099 -0.7251,0.73709 -3.2028,3.39521 -5.506,5.90694 -11.7742,12.84021 -50.79363,40.96433 -87.31236,62.93234 -51.8147,31.16936 -118.93381,60.13953 -175.5,75.74988 -8.25,2.27672 -17.475,4.85733 -20.5,5.7347 -8.34048,2.41906 -17.26977,2.91465 -18.82173,1.04465 z"
       id="path8" />
    <path
       style="fill:#022d11"
       d="m 564.46384,710 c 0.825,-0.53316 1.05,-0.96937 0.5,-0.96937 -0.55,0 -1.675,0.43621 -2.5,0.96937 -0.825,0.53316 -1.05,0.96937 -0.5,0.96937 0.55,0 1.675,-0.43621 2.5,-0.96937 z"
       id="path2" />
  </g>
</svg>
