<svg xmlns="http://www.w3.org/2000/svg" version="1.1" viewBox="-5.0 -10.0 110.0 135.0">
 <path d="m27.496 52.359c-0.59766 1.6133-0.54688 3.4141 0.20703 5 0.73047 1.5898 2.0312 2.8125 3.6719 3.3867 0.078125 0.027344 0.15625 0.050781 0.26172 0.078125v25.453c0 2.1367-1.7188 3.8555-3.8555 3.8555-2.1094 0-3.8281-1.7188-3.8281-3.8555v-26.285c0-0.85938-0.70312-1.5625-1.5625-1.5625s-1.5625 0.70312-1.5625 1.5625v26.285c0 2.1367-1.7188 3.8555-3.832 3.8555-2.1367 0-3.8555-1.7188-3.8555-3.8555v-44.262l-3.8828 10.473c-0.67969 1.8242-2.6562 2.7344-4.4805 2.0586-1.7969-0.65234-2.7344-2.6562-2.0586-4.4531l5.8633-15.863c1.043-2.8398 3.3359-4.9492 6.1211-5.8359h0.027344c2.4219 3.0742 5.3164 5.1836 7.6328 5.1836 2.3203 0 5.2109-2.1094 7.6328-5.1836 2.3164 0.70312 4.2969 2.293 5.5234 4.4023-0.91016 1.0938-1.6406 2.3438-2.1602 3.7266l-5.8633 15.84z"/>
 <path d="m22.363 30.523c2.8164 0 9.3789-7.707 9.3789-14.535 0-6.8242-4.1992-9.4609-9.3789-9.4609-5.1797 0-9.3789 2.6367-9.3789 9.4609s6.5625 14.535 9.3789 14.535zm2.5195-13.926c1.375-1.375 3.1641-1.8164 4-0.98438 0.83203 0.83203 0.39063 2.6211-0.98437 4-1.375 1.375-3.1641 1.8164-3.9961 0.98438-0.83203-0.83203-0.39453-2.6211 0.98438-3.9961zm-9.0352-0.98438c0.83203-0.83203 2.6211-0.39062 3.9961 0.98438s1.8164 3.1641 0.98438 3.9961-2.6211 0.39062-3.9961-0.98438-1.8164-3.1641-0.98438-4z"/>
 <path d="m95.879 54.262c-0.57422 0.33984-1.2266 0.51953-1.8516 0.51953-1.4062 0-2.7344-0.88672-3.2578-2.293l-3.8555-10.473v44.262c0 2.1367-1.7188 3.8555-3.8555 3.8555-2.1094 0-3.8555-1.7188-3.8555-3.8555v-26.285c0-0.85938-0.67578-1.5625-1.5391-1.5625-0.85937 0-1.5625 0.70312-1.5625 1.5625v26.285c0 2.1367-1.7188 3.8555-3.8555 3.8555-2.1094 0-3.8281-1.7188-3.8281-3.8555v-25.453c0.46875-0.15625 0.96484-0.36328 1.4062-0.625 2.6562-1.668 3.7773-5 2.6562-7.9453l-5.8086-15.734c-0.49609-1.3789-1.2227-2.6055-2.1602-3.6992 1.1992-2.1367 3.1797-3.6992 5.4961-4.4297 2.3984 3.0742 5.3164 5.1836 7.6328 5.1836s5.2344-2.1367 7.6602-5.2109c2.7852 0.88672 5.1055 3.0234 6.1484 5.8633l5.8086 15.762c0.59766 1.5625 0.050782 3.3867-1.3789 4.2734z"/>
 <path d="m77.641 30.523c2.8164 0 9.3789-7.707 9.3789-14.535 0-6.8242-4.1992-9.4609-9.3789-9.4609s-9.3789 2.6367-9.3789 9.4609 6.5625 14.535 9.3789 14.535zm2.5156-13.926c1.375-1.375 3.1641-1.8164 4-0.98438 0.83203 0.83203 0.39062 2.6211-0.98438 4-1.375 1.375-3.1641 1.8164-3.9961 0.98438-0.83203-0.83203-0.39453-2.6211 0.98438-3.9961zm-9.0352-0.98438c0.83203-0.83203 2.6211-0.39062 3.9961 0.98438s1.8164 3.1641 0.98437 3.9961c-0.83203 0.83203-2.6211 0.39062-3.9961-0.98438s-1.8164-3.1641-0.98438-4z"/>
 <path d="m68.266 57.598c-0.59766 0.33984-1.25 0.51953-1.8477 0.51953-1.4336 0-2.7617-0.88672-3.2578-2.293l-3.8828-10.473v44.262c0 2.1367-1.7188 3.8555-3.8555 3.8555-2.1094 0-3.8281-1.7188-3.8281-3.8555v-26.285c0-0.85938-0.70312-1.5625-1.5625-1.5625s-1.5625 0.70312-1.5625 1.5625v26.285c0 2.1367-1.7188 3.8555-3.8555 3.8555-2.1094 0-3.8281-1.7188-3.8281-3.8555v-44.262l-3.8828 10.473c-0.67578 1.8242-2.6562 2.7344-4.4805 2.0586-1.7969-0.65234-2.7344-2.6562-2.0586-4.4531l5.8633-15.867c1.043-2.8398 3.3359-4.9492 6.1211-5.8359 2.4492 3.0742 5.3398 5.1836 7.6602 5.1836 2.3164 0 5.2109-2.1094 7.6602-5.1836 2.8125 0.88672 5.1055 3.0234 6.1484 5.8359l5.8359 15.785c0.57422 1.5352 0.027344 3.3594-1.3789 4.2461z"/>
 <path d="m50 33.863c2.8164 0 9.3789-7.707 9.3789-14.535 0-6.8242-4.1992-9.4609-9.3789-9.4609s-9.3789 2.6367-9.3789 9.4609 6.5625 14.535 9.3789 14.535zm2.5195-13.93c1.375-1.375 3.1641-1.8164 4-0.98438 0.83203 0.83203 0.39062 2.6211-0.98438 4-1.375 1.375-3.1641 1.8164-3.9961 0.98438-0.83203-0.83203-0.39453-2.6211 0.98438-3.9961zm-9.0352-0.98438c0.83203-0.83203 2.6211-0.39062 3.9961 0.98438s1.8164 3.1641 0.98438 3.9961c-0.83203 0.83203-2.6211 0.39062-3.9961-0.98438s-1.8164-3.1641-0.98438-4z"/>
<text x="0.0" y="117.5" font-size="5.0" font-weight="bold" font-family="Arbeit Regular, Helvetica, Arial-Unicode, Arial, Sans-serif" fill="#000000">Created by Adrien Coquet</text><text x="0.0" y="122.5" font-size="5.0" font-weight="bold" font-family="Arbeit Regular, Helvetica, Arial-Unicode, Arial, Sans-serif" fill="#000000">from Noun Project</text></svg>