<svg xmlns="http://www.w3.org/2000/svg" version="1.1" viewBox="-5.0 -10.0 110.0 135.0">
 <path d="m74.996 20.461c-6.0977-6.6992-14.438-10.434-23.406-10.832-0.60156-0.023437-1.1289-0.039062-1.5898-0.039062s-0.98828 0.015625-1.5859 0.039062c-8.9727 0.39844-17.312 4.1328-23.406 10.832-6.0664 6.668-9.8945 16.242-9.8945 28.344 0 0.78125 0.023438 1.6445 0.066407 2.5977 0.28906 6.5586 5.9297 17.977 13.656 26.691 6.1836 6.9727 13.758 12.316 21.164 12.316s14.984-5.3438 21.164-12.316c7.7266-8.7188 13.371-20.137 13.66-26.691 0.039062-0.95312 0.058593-1.8164 0.058593-2.5977 0.003907-12.102-3.8242-21.68-9.8867-28.344zm-37.832 46.996c-10.652-2.4609-18.223-11.555-14.023-22.77 3.0586-6.1797 16.629 8.4688 18.309 10.184 1.5195 1.5508 2.8594 3.0977 3.832 4.5312 1.0898 1.6055 1.7422 3.1172 1.7422 4.4258 0 0.98828-0.32813 1.8477-1.0469 2.5508-1.6211 1.5898-5.0586 1.9492-8.8125 1.0781zm9.9883 6.6914c-0.97656 0-1.7695-0.79297-1.7695-1.7695 0-0.97656 0.79297-1.7695 1.7695-1.7695 0.97656 0 1.7695 0.79297 1.7695 1.7695 0 0.97656-0.79297 1.7695-1.7695 1.7695zm-27.797-18.797c0.011719 0.22656 0.027343 0.45703 0.050781 0.69531-0.56641-1.7852-0.89844-3.4102-0.95703-4.7852-0.035157-0.75781-0.050781-1.5781-0.050781-2.4609 0-11.23 3.4961-20.051 9.0312-26.137 3.9609-4.3555 8.9727-7.3203 14.496-8.7734 2.1445-0.5625 4.3633-0.89844 6.6289-1 0.40625-0.019531 0.89062-0.027344 1.4492-0.027344s1.0391 0.007813 1.4453 0.027344c2.2656 0.10156 4.4883 0.43359 6.6289 1 4.5469 1.1953 8.7461 3.4141 12.297 6.5898-5.2266-3.4414-11.383-5.2383-17.832-5.2383-18.328 0.007812-34.312 14.512-33.188 40.109zm33.492 18.797c-0.97656 0-1.7695-0.79297-1.7695-1.7695 0-0.97656 0.79297-1.7695 1.7695-1.7695 0.97656 0 1.7695 0.79297 1.7695 1.7695 0 0.97656-0.79297 1.7695-1.7695 1.7695zm10.078-6.6914c-3.7539 0.87109-7.1914 0.51172-8.8125-1.0781-0.71875-0.70312-1.0469-1.5625-1.0469-2.5508 0-1.3125 0.65234-2.8242 1.7422-4.4258 0.97266-1.4336 2.3086-2.9805 3.832-4.5312 1.6797-1.7148 15.25-16.363 18.309-10.184 4.1992 11.215-3.3711 20.309-14.023 22.77z" fill-rule="evenodd"/>
<text x="0.0" y="117.5" font-size="5.0" font-weight="bold" font-family="Arbeit Regular, Helvetica, Arial-Unicode, Arial, Sans-serif" fill="#000000">Created by Azland Studio</text><text x="0.0" y="122.5" font-size="5.0" font-weight="bold" font-family="Arbeit Regular, Helvetica, Arial-Unicode, Arial, Sans-serif" fill="#000000">from Noun Project</text></svg>