<svg xmlns="http://www.w3.org/2000/svg" xmlns:xlink="http://www.w3.org/1999/xlink" xmlns:xodm="http://www.corel.com/coreldraw/odm/2003" xml:space="preserve" version="1.1" style="shape-rendering:geometricPrecision;text-rendering:geometricPrecision;image-rendering:optimizeQuality;" viewBox="0 0 100000 125000" x="0px" y="0px" fill-rule="evenodd" clip-rule="evenodd"><defs><style type="text/css">
   
    .fil0 {fill:black;fill-rule:nonzero}
   
  </style></defs><g><path class="fil0" d="M62012.3 81232.74c6.9,-2.69 13.83,-5.21 20.79,-7.54 0.36,-1 0.63,-2.09 0.8,-3.31 71.8,-546.94 215.95,-1246.32 390.41,-1948.83 184.47,-742.92 404.73,-1498.06 610.51,-2086.64 165.2,-472.51 374.56,-712.76 704.1,-720.59 295.87,-7.06 534.69,202.59 783.49,629.08 66.09,113.32 244.35,409.96 474.95,793.73 248.39,413.37 555.35,924.2 835.53,1393.53l36.01 60.32c820.21,1373.71 901.5,1509.87 890.86,2502.83 -5.61,524.29 142.29,831.67 332.57,949.95 54.17,33.68 111.35,48.87 166.04,46.1 55.49,-2.81 112.63,-24.46 165.77,-64.33 183.33,-137.59 307.44,-456.07 254.86,-957.82 -19.53,-186.3 -92.72,-457.7 -189.41,-755.36 -105.29,-324.06 -230.49,-656.99 -346.99,-949.31 -225.51,-565.87 -490.2,-1131.01 -754.46,-1695.24 -334.58,-714.39 -668.54,-1427.42 -933.02,-2157.78 -93.58,-258.44 -163.63,-493.86 -230.6,-719.05 -287.67,-967.08 -511.88,-1720.32 -2511.03,-2755.34 -96.8,-46.32 -177.54,-127.1 -221.93,-234 -95.62,-230.27 13.54,-494.47 243.81,-590.1 460.84,-191.77 884.2,-670.81 1163.65,-1254 167.91,-350.39 280.58,-733.65 315.86,-1111.85 33.81,-362.43 -4.09,-718.47 -134.31,-1031.4 -144.95,-348.31 -411.09,-648.96 -830.02,-849.7 -283.34,-135.78 -592.14,-176.12 -896.74,-129.68 -301.19,45.93 -598.86,177.93 -865.52,387.81 -277.47,218.39 -520.1,518.46 -698.98,891.75 -285.72,596.25 -411.55,1380.17 -267.71,2323.47 37.08,246.86 -132.98,477.05 -379.84,514.13 -56.47,8.48 -112.09,6.09 -164.7,-5.55 -735.59,-129.68 -1296.67,-408.66 -1767.78,-770.2 -459.88,-352.9 -819.64,-774.14 -1173.58,-1208.65 -14.34,-17.61 -14.89,-17.19 -46.45,-54.76 -55.14,-65.64 -119.39,-142.09 -183,-232.66 -272.65,-388.16 -440.73,-858.6 119.77,-1252.31 438.86,-308.26 883.33,-800.94 1291.36,-1253.23 176.04,-195.12 345.51,-382.97 525.96,-567.11 363.78,-371.24 607.35,-503.81 888.19,-656.68 129.59,-70.53 268.93,-146.38 437.29,-262.77 224.79,-155.4 394.14,-312.33 514.01,-466.08 135.07,-173.23 203.03,-337.61 213.89,-485.14 9.49,-128.78 -25.84,-249.62 -98.17,-354.23 -43.17,-62.45 -99.34,-120.82 -167.13,-173.68 -9.44,-7.35 -22.24,-15.71 -38.25,-24.98 -131.58,-76.19 -327.46,-81.64 -552.39,-3.56 -276.61,96.01 -579.15,313.65 -860.94,675.06 -85.93,110.22 -170.89,236.36 -253.68,379.34 -134.42,232.15 -302.85,462.28 -487.85,681.81 -211.56,251.03 -437.28,480.29 -654.15,678.28 -285.03,260.22 -607.52,522.14 -954.42,778.45 -361.64,267.2 -738.43,520.88 -1117.01,753.67 -338.33,208.02 -535.35,376.89 -581.79,557.83 -51.52,200.7 35.35,495.89 266.66,954.19 161.51,320.02 415.64,731.9 725.36,1178.34 302.35,435.81 659.65,906.16 1037.97,1358.33 738.19,882.3 568.13,1333.08 123.27,2512.26l-50.52 134.12c-194.52,517.63 -476.22,1418.76 -735.17,2334.42 -239.73,847.72 -458.25,1702.28 -567.68,2268.82 -2.43,15.17 -5.66,30.36 -9.71,45.52 -5.02,18.76 -0.74,39.82 11.87,62.9 28.36,5.48 56.62,13.75 84.4,25 112.36,45.51 196.45,131.11 242.48,233.6 350.46,203.31 937.89,456.75 1603.12,707.97 653.95,246.94 1382.5,466.88 2070.12,627.73 678.37,158.68 1305.25,258.05 1765.49,266.35 217.51,3.92 361.57,80.62 413.71,86.77zm-2199.47 -48771.54c-145.18,-261.1 -51.21,-590.48 209.89,-735.67 261.1,-145.18 590.49,-51.21 735.67,209.89l31950.75 57241.96c145.18,261.11 51.21,590.49 -209.9,735.67 -261.1,145.19 -590.48,51.22 -735.66,-209.89l-31950.75 -57241.96zm2182.18 14009.48c-92.88,-176.42 -25.18,-394.75 151.24,-487.64 176.41,-92.88 394.75,-25.18 487.63,151.24l12645.95 23888.28c92.88,176.41 25.18,394.74 -151.24,487.63 -176.41,92.88 -394.75,25.18 -487.63,-151.24l-12645.95 -23888.27zm-34103.64 -4544.85c15.21,-298.57 269.62,-528.28 568.19,-513.07 298.57,15.21 528.28,269.62 513.07,568.19l-2595.87 47563.04c-15.21,298.57 -269.61,528.28 -568.18,513.07 -298.58,-15.21 -528.28,-269.62 -513.07,-568.19l2595.86 -47563.04zm4911.76 9503.62c10.15,-199.05 179.74,-352.19 378.79,-342.05 199.05,10.15 352.19,179.74 342.05,378.79l-1402.97 26848c-10.14,199.05 -179.73,352.19 -378.78,342.05 -199.06,-10.14 -352.2,-179.74 -342.05,-378.79l1402.96 -26848zm11526.9 -37432.35c-245.89,41.95 -479.25,-123.37 -521.2,-369.25 -41.95,-245.89 123.37,-479.25 369.25,-521.2 1044.47,-180.78 2113.95,-326.84 3199.58,-426.66 1077.08,-99.03 2159.88,-150.3 3237.27,-141.97 248.81,0.96 449.72,203.47 448.75,452.28 -0.96,248.82 -203.47,449.73 -452.28,448.76 -1048,-8.09 -2102.5,41.89 -3152.47,138.43 -1041.43,95.74 -2088.84,239.58 -3128.9,419.61zm9192.11 -367.01c-246.85,-32.19 -420.88,-258.42 -388.68,-505.28 32.19,-246.86 258.42,-420.88 505.28,-388.69 383.05,50.53 746.47,108.86 1089.32,174.86 349.54,67.29 689.33,144.23 1018.46,230.67 241.01,63.42 384.96,310.22 321.54,551.23 -63.42,241.01 -310.22,384.97 -551.23,321.55 -304.72,-80.03 -624.47,-152.25 -958.37,-216.54 -342.15,-65.87 -687.87,-121.84 -1036.32,-167.8zm-1745.31 -7336.08c-424.07,787.93 -370.55,1652.72 119.54,1931.55 490.1,278.83 1231.18,-133.88 1655.26,-921.81 424.07,-787.94 370.55,-1652.73 -119.54,-1931.56 -490.1,-278.84 -1231.18,133.88 -1655.26,921.82zm11791.27 2266.89c-548.43,706.98 -722.66,1498.94 -389.16,1768.93 333.5,269.97 1048.43,-84.28 1596.85,-791.25 548.41,-706.97 722.64,-1498.95 389.15,-1768.93 -333.5,-269.97 -1048.43,84.28 -1596.84,791.25zm3702.65 5675.39c-593.99,668.82 -895.87,1372.58 -674.24,1571.89 221.61,199.3 882.8,-181.31 1476.79,-850.14 593.99,-668.81 895.86,-1372.57 674.25,-1571.88 -221.63,-199.32 -882.81,181.31 -1476.8,850.13zm-32075.59 -5847.51c749.08,-230.84 1543.47,189.28 1774.3,938.38 230.84,749.08 -189.29,1543.47 -938.38,1774.31 -749.09,230.82 -1543.48,-189.3 -1774.31,-938.39 -230.83,-749.09 189.29,-1543.48 938.39,-1774.3zm-14592.68 7511.65c794.01,412.59 1236.52,1157.5 988.37,1663.83 -248.15,506.32 -1092.99,582.32 -1887.01,169.74 -794,-412.58 -1236.52,-1157.5 -988.37,-1663.82 248.15,-506.33 1092.99,-582.32 1887.01,-169.75zm-8470.19 8510.51c851.22,275.67 1441,832.21 1317.3,1243.07 -123.69,410.86 -914.01,520.46 -1765.23,244.79 -851.22,-275.67 -1441,-832.22 -1317.3,-1243.08 123.68,-410.86 914.01,-520.45 1765.23,-244.78zm133.98 6775.08c867.42,218.49 1513.04,630.27 1442.05,919.75 -71,289.48 -831.74,347.03 -1699.16,128.54 -867.42,-218.48 -1513.05,-630.27 -1442.05,-919.75 71,-289.47 831.73,-347.03 1699.16,-128.54zm26402.51 -11624c3075.66,-944.44 6018.65,-1306.46 8293.06,-1127.95 2445.55,191.96 4178.68,1026.24 4619.66,2457.35 440.64,1429.95 -522.39,3094.43 -2435.63,4629.5 -1786.18,1433.14 -4433.19,2794.82 -7517.61,3745.29l-10.61 4.24 -0.33 -0.89c-3081.63,948.33 -6031.17,1311.93 -8309.71,1133.1 -2445.57,-191.95 -4178.71,-1026.24 -4619.7,-2457.34 -440.65,-1429.97 522.41,-3094.44 2435.64,-4629.52 1786.21,-1433.15 4433.24,-2794.82 7517.67,-3745.3l27.56 -8.48zm290.54 1043.07l-1.61 0.49c-2951.07,909.56 -5469.51,2201.1 -7155.72,3554.02 -1559.45,1251.21 -2375.82,2505.99 -2079.47,3467.7 296,960.6 1676.78,1537.67 3669.89,1694.1 2157.42,169.34 4967.14,-180.54 7917.76,-1089.78l10.6 -4.23 0.32 0.84c2947.04,-909.4 5461.95,-2199.62 7146.35,-3551.1 1559.45,-1251.21 2375.8,-2505.98 2079.45,-3467.7 -296,-960.59 -1676.78,-1537.66 -3669.85,-1694.1 -2157.42,-169.34 -4967.11,180.54 -7917.72,1089.76zm-801.53 -2899.25c4995.54,-1529.63 9769.29,-2115.97 13456.74,-1826.54 3872.27,303.93 6606.31,1591.87 7284.19,3791.73 677.55,2198.74 -857.45,4801.52 -3886.93,7232.21 -2902.44,2328.75 -7209.97,4543.3 -12234.61,6091.65 -5025.79,1548.7 -9832.12,2143.03 -13540.07,1851.99 -3872.27,-303.94 -6606.3,-1591.88 -7284.19,-3791.73 -677.54,-2198.73 857.47,-4801.53 3886.94,-7232.21 2902.44,-2328.74 7209.96,-4543.3 12234.6,-6091.65l82.59 -25.45 0.74 0zm13371.94 -745.29c-3584.14,-281.32 -8246.43,298.25 -13137.24,1805.35l-1.17 0.36c-4891.45,1507.44 -9070.52,3651.9 -11873.03,5900.48 -2675.68,2146.82 -4064,4339.91 -3530.76,6070.39 532.9,1729.35 2914.58,2760.08 6334.38,3028.49 3584.15,281.33 8246.41,-298.23 13137.22,-1805.33 4891.97,-1507.46 9071.49,-3652.09 11874.22,-5900.84 2675.68,-2146.82 4064.01,-4339.91 3530.76,-6070.4 -532.89,-1729.36 -2914.57,-2760.08 -6334.38,-3028.5zm-31884.66 -6511.72c1386.88,-1986.09 3302.43,-3843.18 5629.63,-5427.25 2234.36,-1520.86 4851.17,-2791.5 7745.93,-3683.53 2909.58,-896.59 5804.27,-1318.54 8522.29,-1313.99 2794.88,4.7 5404.43,460.48 7654.34,1315.18 3025.33,-157.58 5861.53,-43.12 8416.94,330.14 6706.2,979.57 11521.51,3751.28 12856.32,8082.95l25.45 82.58 0 4c1276.14,4310.88 -1144.15,9275.59 -6102.55,13829.31 -4884.34,4485.72 -12258.27,8603.15 -20967.29,11292.41l-0.75 0.36 -38.69 11.92c-8726.37,2689.04 -17153.89,3439.89 -23724.98,2480.07 -6706.21,-979.56 -11521.51,-3751.27 -12856.32,-8082.93 -1334.57,-4330.87 1085.52,-9331.71 6077.12,-13915.91 1900.06,-1744.98 4177,-3434.18 6762.56,-5005.31zm26534.43 -8867.97c-1452.12,-310.48 -3010.19,-472.81 -4636.58,-475.54 -2611.65,-4.38 -5398.03,402.59 -8204.28,1267.34 -2786.84,858.77 -5304.73,2081.11 -7453.35,3543.61 -1358.67,924.82 -2568.47,1945.12 -3603.87,3029.45 3467.51,-1854.6 7380.76,-3493.69 11607.79,-4796.26l82.59 -25.44 0.9 0c4197.06,-1287.67 8323.76,-2126.88 12206.8,-2543.16zm-11972.25 3603.21l-1.95 0.6c-8567.87,2640.47 -15808.61,6676.19 -20589.23,11066.63 -4681.14,4299.08 -6976.35,8905.66 -5776.07,12800.73 1200.03,3894.28 5689.78,6409.6 11978.6,7328.19 6423.9,938.33 14681.47,198.5 23249.99,-2441.89l0.18 -0.07c8568.68,-2640.45 15810.14,-6676.43 20591.09,-11067.21 4681.11,-4299.05 6976.32,-8905.64 5776.05,-12800.69l-0.07 -0.23c-1200.12,-3894.15 -5689.83,-6409.42 -11978.52,-7327.98 -6423.93,-938.33 -14681.54,-198.49 -23250.07,2441.92zm37517.14 85987.22c-248.82,-12.68 -440.24,-224.67 -427.56,-473.49 12.67,-248.82 224.67,-440.24 473.49,-427.56 6335.29,332.35 11748.84,928.09 15551.65,1691.52 3902.29,783.41 6187.74,1824.18 6187.74,3037.19 0,1524.59 -3840.44,2819.4 -10049.55,3680.34 -5991.52,830.75 -14258.58,1344.59 -23381,1344.59 -9122.42,0 -17389.48,-513.84 -23381,-1344.59 -6209.11,-860.94 -10049.55,-2155.75 -10049.55,-3680.34 0,-1218.84 2305.06,-2263.93 6237.78,-3048.98 3825.69,-763.69 9280.15,-1358.68 15665.96,-1688.28 248.82,-12.68 460.81,178.74 473.49,427.56 12.68,248.81 -178.74,460.81 -427.56,473.49 -6332.7,326.85 -11741.63,916.87 -15535.21,1674.15 -3473.8,693.44 -5509.89,1444.34 -5509.89,2162.06 0,1000.79 3542.01,1992.34 9268.65,2786.36 5944.27,824.21 14166.37,1334 23257.33,1334 9090.96,0 17313.05,-509.79 23257.32,-1334 5726.64,-794.02 9268.65,-1785.57 9268.65,-2786.36 0,-714.8 -2016.6,-1462.57 -5459.84,-2153.83 -3755.79,-753.99 -9123.55,-1343.47 -15420.9,-1673.83zm-7940.32 -18822.2c1740.42,1038.18 1992.28,1883.85 2306.14,2938.99 63.53,213.59 129.96,436.89 212.94,666.03 254.4,702.55 577.52,1392.42 901.23,2083.59 269.22,574.82 538.87,1150.56 775.65,1744.7 128.55,322.55 263.21,679.15 368.19,1002.31 113.56,349.57 201.07,683.16 228.26,942.63 89.98,858.43 -200.27,1461.75 -611.72,1770.53 -200.38,150.38 -429.57,232.68 -664,244.54 -235.22,11.91 -471.62,-47.44 -685.46,-180.37 -430.28,-267.48 -766.07,-839.55 -756.59,-1723.8 7.94,-740.57 -61.66,-857.11 -763.66,-2032.86l-36.01 -60.32c-280.18,-469.34 -587.15,-980.17 -835.53,-1393.54 -172.07,-286.36 -317.02,-527.59 -403.86,-672.82 -176.17,527.76 -360.44,1171.14 -519.05,1809.9 -168.39,678.11 -306.24,1343.33 -372.74,1849.89 -23.55,179.43 -101.67,321.66 -225.89,430.25 475.84,1339.13 385.33,2306.76 293.37,3289.18 -75.12,802.64 -151.3,1616.3 137.75,2661.72 263.23,952.02 566.43,2051.11 819.66,3112.68 261.73,1097.18 485.02,2206.44 591.64,3193.82 48.03,444.87 25.07,894.89 -228.47,1266.33 -259.44,380.12 -720.13,631.45 -1518.89,631.45 -626.79,0 -1147.49,-77.38 -1481.91,-360.21 -393.68,-332.95 -492.8,-839.66 -162.38,-1634.12 100.17,-240.86 180.67,-464.8 222.59,-688.32 39.98,-213.13 47.07,-436.15 5.51,-690.68l-7.9 -48.06 -0.29 0.05 -8.26 -49.54c-396.92,-2363.92 -1054.92,-3865.52 -1950.22,-5908.64 -180.35,-411.61 -369.13,-842.4 -483.09,-1107.37 -177.78,-413.41 -170.01,-594.67 -201.9,-589.41 -3.9,0.64 -105.68,218.89 -261.09,554.72 -402.06,868.84 -798.86,2744.62 -985.05,4556.56 -158.3,1540.44 -164.69,3007.6 109.67,3713.25 200.83,516.49 331.56,1054.97 104.83,1517.17 -230.25,469.35 -776.25,774.79 -1889.68,743.16 -668.1,-18.96 -1294.71,-126.66 -1675.16,-482.37 -435.12,-406.83 -528.09,-1027.66 -0.38,-1993.59 242.09,-443.14 395.47,-1456.68 488.18,-2595.62 151.26,-1858.08 126.8,-3995.86 68.81,-4664.75l-16.93 -193.65c-145.35,-1655.56 -334.71,-3813.95 558,-6190.21 -239.92,-266.36 -351.15,-539.51 -285.89,-807.98 114.33,-591.27 339.13,-1471.42 584.78,-2340.05 264.71,-936.05 555.67,-1865.2 759.88,-2408.62l50.53 -134.11c310.19,-822.22 428.77,-1136.54 28.67,-1614.75 -389.71,-465.79 -764.46,-959.94 -1087.43,-1425.47 -333.68,-480.98 -610.03,-929.82 -788.97,-1284.35 -334.67,-663.08 -445.33,-1148.72 -333.8,-1583.15 116.58,-454.16 443.19,-774.79 981.08,-1105.52 372.92,-229.31 728.64,-467.79 1053.4,-707.74 317.09,-234.27 615.53,-477.05 883.75,-721.91 198.93,-181.61 398.2,-382.68 572.88,-589.95 148.81,-176.59 285.35,-363.5 395.99,-554.6 100.92,-174.33 209.78,-334.87 324.34,-481.81 395.71,-507.51 847.91,-822.62 1277.9,-971.87 481.69,-167.2 944.41,-130.49 1297.97,74.23 46.59,26.97 93.56,58.9 140.71,95.65 140.5,109.53 259.6,234.41 354.4,371.55 189.59,274.22 282.15,591.46 257.19,930.2 -23.57,319.99 -152.42,652.7 -404.71,976.29 -174.52,223.84 -409.68,444.43 -711.88,653.34 -203.99,141.03 -366.98,229.75 -518.56,312.26 -216.37,117.76 -404.02,219.91 -676.19,497.66 -145.61,148.58 -318.31,340.01 -497.69,538.84 -440.51,488.3 -920.37,1020.2 -1443.3,1387.51 -57.91,40.68 84.35,-26.91 99.31,-5.61 40.4,57.51 92.42,119.43 137.07,172.58 4.31,5.12 8.84,10.54 53.51,65.37 317.38,389.63 637.29,765.28 1021.64,1060.23 233.44,179.14 496.19,332.26 805.79,445.89 -33.98,-846.76 127.08,-1580.67 413.86,-2179.11 242.39,-505.85 573.44,-914.25 953.38,-1213.3 390.78,-307.58 834.37,-502.14 1289.53,-571.55 476.53,-72.66 965.11,-6.89 1419.71,210.95 639.77,306.57 1049.13,772.77 1275.24,1316.12 188.68,453.39 244.83,956 197.9,1458.96 -45.45,487.18 -188.33,976.16 -400.67,1419.26 -233.56,487.41 -554.79,924.85 -927.63,1251.36zm-7805.04 8053.25c-707.44,2082.85 -537.4,4021.16 -405.61,5522.41l16.94 193.66c60.23,694.87 86.56,2904.55 -68.81,4813.16 -101.42,1245.95 -285.51,2384.54 -597.72,2956.04 -283.31,518.58 -303.4,786.44 -176.3,905.27 181.76,169.95 606.76,224.97 1085.07,238.55 685.6,19.48 978.38,-80.1 1055.77,-237.85 80.87,-164.86 -11.91,-475.61 -136.62,-796.36 -329.88,-848.4 -337.03,-2467.85 -166.21,-4130.2 195.27,-1900.19 623.13,-3892.7 1062.77,-4842.76 277.19,-598.98 542.5,-1002.1 936.01,-1067.08 429.28,-70.91 801.04,248.42 1177.14,1122.96 220.54,512.81 352.75,814.46 479.54,1103.84 921.48,2102.87 1598.72,3648.36 2013.84,6120.65l8.25 49.54 0 1.77 8.19 49.79c59.93,366.97 49.29,690.64 -9.04,1001.61 -56.37,300.55 -154.83,578.2 -275.6,868.54 -148.7,357.54 -163.55,535.31 -88.49,598.79 134.3,113.58 466.87,144.67 898.88,144.67 449.66,0 676.47,-93.83 773.31,-235.71 102.77,-150.56 104.9,-399.47 76.55,-662.09 -100.78,-933.36 -318.03,-2007.81 -573.97,-3080.75 -264.45,-1108.55 -556.14,-2166.15 -809.06,-3080.88 -332.65,-1203.13 -248.76,-2099.25 -166.02,-2983.26 82.98,-886.56 164.63,-1759.69 -256.37,-2934.12 -82.05,4.62 -167.79,6.1 -257.01,4.49 -533.78,-9.62 -1226.53,-116.86 -1956.31,-287.57 -720.54,-168.54 -1488.8,-400.84 -2183.18,-663.05 -550.39,-207.84 -1055.17,-443.09 -1465.94,-694.06zm7781.09 -3035.46c-55.4,1.31 -28.33,8.95 14.94,24.44 14.02,-16.88 17.74,-25.22 -14.94,-24.44z"/></g><text x="0" y="100015" fill="#000000" font-size="5px" font-weight="bold" font-family="'Helvetica Neue', Helvetica, Arial-Unicode, Arial, Sans-serif">Created by Oleksandr Panasovskyi</text><text x="0" y="100020" fill="#000000" font-size="5px" font-weight="bold" font-family="'Helvetica Neue', Helvetica, Arial-Unicode, Arial, Sans-serif">from the Noun Project</text></svg>