<svg xmlns="http://www.w3.org/2000/svg" xmlns:xlink="http://www.w3.org/1999/xlink" version="1.1" x="0px" y="0px" viewBox="0 0 512 640" style="enable-background:new 0 0 512 512;" xml:space="preserve"><path d="M419.83,87.84c-29.15-16.7-60.3-25.41-89.72-32.26l-3.96-6.08c-15.12-23.19-40.67-37.03-68.34-37.03h-3.6  c-22.94,0-44.95,9.74-60.38,26.71c-1.3,1.43-1.19,3.64,0.24,4.94c1.43,1.3,3.64,1.19,4.94-0.24c14.1-15.52,34.22-24.42,55.2-24.42  h0.25c-17.17,5.32-32.24,16.48-42.32,31.94l-1.09,1.67c-3.74,0.22-7.47,0.46-11.2,0.74c-11,0.82-21.99,2.61-32.66,5.34  c-31.17,7.97-54.31,16.82-75.02,28.68c-2.22,1.27-3.62,3.55-3.76,6.11c-0.14,2.54,1,4.95,3.04,6.44  c14.45,10.56,41.03,19.13,76.9,24.82l8.73,9.81c3.25,3.65,7.85,5.81,12.71,6.03l-77.33,346.43c-0.98,4.37,2.35,8.52,6.83,8.52h273.4  c4.48,0,7.81-4.15,6.83-8.52l-77.32-346.42c4.36-0.2,8.47-1.92,11.65-4.94c1.4-1.33,1.46-3.55,0.13-4.95  c-1.33-1.4-3.55-1.46-4.95-0.13c-2.07,1.97-4.79,3.06-7.65,3.06H190.61c-3.17,0-6.2-1.36-8.3-3.73l-5.12-5.75  c54.53-6.55,109.75-6.3,164.22,0.81c0.15,0.02,0.3,0.03,0.45,0.03c0.18,0,0.36-0.01,0.54-0.04c36.5-5.69,63.53-14.34,78.15-25.02  c2.05-1.49,3.18-3.9,3.04-6.44C423.46,91.39,422.05,89.1,419.83,87.84z M268.94,272.73c3.66-6.34,11.76-8.51,18.1-4.85  c6.34,3.66,8.51,11.76,4.85,18.1c-3.66,6.34-11.76,8.51-18.1,4.85C267.45,287.17,265.28,279.07,268.94,272.73z M302.03,315.18  c-0.95,2.97-3.7,4.86-6.66,4.86c-0.71,0-1.43-0.11-2.14-0.34l-23.65-7.58l-8.65,14.98l1.38,40.15c0.13,3.86-2.89,7.1-6.76,7.24  c-0.08,0-0.16,0-0.24,0c-3.76,0-6.86-2.98-6.99-6.76l-1.06-30.95l-27.33,14.55c-1.05,0.56-2.17,0.82-3.28,0.82  c-2.5,0-4.93-1.35-6.18-3.71c-1.82-3.41-0.52-7.65,2.89-9.47l35.46-18.88l8.65-14.98l-18.39-16.69c-2.86-2.6-3.08-7.02-0.48-9.89  c2.6-2.86,7.02-3.08,9.89-0.48l21.45,19.46l27.58,8.85C301.18,307.56,303.21,311.5,302.03,315.18z M296.4,141.09l-3.99,6.18  c-1.2,1.86-3.24,2.97-5.46,2.97h-61.88c-2.22,0-4.26-1.11-5.46-2.97l-4-6.18H296.4z M294.19,35.12c1.07-1.61,3.24-2.05,4.85-0.97  c1,0.66,1.99,1.35,2.95,2.05c1.56,1.14,1.91,3.33,0.77,4.89c-0.69,0.94-1.75,1.44-2.83,1.44c-0.71,0-1.44-0.22-2.06-0.67  c-0.88-0.64-1.79-1.28-2.71-1.89C293.56,38.91,293.12,36.73,294.19,35.12z M263.43,24.16c0.35-1.9,2.18-3.15,4.08-2.8  c6.27,1.16,12.42,3.04,18.27,5.58c1.77,0.77,2.59,2.83,1.82,4.6c-0.57,1.32-1.86,2.11-3.21,2.11c-0.46,0-0.94-0.09-1.39-0.29  c-5.37-2.33-11.01-4.05-16.77-5.12C264.33,27.89,263.08,26.06,263.43,24.16z M341.82,118.41c-56.95-7.38-114.69-7.38-171.64,0  c-35.15-5.52-60.94-13.7-74.6-23.68c-0.05-0.04-0.2-0.14-0.18-0.4c0.01-0.19,0.1-0.33,0.25-0.42  c20.14-11.53,42.73-20.16,73.27-27.97c10.27-2.63,20.85-4.36,31.44-5.14c18.44-1.37,37-2.05,55.57-2.05  c23.86,0,47.76,1.13,71.46,3.39c26.17,6.06,53.76,13.56,79.87,26.88c-79.45-6.1-159.87-7.4-239.22-3.86  c-1.93,0.09-3.43,1.72-3.34,3.65c0.09,1.93,1.72,3.42,3.65,3.34c81.42-3.64,163.96-2.15,245.43,4.4  C399.56,105.7,374.82,113.23,341.82,118.41z"/><text x="0" y="527" fill="#000000" font-size="5px" font-weight="bold" font-family="'Helvetica Neue', Helvetica, Arial-Unicode, Arial, Sans-serif">Created by iconfield</text><text x="0" y="532" fill="#000000" font-size="5px" font-weight="bold" font-family="'Helvetica Neue', Helvetica, Arial-Unicode, Arial, Sans-serif">from the Noun Project</text></svg>